<?xml version="1.0" encoding="utf-8" standalone="no"?>
<!DOCTYPE svg PUBLIC "-//W3C//DTD SVG 1.1//EN"
  "http://www.w3.org/Graphics/SVG/1.1/DTD/svg11.dtd">
<!-- Created with matplotlib (https://matplotlib.org/) -->
<svg height="231.84pt" version="1.1" viewBox="0 0 181.8 231.84" width="181.8pt" xmlns="http://www.w3.org/2000/svg" xmlns:xlink="http://www.w3.org/1999/xlink">
 <metadata>
  <rdf:RDF xmlns:cc="http://creativecommons.org/ns#" xmlns:dc="http://purl.org/dc/elements/1.1/" xmlns:rdf="http://www.w3.org/1999/02/22-rdf-syntax-ns#">
   <cc:Work>
    <dc:type rdf:resource="http://purl.org/dc/dcmitype/StillImage"/>
    <dc:date>2021-03-17T11:00:26.501822</dc:date>
    <dc:format>image/svg+xml</dc:format>
    <dc:creator>
     <cc:Agent>
      <dc:title>Matplotlib v3.3.4, https://matplotlib.org/</dc:title>
     </cc:Agent>
    </dc:creator>
   </cc:Work>
  </rdf:RDF>
 </metadata>
 <defs>
  <style type="text/css">*{stroke-linecap:butt;stroke-linejoin:round;}</style>
 </defs>
 <g id="figure_1">
  <g id="patch_1">
   <path d="M 0 231.84 
L 181.8 231.84 
L 181.8 0 
L 0 0 
z
" style="fill:none;"/>
  </g>
  <g id="axes_1">
   <g id="patch_2">
    <path d="M 7.2 224.64 
L 174.6 224.64 
L 174.6 7.2 
L 7.2 7.2 
z
" style="fill:#ffffff;"/>
   </g>
   <g id="matplotlib.axis_1"/>
   <g id="matplotlib.axis_2"/>
   <g id="line2d_1">
    <path clip-path="url(#p15efab2131)" d="M 14.809091 214.351057 
L 15.806504 214.241647 
L 16.924741 213.893056 
L 18.246293 213.233546 
L 19.771161 212.208525 
L 21.569339 210.719386 
L 23.856641 208.515937 
L 30.616888 201.792947 
L 32.497559 200.36314 
L 34.225742 199.327758 
L 35.903097 198.576246 
L 37.68211 198.024428 
L 39.613609 197.660754 
L 41.900911 197.465784 
L 44.79816 197.455915 
L 49.016961 197.685142 
L 56.387156 198.337209 
L 67.976152 199.594248 
L 108.690126 204.203204 
L 124.65041 205.672273 
L 141.525615 206.998814 
L 159.773201 208.206776 
L 166.990909 208.627892 
L 166.990909 208.627892 
" style="fill:none;stroke:#000000;stroke-linecap:square;"/>
   </g>
   <g id="line2d_2">
    <path clip-path="url(#p15efab2131)" d="M 14.809091 214.756364 
L 16.365623 214.646961 
L 18.246293 214.285128 
L 20.756076 213.557662 
L 25.229022 211.980774 
L 30.820204 210.079676 
L 34.886518 208.939802 
L 38.851175 208.060904 
L 43.019147 207.369105 
L 47.542922 206.84825 
L 52.676644 206.486667 
L 58.776116 206.288086 
L 66.502113 206.271043 
L 77.379504 206.487344 
L 98.066879 207.164611 
L 146.913482 208.764337 
L 166.990909 209.327512 
L 166.990909 209.327512 
" style="fill:none;stroke:#000000;stroke-linecap:square;stroke-opacity:0.3;"/>
   </g>
   <g id="line2d_3">
    <path clip-path="url(#p15efab2131)" d="M 14.809091 176.250147 
L 15.603189 176.144578 
L 16.518109 175.788303 
L 17.534688 175.139873 
L 18.652924 174.158004 
L 19.891984 172.770694 
L 21.213536 170.956839 
L 22.636746 168.615248 
L 24.161614 165.66336 
L 25.991456 161.599096 
L 30.972691 150.211062 
L 32.294243 147.906748 
L 33.463308 146.306443 
L 34.479887 145.267009 
L 35.445637 144.576067 
L 36.411386 144.15373 
L 37.377136 143.970632 
L 38.444544 144.004331 
L 39.664438 144.28355 
L 41.138477 144.863341 
L 43.37495 146.014784 
L 48.457843 148.684685 
L 51.253434 149.862244 
L 54.252341 150.88125 
L 57.912024 151.877816 
L 62.994917 153.010587 
L 72.34744 154.826356 
L 89.730935 157.972198 
L 103.302259 160.207814 
L 116.212807 162.108278 
L 129.479158 163.835121 
L 143.507943 165.434706 
L 158.502478 166.917799 
L 166.990909 167.6654 
L 166.990909 167.6654 
" style="fill:none;stroke:#000000;stroke-linecap:square;"/>
   </g>
   <g id="line2d_4">
    <path clip-path="url(#p15efab2131)" d="M 14.809091 176.655454 
L 16.060649 176.547183 
L 17.534688 176.189714 
L 19.36453 175.501197 
L 21.823483 174.319081 
L 32.751703 168.783536 
L 36.055584 167.506295 
L 39.359464 166.467443 
L 42.815832 165.617609 
L 46.475515 164.949016 
L 50.491 164.443247 
L 55.065604 164.096526 
L 60.453471 163.920223 
L 67.061232 163.936159 
L 75.956294 164.195047 
L 90.340882 164.865498 
L 148.692494 167.745642 
L 166.990909 168.512176 
L 166.990909 168.512176 
" style="fill:none;stroke:#000000;stroke-linecap:square;stroke-opacity:0.3;"/>
   </g>
   <g id="line2d_5">
    <path clip-path="url(#p15efab2131)" d="M 14.809091 138.149237 
L 15.55236 138.040926 
L 16.365623 137.697396 
L 17.280543 137.064921 
L 18.297122 136.087231 
L 19.415358 134.69508 
L 20.603589 132.844284 
L 21.823483 130.507187 
L 23.043378 127.67149 
L 24.314101 124.142645 
L 25.737311 119.515748 
L 27.770468 112.042835 
L 30.362744 102.628733 
L 31.684296 98.637819 
L 32.751703 96.050988 
L 33.717453 94.262591 
L 34.581545 93.117853 
L 35.343979 92.45525 
L 36.055584 92.11351 
L 36.767189 92.017117 
L 37.478794 92.140625 
L 38.292057 92.515025 
L 39.257807 93.224799 
L 40.477701 94.426074 
L 42.256713 96.531502 
L 46.577173 101.738303 
L 48.559501 103.717682 
L 50.440171 105.285936 
L 52.371671 106.610391 
L 52.748674 106.839116 
L 53.663595 102.260763 
L 54.629345 96.27283 
L 55.696752 88.198536 
L 56.967476 76.741871 
L 57.831567 68.046715 
L 57.882396 68.621675 
L 58.746488 77.074111 
L 59.61058 83.442443 
L 60.474672 88.248201 
L 61.389593 92.085587 
L 62.304513 94.988784 
L 63.270263 97.325988 
L 64.286842 99.210823 
L 65.405078 100.805035 
L 66.624972 102.148179 
L 67.997354 103.32512 
L 69.623879 104.419614 
L 71.606208 105.477597 
L 74.198483 106.593982 
L 77.729422 107.855359 
L 82.863144 109.434881 
L 90.334997 111.486352 
L 99.68752 113.820651 
L 109.853306 116.128297 
L 120.476552 118.310221 
L 131.557259 120.358054 
L 143.247913 122.290598 
L 155.599343 124.10498 
L 166.629221 125.549054 
L 166.629221 125.549054 
" style="fill:none;stroke:#000000;stroke-linecap:square;"/>
   </g>
   <g id="line2d_6">
    <path clip-path="url(#p15efab2131)" d="M 14.809091 138.554544 
L 15.958991 138.44719 
L 17.280543 138.100239 
L 18.907069 137.431869 
L 21.01022 136.310584 
L 24.517417 134.147663 
L 29.752797 130.960943 
L 33.056677 129.221312 
L 36.157242 127.839142 
L 39.257807 126.701829 
L 42.460029 125.767014 
L 45.865567 125.009654 
L 49.525251 124.426513 
L 52.748674 124.076198 
L 52.850332 17.384755 
L 57.424936 17.099318 
L 57.831567 17.083636 
L 57.831567 123.766184 
L 57.933225 123.762483 
L 63.42275 123.675534 
L 70.335484 123.798996 
L 79.915066 124.210155 
L 97.095244 125.209448 
L 137.504244 127.572606 
L 166.629221 129.03714 
L 166.629221 129.03714 
" style="fill:none;stroke:#000000;stroke-linecap:square;stroke-opacity:0.3;"/>
   </g>
   <g id="line2d_7">
    <path d="M 141.12 83.304 
L 141.12 68.063636 
" style="fill:none;stroke:#000000;stroke-width:3;"/>
   </g>
   <g id="line2d_8">
    <path d="M 130.954214 83.304 
L 141.12 83.304 
" style="fill:none;stroke:#000000;stroke-width:3;"/>
   </g>
   <g id="text_1">
    <!-- $20$mV -->
    <g transform="translate(113.2818 77.982377)scale(0.0833 -0.0833)">
     <defs>
      <path d="M 19.1875 8.296875 
L 53.609375 8.296875 
L 53.609375 0 
L 7.328125 0 
L 7.328125 8.296875 
Q 12.9375 14.109375 22.625 23.890625 
Q 32.328125 33.6875 34.8125 36.53125 
Q 39.546875 41.84375 41.421875 45.53125 
Q 43.3125 49.21875 43.3125 52.78125 
Q 43.3125 58.59375 39.234375 62.25 
Q 35.15625 65.921875 28.609375 65.921875 
Q 23.96875 65.921875 18.8125 64.3125 
Q 13.671875 62.703125 7.8125 59.421875 
L 7.8125 69.390625 
Q 13.765625 71.78125 18.9375 73 
Q 24.125 74.21875 28.421875 74.21875 
Q 39.75 74.21875 46.484375 68.546875 
Q 53.21875 62.890625 53.21875 53.421875 
Q 53.21875 48.921875 51.53125 44.890625 
Q 49.859375 40.875 45.40625 35.40625 
Q 44.1875 33.984375 37.640625 27.21875 
Q 31.109375 20.453125 19.1875 8.296875 
z
" id="DejaVuSans-50"/>
      <path d="M 31.78125 66.40625 
Q 24.171875 66.40625 20.328125 58.90625 
Q 16.5 51.421875 16.5 36.375 
Q 16.5 21.390625 20.328125 13.890625 
Q 24.171875 6.390625 31.78125 6.390625 
Q 39.453125 6.390625 43.28125 13.890625 
Q 47.125 21.390625 47.125 36.375 
Q 47.125 51.421875 43.28125 58.90625 
Q 39.453125 66.40625 31.78125 66.40625 
z
M 31.78125 74.21875 
Q 44.046875 74.21875 50.515625 64.515625 
Q 56.984375 54.828125 56.984375 36.375 
Q 56.984375 17.96875 50.515625 8.265625 
Q 44.046875 -1.421875 31.78125 -1.421875 
Q 19.53125 -1.421875 13.0625 8.265625 
Q 6.59375 17.96875 6.59375 36.375 
Q 6.59375 54.828125 13.0625 64.515625 
Q 19.53125 74.21875 31.78125 74.21875 
z
" id="DejaVuSans-48"/>
      <path d="M 52 44.1875 
Q 55.375 50.25 60.0625 53.125 
Q 64.75 56 71.09375 56 
Q 79.640625 56 84.28125 50.015625 
Q 88.921875 44.046875 88.921875 33.015625 
L 88.921875 0 
L 79.890625 0 
L 79.890625 32.71875 
Q 79.890625 40.578125 77.09375 44.375 
Q 74.3125 48.1875 68.609375 48.1875 
Q 61.625 48.1875 57.5625 43.546875 
Q 53.515625 38.921875 53.515625 30.90625 
L 53.515625 0 
L 44.484375 0 
L 44.484375 32.71875 
Q 44.484375 40.625 41.703125 44.40625 
Q 38.921875 48.1875 33.109375 48.1875 
Q 26.21875 48.1875 22.15625 43.53125 
Q 18.109375 38.875 18.109375 30.90625 
L 18.109375 0 
L 9.078125 0 
L 9.078125 54.6875 
L 18.109375 54.6875 
L 18.109375 46.1875 
Q 21.1875 51.21875 25.484375 53.609375 
Q 29.78125 56 35.6875 56 
Q 41.65625 56 45.828125 52.96875 
Q 50 49.953125 52 44.1875 
z
" id="DejaVuSans-109"/>
      <path d="M 28.609375 0 
L 0.78125 72.90625 
L 11.078125 72.90625 
L 34.1875 11.53125 
L 57.328125 72.90625 
L 67.578125 72.90625 
L 39.796875 0 
z
" id="DejaVuSans-86"/>
     </defs>
     <use transform="translate(0 0.78125)" xlink:href="#DejaVuSans-50"/>
     <use transform="translate(63.623047 0.78125)" xlink:href="#DejaVuSans-48"/>
     <use transform="translate(127.246094 0.78125)" xlink:href="#DejaVuSans-109"/>
     <use transform="translate(224.658203 0.78125)" xlink:href="#DejaVuSans-86"/>
    </g>
   </g>
   <g id="text_2">
    <!-- $2$ms -->
    <g transform="translate(127.124007 93.982298)scale(0.0833 -0.0833)">
     <defs>
      <path d="M 44.28125 53.078125 
L 44.28125 44.578125 
Q 40.484375 46.53125 36.375 47.5 
Q 32.28125 48.484375 27.875 48.484375 
Q 21.1875 48.484375 17.84375 46.4375 
Q 14.5 44.390625 14.5 40.28125 
Q 14.5 37.15625 16.890625 35.375 
Q 19.28125 33.59375 26.515625 31.984375 
L 29.59375 31.296875 
Q 39.15625 29.25 43.1875 25.515625 
Q 47.21875 21.78125 47.21875 15.09375 
Q 47.21875 7.46875 41.1875 3.015625 
Q 35.15625 -1.421875 24.609375 -1.421875 
Q 20.21875 -1.421875 15.453125 -0.5625 
Q 10.6875 0.296875 5.421875 2 
L 5.421875 11.28125 
Q 10.40625 8.6875 15.234375 7.390625 
Q 20.0625 6.109375 24.8125 6.109375 
Q 31.15625 6.109375 34.5625 8.28125 
Q 37.984375 10.453125 37.984375 14.40625 
Q 37.984375 18.0625 35.515625 20.015625 
Q 33.0625 21.96875 24.703125 23.78125 
L 21.578125 24.515625 
Q 13.234375 26.265625 9.515625 29.90625 
Q 5.8125 33.546875 5.8125 39.890625 
Q 5.8125 47.609375 11.28125 51.796875 
Q 16.75 56 26.8125 56 
Q 31.78125 56 36.171875 55.265625 
Q 40.578125 54.546875 44.28125 53.078125 
z
" id="DejaVuSans-115"/>
     </defs>
     <use transform="translate(0 0.78125)" xlink:href="#DejaVuSans-50"/>
     <use transform="translate(63.623047 0.78125)" xlink:href="#DejaVuSans-109"/>
     <use transform="translate(161.035156 0.78125)" xlink:href="#DejaVuSans-115"/>
    </g>
   </g>
   <g id="legend_1">
    <g id="patch_3">
     <path d="M 92.098438 44.55625 
L 167.6 44.55625 
Q 169.6 44.55625 169.6 42.55625 
L 169.6 14.2 
Q 169.6 12.2 167.6 12.2 
L 92.098438 12.2 
Q 90.098438 12.2 90.098438 14.2 
L 90.098438 42.55625 
Q 90.098438 44.55625 92.098438 44.55625 
z
" style="fill:#ffffff;opacity:0.8;stroke:#cccccc;stroke-linejoin:miter;"/>
    </g>
    <g id="line2d_9">
     <path d="M 94.098438 20.298437 
L 114.098438 20.298437 
" style="fill:none;stroke:#000000;stroke-linecap:square;"/>
    </g>
    <g id="line2d_10"/>
    <g id="text_3">
     <!-- Dendrite -->
     <g transform="translate(122.098438 23.798437)scale(0.1 -0.1)">
      <defs>
       <path d="M 19.671875 64.796875 
L 19.671875 8.109375 
L 31.59375 8.109375 
Q 46.6875 8.109375 53.6875 14.9375 
Q 60.6875 21.78125 60.6875 36.53125 
Q 60.6875 51.171875 53.6875 57.984375 
Q 46.6875 64.796875 31.59375 64.796875 
z
M 9.8125 72.90625 
L 30.078125 72.90625 
Q 51.265625 72.90625 61.171875 64.09375 
Q 71.09375 55.28125 71.09375 36.53125 
Q 71.09375 17.671875 61.125 8.828125 
Q 51.171875 0 30.078125 0 
L 9.8125 0 
z
" id="DejaVuSans-68"/>
       <path d="M 56.203125 29.59375 
L 56.203125 25.203125 
L 14.890625 25.203125 
Q 15.484375 15.921875 20.484375 11.0625 
Q 25.484375 6.203125 34.421875 6.203125 
Q 39.59375 6.203125 44.453125 7.46875 
Q 49.3125 8.734375 54.109375 11.28125 
L 54.109375 2.78125 
Q 49.265625 0.734375 44.1875 -0.34375 
Q 39.109375 -1.421875 33.890625 -1.421875 
Q 20.796875 -1.421875 13.15625 6.1875 
Q 5.515625 13.8125 5.515625 26.8125 
Q 5.515625 40.234375 12.765625 48.109375 
Q 20.015625 56 32.328125 56 
Q 43.359375 56 49.78125 48.890625 
Q 56.203125 41.796875 56.203125 29.59375 
z
M 47.21875 32.234375 
Q 47.125 39.59375 43.09375 43.984375 
Q 39.0625 48.390625 32.421875 48.390625 
Q 24.90625 48.390625 20.390625 44.140625 
Q 15.875 39.890625 15.1875 32.171875 
z
" id="DejaVuSans-101"/>
       <path d="M 54.890625 33.015625 
L 54.890625 0 
L 45.90625 0 
L 45.90625 32.71875 
Q 45.90625 40.484375 42.875 44.328125 
Q 39.84375 48.1875 33.796875 48.1875 
Q 26.515625 48.1875 22.3125 43.546875 
Q 18.109375 38.921875 18.109375 30.90625 
L 18.109375 0 
L 9.078125 0 
L 9.078125 54.6875 
L 18.109375 54.6875 
L 18.109375 46.1875 
Q 21.34375 51.125 25.703125 53.5625 
Q 30.078125 56 35.796875 56 
Q 45.21875 56 50.046875 50.171875 
Q 54.890625 44.34375 54.890625 33.015625 
z
" id="DejaVuSans-110"/>
       <path d="M 45.40625 46.390625 
L 45.40625 75.984375 
L 54.390625 75.984375 
L 54.390625 0 
L 45.40625 0 
L 45.40625 8.203125 
Q 42.578125 3.328125 38.25 0.953125 
Q 33.9375 -1.421875 27.875 -1.421875 
Q 17.96875 -1.421875 11.734375 6.484375 
Q 5.515625 14.40625 5.515625 27.296875 
Q 5.515625 40.1875 11.734375 48.09375 
Q 17.96875 56 27.875 56 
Q 33.9375 56 38.25 53.625 
Q 42.578125 51.265625 45.40625 46.390625 
z
M 14.796875 27.296875 
Q 14.796875 17.390625 18.875 11.75 
Q 22.953125 6.109375 30.078125 6.109375 
Q 37.203125 6.109375 41.296875 11.75 
Q 45.40625 17.390625 45.40625 27.296875 
Q 45.40625 37.203125 41.296875 42.84375 
Q 37.203125 48.484375 30.078125 48.484375 
Q 22.953125 48.484375 18.875 42.84375 
Q 14.796875 37.203125 14.796875 27.296875 
z
" id="DejaVuSans-100"/>
       <path d="M 41.109375 46.296875 
Q 39.59375 47.171875 37.8125 47.578125 
Q 36.03125 48 33.890625 48 
Q 26.265625 48 22.1875 43.046875 
Q 18.109375 38.09375 18.109375 28.8125 
L 18.109375 0 
L 9.078125 0 
L 9.078125 54.6875 
L 18.109375 54.6875 
L 18.109375 46.1875 
Q 20.953125 51.171875 25.484375 53.578125 
Q 30.03125 56 36.53125 56 
Q 37.453125 56 38.578125 55.875 
Q 39.703125 55.765625 41.0625 55.515625 
z
" id="DejaVuSans-114"/>
       <path d="M 9.421875 54.6875 
L 18.40625 54.6875 
L 18.40625 0 
L 9.421875 0 
z
M 9.421875 75.984375 
L 18.40625 75.984375 
L 18.40625 64.59375 
L 9.421875 64.59375 
z
" id="DejaVuSans-105"/>
       <path d="M 18.3125 70.21875 
L 18.3125 54.6875 
L 36.8125 54.6875 
L 36.8125 47.703125 
L 18.3125 47.703125 
L 18.3125 18.015625 
Q 18.3125 11.328125 20.140625 9.421875 
Q 21.96875 7.515625 27.59375 7.515625 
L 36.8125 7.515625 
L 36.8125 0 
L 27.59375 0 
Q 17.1875 0 13.234375 3.875 
Q 9.28125 7.765625 9.28125 18.015625 
L 9.28125 47.703125 
L 2.6875 47.703125 
L 2.6875 54.6875 
L 9.28125 54.6875 
L 9.28125 70.21875 
z
" id="DejaVuSans-116"/>
      </defs>
      <use xlink:href="#DejaVuSans-68"/>
      <use x="77.001953" xlink:href="#DejaVuSans-101"/>
      <use x="138.525391" xlink:href="#DejaVuSans-110"/>
      <use x="201.904297" xlink:href="#DejaVuSans-100"/>
      <use x="265.380859" xlink:href="#DejaVuSans-114"/>
      <use x="306.494141" xlink:href="#DejaVuSans-105"/>
      <use x="334.277344" xlink:href="#DejaVuSans-116"/>
      <use x="373.486328" xlink:href="#DejaVuSans-101"/>
     </g>
    </g>
    <g id="line2d_11">
     <path d="M 94.098438 34.976562 
L 114.098438 34.976562 
" style="fill:none;stroke:#000000;stroke-linecap:square;stroke-opacity:0.3;"/>
    </g>
    <g id="line2d_12"/>
    <g id="text_4">
     <!-- Soma -->
     <g transform="translate(122.098438 38.476562)scale(0.1 -0.1)">
      <defs>
       <path d="M 53.515625 70.515625 
L 53.515625 60.890625 
Q 47.90625 63.578125 42.921875 64.890625 
Q 37.9375 66.21875 33.296875 66.21875 
Q 25.25 66.21875 20.875 63.09375 
Q 16.5 59.96875 16.5 54.203125 
Q 16.5 49.359375 19.40625 46.890625 
Q 22.3125 44.4375 30.421875 42.921875 
L 36.375 41.703125 
Q 47.40625 39.59375 52.65625 34.296875 
Q 57.90625 29 57.90625 20.125 
Q 57.90625 9.515625 50.796875 4.046875 
Q 43.703125 -1.421875 29.984375 -1.421875 
Q 24.8125 -1.421875 18.96875 -0.25 
Q 13.140625 0.921875 6.890625 3.21875 
L 6.890625 13.375 
Q 12.890625 10.015625 18.65625 8.296875 
Q 24.421875 6.59375 29.984375 6.59375 
Q 38.421875 6.59375 43.015625 9.90625 
Q 47.609375 13.234375 47.609375 19.390625 
Q 47.609375 24.75 44.3125 27.78125 
Q 41.015625 30.8125 33.5 32.328125 
L 27.484375 33.5 
Q 16.453125 35.6875 11.515625 40.375 
Q 6.59375 45.0625 6.59375 53.421875 
Q 6.59375 63.09375 13.40625 68.65625 
Q 20.21875 74.21875 32.171875 74.21875 
Q 37.3125 74.21875 42.625 73.28125 
Q 47.953125 72.359375 53.515625 70.515625 
z
" id="DejaVuSans-83"/>
       <path d="M 30.609375 48.390625 
Q 23.390625 48.390625 19.1875 42.75 
Q 14.984375 37.109375 14.984375 27.296875 
Q 14.984375 17.484375 19.15625 11.84375 
Q 23.34375 6.203125 30.609375 6.203125 
Q 37.796875 6.203125 41.984375 11.859375 
Q 46.1875 17.53125 46.1875 27.296875 
Q 46.1875 37.015625 41.984375 42.703125 
Q 37.796875 48.390625 30.609375 48.390625 
z
M 30.609375 56 
Q 42.328125 56 49.015625 48.375 
Q 55.71875 40.765625 55.71875 27.296875 
Q 55.71875 13.875 49.015625 6.21875 
Q 42.328125 -1.421875 30.609375 -1.421875 
Q 18.84375 -1.421875 12.171875 6.21875 
Q 5.515625 13.875 5.515625 27.296875 
Q 5.515625 40.765625 12.171875 48.375 
Q 18.84375 56 30.609375 56 
z
" id="DejaVuSans-111"/>
       <path d="M 34.28125 27.484375 
Q 23.390625 27.484375 19.1875 25 
Q 14.984375 22.515625 14.984375 16.5 
Q 14.984375 11.71875 18.140625 8.90625 
Q 21.296875 6.109375 26.703125 6.109375 
Q 34.1875 6.109375 38.703125 11.40625 
Q 43.21875 16.703125 43.21875 25.484375 
L 43.21875 27.484375 
z
M 52.203125 31.203125 
L 52.203125 0 
L 43.21875 0 
L 43.21875 8.296875 
Q 40.140625 3.328125 35.546875 0.953125 
Q 30.953125 -1.421875 24.3125 -1.421875 
Q 15.921875 -1.421875 10.953125 3.296875 
Q 6 8.015625 6 15.921875 
Q 6 25.140625 12.171875 29.828125 
Q 18.359375 34.515625 30.609375 34.515625 
L 43.21875 34.515625 
L 43.21875 35.40625 
Q 43.21875 41.609375 39.140625 45 
Q 35.0625 48.390625 27.6875 48.390625 
Q 23 48.390625 18.546875 47.265625 
Q 14.109375 46.140625 10.015625 43.890625 
L 10.015625 52.203125 
Q 14.9375 54.109375 19.578125 55.046875 
Q 24.21875 56 28.609375 56 
Q 40.484375 56 46.34375 49.84375 
Q 52.203125 43.703125 52.203125 31.203125 
z
" id="DejaVuSans-97"/>
      </defs>
      <use xlink:href="#DejaVuSans-83"/>
      <use x="63.476562" xlink:href="#DejaVuSans-111"/>
      <use x="124.658203" xlink:href="#DejaVuSans-109"/>
      <use x="222.070312" xlink:href="#DejaVuSans-97"/>
     </g>
    </g>
   </g>
  </g>
 </g>
 <defs>
  <clipPath id="p15efab2131">
   <rect height="217.44" width="167.4" x="7.2" y="7.2"/>
  </clipPath>
 </defs>
</svg>
