<?xml version="1.0" encoding="utf-8" standalone="no"?>
<!DOCTYPE svg PUBLIC "-//W3C//DTD SVG 1.1//EN"
  "http://www.w3.org/Graphics/SVG/1.1/DTD/svg11.dtd">
<!-- Created with matplotlib (https://matplotlib.org/) -->
<svg height="504pt" version="1.1" viewBox="0 0 360 504" width="360pt" xmlns="http://www.w3.org/2000/svg" xmlns:xlink="http://www.w3.org/1999/xlink">
 <metadata>
  <rdf:RDF xmlns:cc="http://creativecommons.org/ns#" xmlns:dc="http://purl.org/dc/elements/1.1/" xmlns:rdf="http://www.w3.org/1999/02/22-rdf-syntax-ns#">
   <cc:Work>
    <dc:type rdf:resource="http://purl.org/dc/dcmitype/StillImage"/>
    <dc:date>2021-02-19T01:49:57.652195</dc:date>
    <dc:format>image/svg+xml</dc:format>
    <dc:creator>
     <cc:Agent>
      <dc:title>Matplotlib v3.3.4, https://matplotlib.org/</dc:title>
     </cc:Agent>
    </dc:creator>
   </cc:Work>
  </rdf:RDF>
 </metadata>
 <defs>
  <style type="text/css">*{stroke-linecap:butt;stroke-linejoin:round;}</style>
 </defs>
 <g id="figure_1">
  <g id="patch_1">
   <path d="M 0 504 
L 360 504 
L 360 0 
L 0 0 
z
" style="fill:none;"/>
  </g>
  <g id="axes_1">
   <g id="patch_2">
    <path d="M 45 441 
L 324 441 
L 324 60.48 
L 45 60.48 
z
" style="fill:#ffffff;"/>
   </g>
   <g id="matplotlib.axis_1">
    <g id="xtick_1">
     <g id="line2d_1">
      <defs>
       <path d="M 0 0 
L 0 3.5 
" id="m4f3044c6c4" style="stroke:#000000;stroke-width:0.8;"/>
      </defs>
      <g>
       <use style="stroke:#000000;stroke-width:0.8;" x="57.681818" xlink:href="#m4f3044c6c4" y="441"/>
      </g>
     </g>
     <g id="text_1">
      <!-- 0 -->
      <g transform="translate(54.500568 455.598437)scale(0.1 -0.1)">
       <defs>
        <path d="M 31.78125 66.40625 
Q 24.171875 66.40625 20.328125 58.90625 
Q 16.5 51.421875 16.5 36.375 
Q 16.5 21.390625 20.328125 13.890625 
Q 24.171875 6.390625 31.78125 6.390625 
Q 39.453125 6.390625 43.28125 13.890625 
Q 47.125 21.390625 47.125 36.375 
Q 47.125 51.421875 43.28125 58.90625 
Q 39.453125 66.40625 31.78125 66.40625 
z
M 31.78125 74.21875 
Q 44.046875 74.21875 50.515625 64.515625 
Q 56.984375 54.828125 56.984375 36.375 
Q 56.984375 17.96875 50.515625 8.265625 
Q 44.046875 -1.421875 31.78125 -1.421875 
Q 19.53125 -1.421875 13.0625 8.265625 
Q 6.59375 17.96875 6.59375 36.375 
Q 6.59375 54.828125 13.0625 64.515625 
Q 19.53125 74.21875 31.78125 74.21875 
z
" id="DejaVuSans-48"/>
       </defs>
       <use xlink:href="#DejaVuSans-48"/>
      </g>
     </g>
    </g>
    <g id="xtick_2">
     <g id="line2d_2">
      <g>
       <use style="stroke:#000000;stroke-width:0.8;" x="100.03926" xlink:href="#m4f3044c6c4" y="441"/>
      </g>
     </g>
     <g id="text_2">
      <!-- 5 -->
      <g transform="translate(96.85801 455.598437)scale(0.1 -0.1)">
       <defs>
        <path d="M 10.796875 72.90625 
L 49.515625 72.90625 
L 49.515625 64.59375 
L 19.828125 64.59375 
L 19.828125 46.734375 
Q 21.96875 47.46875 24.109375 47.828125 
Q 26.265625 48.1875 28.421875 48.1875 
Q 40.625 48.1875 47.75 41.5 
Q 54.890625 34.8125 54.890625 23.390625 
Q 54.890625 11.625 47.5625 5.09375 
Q 40.234375 -1.421875 26.90625 -1.421875 
Q 22.3125 -1.421875 17.546875 -0.640625 
Q 12.796875 0.140625 7.71875 1.703125 
L 7.71875 11.625 
Q 12.109375 9.234375 16.796875 8.0625 
Q 21.484375 6.890625 26.703125 6.890625 
Q 35.15625 6.890625 40.078125 11.328125 
Q 45.015625 15.765625 45.015625 23.390625 
Q 45.015625 31 40.078125 35.4375 
Q 35.15625 39.890625 26.703125 39.890625 
Q 22.75 39.890625 18.8125 39.015625 
Q 14.890625 38.140625 10.796875 36.28125 
z
" id="DejaVuSans-53"/>
       </defs>
       <use xlink:href="#DejaVuSans-53"/>
      </g>
     </g>
    </g>
    <g id="xtick_3">
     <g id="line2d_3">
      <g>
       <use style="stroke:#000000;stroke-width:0.8;" x="142.396702" xlink:href="#m4f3044c6c4" y="441"/>
      </g>
     </g>
     <g id="text_3">
      <!-- 10 -->
      <g transform="translate(136.034202 455.598437)scale(0.1 -0.1)">
       <defs>
        <path d="M 12.40625 8.296875 
L 28.515625 8.296875 
L 28.515625 63.921875 
L 10.984375 60.40625 
L 10.984375 69.390625 
L 28.421875 72.90625 
L 38.28125 72.90625 
L 38.28125 8.296875 
L 54.390625 8.296875 
L 54.390625 0 
L 12.40625 0 
z
" id="DejaVuSans-49"/>
       </defs>
       <use xlink:href="#DejaVuSans-49"/>
       <use x="63.623047" xlink:href="#DejaVuSans-48"/>
      </g>
     </g>
    </g>
    <g id="xtick_4">
     <g id="line2d_4">
      <g>
       <use style="stroke:#000000;stroke-width:0.8;" x="184.754145" xlink:href="#m4f3044c6c4" y="441"/>
      </g>
     </g>
     <g id="text_4">
      <!-- 15 -->
      <g transform="translate(178.391645 455.598437)scale(0.1 -0.1)">
       <use xlink:href="#DejaVuSans-49"/>
       <use x="63.623047" xlink:href="#DejaVuSans-53"/>
      </g>
     </g>
    </g>
    <g id="xtick_5">
     <g id="line2d_5">
      <g>
       <use style="stroke:#000000;stroke-width:0.8;" x="227.111587" xlink:href="#m4f3044c6c4" y="441"/>
      </g>
     </g>
     <g id="text_5">
      <!-- 20 -->
      <g transform="translate(220.749087 455.598437)scale(0.1 -0.1)">
       <defs>
        <path d="M 19.1875 8.296875 
L 53.609375 8.296875 
L 53.609375 0 
L 7.328125 0 
L 7.328125 8.296875 
Q 12.9375 14.109375 22.625 23.890625 
Q 32.328125 33.6875 34.8125 36.53125 
Q 39.546875 41.84375 41.421875 45.53125 
Q 43.3125 49.21875 43.3125 52.78125 
Q 43.3125 58.59375 39.234375 62.25 
Q 35.15625 65.921875 28.609375 65.921875 
Q 23.96875 65.921875 18.8125 64.3125 
Q 13.671875 62.703125 7.8125 59.421875 
L 7.8125 69.390625 
Q 13.765625 71.78125 18.9375 73 
Q 24.125 74.21875 28.421875 74.21875 
Q 39.75 74.21875 46.484375 68.546875 
Q 53.21875 62.890625 53.21875 53.421875 
Q 53.21875 48.921875 51.53125 44.890625 
Q 49.859375 40.875 45.40625 35.40625 
Q 44.1875 33.984375 37.640625 27.21875 
Q 31.109375 20.453125 19.1875 8.296875 
z
" id="DejaVuSans-50"/>
       </defs>
       <use xlink:href="#DejaVuSans-50"/>
       <use x="63.623047" xlink:href="#DejaVuSans-48"/>
      </g>
     </g>
    </g>
    <g id="xtick_6">
     <g id="line2d_6">
      <g>
       <use style="stroke:#000000;stroke-width:0.8;" x="269.469029" xlink:href="#m4f3044c6c4" y="441"/>
      </g>
     </g>
     <g id="text_6">
      <!-- 25 -->
      <g transform="translate(263.106529 455.598437)scale(0.1 -0.1)">
       <use xlink:href="#DejaVuSans-50"/>
       <use x="63.623047" xlink:href="#DejaVuSans-53"/>
      </g>
     </g>
    </g>
    <g id="xtick_7">
     <g id="line2d_7">
      <g>
       <use style="stroke:#000000;stroke-width:0.8;" x="311.826471" xlink:href="#m4f3044c6c4" y="441"/>
      </g>
     </g>
     <g id="text_7">
      <!-- 30 -->
      <g transform="translate(305.463971 455.598437)scale(0.1 -0.1)">
       <defs>
        <path d="M 40.578125 39.3125 
Q 47.65625 37.796875 51.625 33 
Q 55.609375 28.21875 55.609375 21.1875 
Q 55.609375 10.40625 48.1875 4.484375 
Q 40.765625 -1.421875 27.09375 -1.421875 
Q 22.515625 -1.421875 17.65625 -0.515625 
Q 12.796875 0.390625 7.625 2.203125 
L 7.625 11.71875 
Q 11.71875 9.328125 16.59375 8.109375 
Q 21.484375 6.890625 26.8125 6.890625 
Q 36.078125 6.890625 40.9375 10.546875 
Q 45.796875 14.203125 45.796875 21.1875 
Q 45.796875 27.640625 41.28125 31.265625 
Q 36.765625 34.90625 28.71875 34.90625 
L 20.21875 34.90625 
L 20.21875 43.015625 
L 29.109375 43.015625 
Q 36.375 43.015625 40.234375 45.921875 
Q 44.09375 48.828125 44.09375 54.296875 
Q 44.09375 59.90625 40.109375 62.90625 
Q 36.140625 65.921875 28.71875 65.921875 
Q 24.65625 65.921875 20.015625 65.03125 
Q 15.375 64.15625 9.8125 62.3125 
L 9.8125 71.09375 
Q 15.4375 72.65625 20.34375 73.4375 
Q 25.25 74.21875 29.59375 74.21875 
Q 40.828125 74.21875 47.359375 69.109375 
Q 53.90625 64.015625 53.90625 55.328125 
Q 53.90625 49.265625 50.4375 45.09375 
Q 46.96875 40.921875 40.578125 39.3125 
z
" id="DejaVuSans-51"/>
       </defs>
       <use xlink:href="#DejaVuSans-51"/>
       <use x="63.623047" xlink:href="#DejaVuSans-48"/>
      </g>
     </g>
    </g>
   </g>
   <g id="matplotlib.axis_2"/>
   <g id="line2d_8">
    <path clip-path="url(#p0f43c4a23a)" d="M 57.681818 422.829815 
L 58.666455 422.727727 
L 59.767748 422.391311 
L 60.953757 421.79764 
L 62.309195 420.860574 
L 63.834063 419.516055 
L 65.52836 417.703497 
L 67.339315 415.435093 
L 69.372472 412.522349 
L 71.659774 408.837239 
L 74.37065 404.019306 
L 83.858717 386.713385 
L 85.891875 383.730427 
L 87.670887 381.501892 
L 89.365185 379.732769 
L 90.974768 378.372396 
L 92.499636 377.360407 
L 94.109218 376.563388 
L 95.718801 376.016658 
L 97.413099 375.6756 
L 99.276826 375.531493 
L 101.394698 375.59842 
L 103.936145 375.911201 
L 107.32474 376.56769 
L 114.186646 378.184833 
L 122.912279 380.151039 
L 132.823921 382.128339 
L 167.218164 388.602255 
L 188.31217 392.419961 
L 205.255147 395.260273 
L 221.689834 397.789638 
L 238.378666 400.131643 
L 255.660503 402.330432 
L 273.704773 404.400737 
L 292.765622 406.361503 
L 311.318182 408.069554 
L 311.318182 408.069554 
" style="fill:none;stroke:#000000;stroke-linecap:square;stroke-width:1.5;"/>
   </g>
   <g id="line2d_9">
    <path clip-path="url(#p0f43c4a23a)" d="M 57.681818 423.703636 
L 58.75117 423.601837 
L 59.937178 423.272296 
L 61.292616 422.657574 
L 62.817484 421.714567 
L 64.596497 420.347592 
L 66.831026 418.330667 
L 69.796047 415.32714 
L 82.587994 401.993637 
L 85.97659 398.970357 
L 89.11104 396.462802 
L 92.160776 394.298846 
L 95.210512 392.404916 
L 98.260248 390.771859 
L 101.309984 389.385832 
L 104.444434 388.201116 
L 107.748315 387.193808 
L 111.13691 386.393379 
L 114.694935 385.778771 
L 118.507105 385.34526 
L 122.658134 385.100711 
L 127.148023 385.060431 
L 132.146201 385.239239 
L 137.906814 385.674752 
L 144.684004 386.420427 
L 153.070778 387.579696 
L 164.676717 389.427872 
L 215.929222 397.840176 
L 233.126344 400.308921 
L 250.492895 402.576991 
L 268.45245 404.697377 
L 287.259155 406.692484 
L 307.082438 408.570138 
L 311.318182 408.943716 
L 311.318182 408.943716 
" style="fill:none;stroke:#ff0000;stroke-linecap:square;stroke-width:1.5;"/>
   </g>
   <g id="line2d_10">
    <path clip-path="url(#p0f43c4a23a)" d="M 57.681818 423.703636 
L 59.005314 423.600666 
L 60.530182 423.255108 
L 62.22448 422.637596 
L 64.172922 421.689027 
L 66.576881 420.261754 
L 69.796047 418.069677 
L 84.451722 407.74652 
L 88.263891 405.507675 
L 91.906631 403.6194 
L 95.549371 401.978341 
L 99.276826 400.546209 
L 103.088996 399.323712 
L 107.070596 398.285827 
L 111.221625 397.43616 
L 115.626799 396.761447 
L 120.455547 396.251246 
L 125.70787 395.922785 
L 131.637912 395.779908 
L 138.415103 395.844631 
L 146.463017 396.150537 
L 156.544088 396.765679 
L 170.606759 397.863116 
L 202.035981 400.60948 
L 233.888778 403.278834 
L 262.098834 405.415653 
L 290.98661 407.378615 
L 311.318182 408.633388 
L 311.318182 408.633388 
" style="fill:none;stroke:#000000;stroke-linecap:square;stroke-opacity:0.2;stroke-width:1.5;"/>
   </g>
   <g id="line2d_11">
    <path clip-path="url(#p0f43c4a23a)" d="M 57.681818 347.242378 
L 58.58174 347.137027 
L 59.598319 346.783277 
L 60.699612 346.148698 
L 61.88562 345.20252 
L 63.241059 343.818295 
L 64.681212 342.020288 
L 66.238021 339.716283 
L 67.932319 336.791047 
L 69.711332 333.247533 
L 71.575059 329.012168 
L 73.608216 323.800619 
L 75.980233 317.05051 
L 80.131263 304.371485 
L 82.926854 296.202574 
L 84.875296 291.159224 
L 86.484879 287.562066 
L 87.925032 284.845102 
L 89.28047 282.745675 
L 90.551193 281.183722 
L 91.737202 280.071595 
L 92.838495 279.323125 
L 93.939789 278.829822 
L 95.041082 278.57007 
L 96.227091 278.524005 
L 97.497814 278.708473 
L 98.937967 279.161379 
L 100.54755 279.908626 
L 102.580707 281.109483 
L 105.630443 283.201857 
L 112.068774 287.662418 
L 115.372654 289.651256 
L 118.676535 291.378414 
L 122.149845 292.937078 
L 125.962015 294.401568 
L 130.536619 295.911076 
L 136.381946 297.590069 
L 144.853434 299.770836 
L 160.186828 303.455128 
L 179.586537 307.90377 
L 195.59765 311.351082 
L 210.592184 314.351601 
L 225.417289 317.091334 
L 240.581253 319.666367 
L 256.253507 322.100463 
L 272.60348 324.412546 
L 289.715886 326.605557 
L 307.675442 328.681092 
L 311.318182 329.075902 
L 311.318182 329.075902 
" style="fill:none;stroke:#000000;stroke-linecap:square;stroke-width:1.5;"/>
   </g>
   <g id="line2d_12">
    <path clip-path="url(#p0f43c4a23a)" d="M 57.681818 348.116199 
L 58.666455 348.009603 
L 59.767748 347.658925 
L 60.953757 347.044344 
L 62.309195 346.087349 
L 63.918778 344.662732 
L 65.86722 342.615584 
L 68.355894 339.644154 
L 72.083349 334.793884 
L 79.453543 325.159397 
L 83.011569 320.91028 
L 86.146019 317.499485 
L 89.11104 314.589019 
L 91.991346 312.064863 
L 94.871652 309.837576 
L 97.667244 307.951194 
L 100.54755 306.277951 
L 103.427856 304.862355 
L 106.392877 303.654579 
L 109.442612 302.654157 
L 112.577063 301.857351 
L 115.880944 301.244593 
L 119.438969 300.814544 
L 123.251139 300.583045 
L 127.402168 300.560035 
L 131.976772 300.76385 
L 137.059665 301.216595 
L 142.989707 301.975995 
L 150.021042 303.108378 
L 159.085535 304.805401 
L 173.317635 307.725362 
L 201.951266 313.614865 
L 218.131809 316.688808 
L 233.719348 319.422559 
L 249.391601 321.945184 
L 265.572144 324.323411 
L 282.430406 326.574498 
L 300.051102 328.701322 
L 311.318182 329.950143 
L 311.318182 329.950143 
" style="fill:none;stroke:#ff0000;stroke-linecap:square;stroke-width:1.5;"/>
   </g>
   <g id="line2d_13">
    <path clip-path="url(#p0f43c4a23a)" d="M 57.681818 348.116199 
L 58.835885 348.019176 
L 60.191323 347.681824 
L 61.716191 347.060128 
L 63.410488 346.125749 
L 65.443646 344.744094 
L 68.017034 342.7095 
L 71.744489 339.444983 
L 80.978411 331.254895 
L 84.875296 328.154692 
L 88.433321 325.606298 
L 91.821917 323.447711 
L 95.210512 321.552633 
L 98.599107 319.913132 
L 102.072418 318.483274 
L 105.630443 317.262024 
L 109.357898 316.22268 
L 113.254782 315.370458 
L 117.405812 314.693471 
L 121.8957 314.191269 
L 126.809164 313.87123 
L 132.230916 313.744723 
L 138.415103 313.828193 
L 145.615868 314.153686 
L 154.426216 314.783221 
L 166.032155 315.848809 
L 184.923574 317.837455 
L 227.281017 322.322381 
L 252.864912 324.777261 
L 278.533522 327.015501 
L 305.21871 329.117754 
L 311.318182 329.568201 
L 311.318182 329.568201 
" style="fill:none;stroke:#000000;stroke-linecap:square;stroke-opacity:0.2;stroke-width:1.5;"/>
   </g>
   <g id="line2d_14">
    <path clip-path="url(#p0f43c4a23a)" d="M 57.681818 271.654941 
L 58.497025 271.562763 
L 59.428889 271.246831 
L 60.445467 270.67087 
L 61.631476 269.722979 
L 62.902199 268.406157 
L 64.257637 266.681656 
L 65.782505 264.362447 
L 67.339315 261.581477 
L 68.948898 258.253468 
L 70.643195 254.229925 
L 72.422208 249.413481 
L 74.37065 243.462302 
L 76.657952 235.71342 
L 84.282292 209.181102 
L 85.97659 204.464012 
L 87.416743 201.07382 
L 88.772181 198.448205 
L 89.958189 196.611804 
L 91.059483 195.287728 
L 92.076061 194.380114 
L 93.09264 193.758766 
L 94.109218 193.404188 
L 95.125797 193.293839 
L 96.142376 193.403102 
L 97.243669 193.739368 
L 98.514392 194.366611 
L 100.03926 195.39033 
L 101.902988 196.931649 
L 104.613864 199.495392 
L 110.882766 205.501917 
L 113.145861 207.421018 
L 115.009588 197.994901 
L 117.212175 185.630922 
L 120.854915 163.662466 
L 121.617349 159.036596 
L 122.803357 167.651855 
L 123.989366 174.677529 
L 125.175374 180.423702 
L 126.361382 185.144304 
L 127.632106 189.295966 
L 128.902829 192.705082 
L 130.258267 195.69882 
L 131.613705 198.172822 
L 133.053858 200.358076 
L 134.578726 202.286089 
L 136.273024 204.072576 
L 138.136751 205.71253 
L 140.254624 207.272495 
L 142.711355 208.793458 
L 145.591661 210.305474 
L 149.149686 211.909159 
L 153.639575 213.677224 
L 159.654332 215.792565 
L 167.910103 218.445935 
L 178.753609 221.688272 
L 191.037267 225.128587 
L 203.7445 228.45758 
L 216.705877 231.62214 
L 229.921399 234.618259 
L 243.47578 237.462484 
L 257.538451 240.18462 
L 272.109411 242.777559 
L 287.273375 245.249721 
L 303.199774 247.618737 
L 310.824113 248.676405 
L 310.824113 248.676405 
" style="fill:none;stroke:#000000;stroke-linecap:square;stroke-width:1.5;"/>
   </g>
   <g id="line2d_15">
    <path clip-path="url(#p0f43c4a23a)" d="M 57.681818 272.528762 
L 58.58174 272.433825 
L 59.598319 272.115773 
L 60.784327 271.497705 
L 62.139765 270.514271 
L 63.664633 269.117609 
L 65.52836 267.084905 
L 67.847604 264.197989 
L 71.151485 259.687712 
L 80.215977 247.137401 
L 83.604573 242.909987 
L 86.739024 239.353373 
L 89.704044 236.327954 
L 92.499636 233.783872 
L 95.295227 231.535812 
L 98.090818 229.574109 
L 100.886409 227.884835 
L 103.682 226.45133 
L 106.562306 225.222624 
L 109.527327 224.1993 
L 112.577063 223.378735 
L 113.230575 223.11786 
L 116.95803 217.518966 
L 120.854915 212.065502 
L 121.702064 211.042948 
L 125.598949 211.180081 
L 129.919408 211.560617 
L 134.748156 212.216893 
L 140.254624 213.197113 
L 146.77767 214.592598 
L 154.995013 216.589263 
L 167.232384 219.816463 
L 197.475598 227.857973 
L 211.877128 231.412296 
L 225.685655 234.591124 
L 239.494181 237.541532 
L 253.641566 240.335169 
L 268.212526 242.983761 
L 283.291776 245.497636 
L 299.048744 247.897269 
L 310.824113 249.550705 
L 310.824113 249.550705 
" style="fill:none;stroke:#ff0000;stroke-linecap:square;stroke-width:1.5;"/>
   </g>
   <g id="line2d_16">
    <path clip-path="url(#p0f43c4a23a)" d="M 57.681818 272.528762 
L 58.835885 272.425675 
L 60.106608 272.096402 
L 61.546761 271.491956 
L 63.241059 270.523719 
L 65.189501 269.143008 
L 67.59346 267.15761 
L 70.982055 264.043687 
L 81.910275 253.797177 
L 85.63773 250.714249 
L 89.11104 248.130789 
L 92.414921 245.946049 
L 95.718801 244.02667 
L 99.022682 242.363662 
L 102.411277 240.909275 
L 105.884587 239.662921 
L 109.527327 238.597458 
L 113.145861 237.758541 
L 113.230575 79.007697 
L 117.212175 78.311935 
L 121.532634 77.78458 
L 121.617349 77.776364 
L 121.617349 236.509982 
L 121.702064 236.501842 
L 126.446097 236.16092 
L 131.69842 236.012593 
L 137.628462 236.074401 
L 144.490368 236.375542 
L 152.792426 236.972759 
L 163.420215 237.972779 
L 179.431328 239.727193 
L 232.71699 245.697027 
L 257.369021 248.165503 
L 282.444627 250.451376 
L 308.536811 252.604692 
L 310.824113 252.783172 
L 310.824113 252.783172 
" style="fill:none;stroke:#000000;stroke-linecap:square;stroke-opacity:0.2;stroke-width:1.5;"/>
   </g>
   <g id="patch_3">
    <path d="M 57.681818 441 
L 311.826471 441 
" style="fill:none;stroke:#000000;stroke-linecap:square;stroke-linejoin:miter;stroke-width:0.8;"/>
   </g>
   <g id="legend_1">
    <g id="patch_4">
     <path d="M 181.15625 112.514375 
L 317 112.514375 
Q 319 112.514375 319 110.514375 
L 319 67.48 
Q 319 65.48 317 65.48 
L 181.15625 65.48 
Q 179.15625 65.48 179.15625 67.48 
L 179.15625 110.514375 
Q 179.15625 112.514375 181.15625 112.514375 
z
" style="fill:#ffffff;opacity:0.8;stroke:#cccccc;stroke-linejoin:miter;"/>
    </g>
    <g id="line2d_17">
     <path d="M 183.15625 73.578438 
L 203.15625 73.578438 
" style="fill:none;stroke:#000000;stroke-linecap:square;stroke-width:1.5;"/>
    </g>
    <g id="line2d_18"/>
    <g id="text_8">
     <!-- Dendrite -->
     <g transform="translate(211.15625 77.078438)scale(0.1 -0.1)">
      <defs>
       <path d="M 19.671875 64.796875 
L 19.671875 8.109375 
L 31.59375 8.109375 
Q 46.6875 8.109375 53.6875 14.9375 
Q 60.6875 21.78125 60.6875 36.53125 
Q 60.6875 51.171875 53.6875 57.984375 
Q 46.6875 64.796875 31.59375 64.796875 
z
M 9.8125 72.90625 
L 30.078125 72.90625 
Q 51.265625 72.90625 61.171875 64.09375 
Q 71.09375 55.28125 71.09375 36.53125 
Q 71.09375 17.671875 61.125 8.828125 
Q 51.171875 0 30.078125 0 
L 9.8125 0 
z
" id="DejaVuSans-68"/>
       <path d="M 56.203125 29.59375 
L 56.203125 25.203125 
L 14.890625 25.203125 
Q 15.484375 15.921875 20.484375 11.0625 
Q 25.484375 6.203125 34.421875 6.203125 
Q 39.59375 6.203125 44.453125 7.46875 
Q 49.3125 8.734375 54.109375 11.28125 
L 54.109375 2.78125 
Q 49.265625 0.734375 44.1875 -0.34375 
Q 39.109375 -1.421875 33.890625 -1.421875 
Q 20.796875 -1.421875 13.15625 6.1875 
Q 5.515625 13.8125 5.515625 26.8125 
Q 5.515625 40.234375 12.765625 48.109375 
Q 20.015625 56 32.328125 56 
Q 43.359375 56 49.78125 48.890625 
Q 56.203125 41.796875 56.203125 29.59375 
z
M 47.21875 32.234375 
Q 47.125 39.59375 43.09375 43.984375 
Q 39.0625 48.390625 32.421875 48.390625 
Q 24.90625 48.390625 20.390625 44.140625 
Q 15.875 39.890625 15.1875 32.171875 
z
" id="DejaVuSans-101"/>
       <path d="M 54.890625 33.015625 
L 54.890625 0 
L 45.90625 0 
L 45.90625 32.71875 
Q 45.90625 40.484375 42.875 44.328125 
Q 39.84375 48.1875 33.796875 48.1875 
Q 26.515625 48.1875 22.3125 43.546875 
Q 18.109375 38.921875 18.109375 30.90625 
L 18.109375 0 
L 9.078125 0 
L 9.078125 54.6875 
L 18.109375 54.6875 
L 18.109375 46.1875 
Q 21.34375 51.125 25.703125 53.5625 
Q 30.078125 56 35.796875 56 
Q 45.21875 56 50.046875 50.171875 
Q 54.890625 44.34375 54.890625 33.015625 
z
" id="DejaVuSans-110"/>
       <path d="M 45.40625 46.390625 
L 45.40625 75.984375 
L 54.390625 75.984375 
L 54.390625 0 
L 45.40625 0 
L 45.40625 8.203125 
Q 42.578125 3.328125 38.25 0.953125 
Q 33.9375 -1.421875 27.875 -1.421875 
Q 17.96875 -1.421875 11.734375 6.484375 
Q 5.515625 14.40625 5.515625 27.296875 
Q 5.515625 40.1875 11.734375 48.09375 
Q 17.96875 56 27.875 56 
Q 33.9375 56 38.25 53.625 
Q 42.578125 51.265625 45.40625 46.390625 
z
M 14.796875 27.296875 
Q 14.796875 17.390625 18.875 11.75 
Q 22.953125 6.109375 30.078125 6.109375 
Q 37.203125 6.109375 41.296875 11.75 
Q 45.40625 17.390625 45.40625 27.296875 
Q 45.40625 37.203125 41.296875 42.84375 
Q 37.203125 48.484375 30.078125 48.484375 
Q 22.953125 48.484375 18.875 42.84375 
Q 14.796875 37.203125 14.796875 27.296875 
z
" id="DejaVuSans-100"/>
       <path d="M 41.109375 46.296875 
Q 39.59375 47.171875 37.8125 47.578125 
Q 36.03125 48 33.890625 48 
Q 26.265625 48 22.1875 43.046875 
Q 18.109375 38.09375 18.109375 28.8125 
L 18.109375 0 
L 9.078125 0 
L 9.078125 54.6875 
L 18.109375 54.6875 
L 18.109375 46.1875 
Q 20.953125 51.171875 25.484375 53.578125 
Q 30.03125 56 36.53125 56 
Q 37.453125 56 38.578125 55.875 
Q 39.703125 55.765625 41.0625 55.515625 
z
" id="DejaVuSans-114"/>
       <path d="M 9.421875 54.6875 
L 18.40625 54.6875 
L 18.40625 0 
L 9.421875 0 
z
M 9.421875 75.984375 
L 18.40625 75.984375 
L 18.40625 64.59375 
L 9.421875 64.59375 
z
" id="DejaVuSans-105"/>
       <path d="M 18.3125 70.21875 
L 18.3125 54.6875 
L 36.8125 54.6875 
L 36.8125 47.703125 
L 18.3125 47.703125 
L 18.3125 18.015625 
Q 18.3125 11.328125 20.140625 9.421875 
Q 21.96875 7.515625 27.59375 7.515625 
L 36.8125 7.515625 
L 36.8125 0 
L 27.59375 0 
Q 17.1875 0 13.234375 3.875 
Q 9.28125 7.765625 9.28125 18.015625 
L 9.28125 47.703125 
L 2.6875 47.703125 
L 2.6875 54.6875 
L 9.28125 54.6875 
L 9.28125 70.21875 
z
" id="DejaVuSans-116"/>
      </defs>
      <use xlink:href="#DejaVuSans-68"/>
      <use x="77.001953" xlink:href="#DejaVuSans-101"/>
      <use x="138.525391" xlink:href="#DejaVuSans-110"/>
      <use x="201.904297" xlink:href="#DejaVuSans-100"/>
      <use x="265.380859" xlink:href="#DejaVuSans-114"/>
      <use x="306.494141" xlink:href="#DejaVuSans-105"/>
      <use x="334.277344" xlink:href="#DejaVuSans-116"/>
      <use x="373.486328" xlink:href="#DejaVuSans-101"/>
     </g>
    </g>
    <g id="line2d_19">
     <path d="M 183.15625 88.256563 
L 203.15625 88.256563 
" style="fill:none;stroke:#ff0000;stroke-linecap:square;stroke-width:1.5;"/>
    </g>
    <g id="line2d_20"/>
    <g id="text_9">
     <!-- Dendrite Linear Only -->
     <g transform="translate(211.15625 91.756563)scale(0.1 -0.1)">
      <defs>
       <path id="DejaVuSans-32"/>
       <path d="M 9.8125 72.90625 
L 19.671875 72.90625 
L 19.671875 8.296875 
L 55.171875 8.296875 
L 55.171875 0 
L 9.8125 0 
z
" id="DejaVuSans-76"/>
       <path d="M 34.28125 27.484375 
Q 23.390625 27.484375 19.1875 25 
Q 14.984375 22.515625 14.984375 16.5 
Q 14.984375 11.71875 18.140625 8.90625 
Q 21.296875 6.109375 26.703125 6.109375 
Q 34.1875 6.109375 38.703125 11.40625 
Q 43.21875 16.703125 43.21875 25.484375 
L 43.21875 27.484375 
z
M 52.203125 31.203125 
L 52.203125 0 
L 43.21875 0 
L 43.21875 8.296875 
Q 40.140625 3.328125 35.546875 0.953125 
Q 30.953125 -1.421875 24.3125 -1.421875 
Q 15.921875 -1.421875 10.953125 3.296875 
Q 6 8.015625 6 15.921875 
Q 6 25.140625 12.171875 29.828125 
Q 18.359375 34.515625 30.609375 34.515625 
L 43.21875 34.515625 
L 43.21875 35.40625 
Q 43.21875 41.609375 39.140625 45 
Q 35.0625 48.390625 27.6875 48.390625 
Q 23 48.390625 18.546875 47.265625 
Q 14.109375 46.140625 10.015625 43.890625 
L 10.015625 52.203125 
Q 14.9375 54.109375 19.578125 55.046875 
Q 24.21875 56 28.609375 56 
Q 40.484375 56 46.34375 49.84375 
Q 52.203125 43.703125 52.203125 31.203125 
z
" id="DejaVuSans-97"/>
       <path d="M 39.40625 66.21875 
Q 28.65625 66.21875 22.328125 58.203125 
Q 16.015625 50.203125 16.015625 36.375 
Q 16.015625 22.609375 22.328125 14.59375 
Q 28.65625 6.59375 39.40625 6.59375 
Q 50.140625 6.59375 56.421875 14.59375 
Q 62.703125 22.609375 62.703125 36.375 
Q 62.703125 50.203125 56.421875 58.203125 
Q 50.140625 66.21875 39.40625 66.21875 
z
M 39.40625 74.21875 
Q 54.734375 74.21875 63.90625 63.9375 
Q 73.09375 53.65625 73.09375 36.375 
Q 73.09375 19.140625 63.90625 8.859375 
Q 54.734375 -1.421875 39.40625 -1.421875 
Q 24.03125 -1.421875 14.8125 8.828125 
Q 5.609375 19.09375 5.609375 36.375 
Q 5.609375 53.65625 14.8125 63.9375 
Q 24.03125 74.21875 39.40625 74.21875 
z
" id="DejaVuSans-79"/>
       <path d="M 9.421875 75.984375 
L 18.40625 75.984375 
L 18.40625 0 
L 9.421875 0 
z
" id="DejaVuSans-108"/>
       <path d="M 32.171875 -5.078125 
Q 28.375 -14.84375 24.75 -17.8125 
Q 21.140625 -20.796875 15.09375 -20.796875 
L 7.90625 -20.796875 
L 7.90625 -13.28125 
L 13.1875 -13.28125 
Q 16.890625 -13.28125 18.9375 -11.515625 
Q 21 -9.765625 23.484375 -3.21875 
L 25.09375 0.875 
L 2.984375 54.6875 
L 12.5 54.6875 
L 29.59375 11.921875 
L 46.6875 54.6875 
L 56.203125 54.6875 
z
" id="DejaVuSans-121"/>
      </defs>
      <use xlink:href="#DejaVuSans-68"/>
      <use x="77.001953" xlink:href="#DejaVuSans-101"/>
      <use x="138.525391" xlink:href="#DejaVuSans-110"/>
      <use x="201.904297" xlink:href="#DejaVuSans-100"/>
      <use x="265.380859" xlink:href="#DejaVuSans-114"/>
      <use x="306.494141" xlink:href="#DejaVuSans-105"/>
      <use x="334.277344" xlink:href="#DejaVuSans-116"/>
      <use x="373.486328" xlink:href="#DejaVuSans-101"/>
      <use x="435.009766" xlink:href="#DejaVuSans-32"/>
      <use x="466.796875" xlink:href="#DejaVuSans-76"/>
      <use x="522.509766" xlink:href="#DejaVuSans-105"/>
      <use x="550.292969" xlink:href="#DejaVuSans-110"/>
      <use x="613.671875" xlink:href="#DejaVuSans-101"/>
      <use x="675.195312" xlink:href="#DejaVuSans-97"/>
      <use x="736.474609" xlink:href="#DejaVuSans-114"/>
      <use x="777.587891" xlink:href="#DejaVuSans-32"/>
      <use x="809.375" xlink:href="#DejaVuSans-79"/>
      <use x="888.085938" xlink:href="#DejaVuSans-110"/>
      <use x="951.464844" xlink:href="#DejaVuSans-108"/>
      <use x="979.248047" xlink:href="#DejaVuSans-121"/>
     </g>
    </g>
    <g id="line2d_21">
     <path d="M 183.15625 102.934687 
L 203.15625 102.934687 
" style="fill:none;stroke:#000000;stroke-linecap:square;stroke-opacity:0.2;stroke-width:1.5;"/>
    </g>
    <g id="line2d_22"/>
    <g id="text_10">
     <!-- Soma -->
     <g transform="translate(211.15625 106.434687)scale(0.1 -0.1)">
      <defs>
       <path d="M 53.515625 70.515625 
L 53.515625 60.890625 
Q 47.90625 63.578125 42.921875 64.890625 
Q 37.9375 66.21875 33.296875 66.21875 
Q 25.25 66.21875 20.875 63.09375 
Q 16.5 59.96875 16.5 54.203125 
Q 16.5 49.359375 19.40625 46.890625 
Q 22.3125 44.4375 30.421875 42.921875 
L 36.375 41.703125 
Q 47.40625 39.59375 52.65625 34.296875 
Q 57.90625 29 57.90625 20.125 
Q 57.90625 9.515625 50.796875 4.046875 
Q 43.703125 -1.421875 29.984375 -1.421875 
Q 24.8125 -1.421875 18.96875 -0.25 
Q 13.140625 0.921875 6.890625 3.21875 
L 6.890625 13.375 
Q 12.890625 10.015625 18.65625 8.296875 
Q 24.421875 6.59375 29.984375 6.59375 
Q 38.421875 6.59375 43.015625 9.90625 
Q 47.609375 13.234375 47.609375 19.390625 
Q 47.609375 24.75 44.3125 27.78125 
Q 41.015625 30.8125 33.5 32.328125 
L 27.484375 33.5 
Q 16.453125 35.6875 11.515625 40.375 
Q 6.59375 45.0625 6.59375 53.421875 
Q 6.59375 63.09375 13.40625 68.65625 
Q 20.21875 74.21875 32.171875 74.21875 
Q 37.3125 74.21875 42.625 73.28125 
Q 47.953125 72.359375 53.515625 70.515625 
z
" id="DejaVuSans-83"/>
       <path d="M 30.609375 48.390625 
Q 23.390625 48.390625 19.1875 42.75 
Q 14.984375 37.109375 14.984375 27.296875 
Q 14.984375 17.484375 19.15625 11.84375 
Q 23.34375 6.203125 30.609375 6.203125 
Q 37.796875 6.203125 41.984375 11.859375 
Q 46.1875 17.53125 46.1875 27.296875 
Q 46.1875 37.015625 41.984375 42.703125 
Q 37.796875 48.390625 30.609375 48.390625 
z
M 30.609375 56 
Q 42.328125 56 49.015625 48.375 
Q 55.71875 40.765625 55.71875 27.296875 
Q 55.71875 13.875 49.015625 6.21875 
Q 42.328125 -1.421875 30.609375 -1.421875 
Q 18.84375 -1.421875 12.171875 6.21875 
Q 5.515625 13.875 5.515625 27.296875 
Q 5.515625 40.765625 12.171875 48.375 
Q 18.84375 56 30.609375 56 
z
" id="DejaVuSans-111"/>
       <path d="M 52 44.1875 
Q 55.375 50.25 60.0625 53.125 
Q 64.75 56 71.09375 56 
Q 79.640625 56 84.28125 50.015625 
Q 88.921875 44.046875 88.921875 33.015625 
L 88.921875 0 
L 79.890625 0 
L 79.890625 32.71875 
Q 79.890625 40.578125 77.09375 44.375 
Q 74.3125 48.1875 68.609375 48.1875 
Q 61.625 48.1875 57.5625 43.546875 
Q 53.515625 38.921875 53.515625 30.90625 
L 53.515625 0 
L 44.484375 0 
L 44.484375 32.71875 
Q 44.484375 40.625 41.703125 44.40625 
Q 38.921875 48.1875 33.109375 48.1875 
Q 26.21875 48.1875 22.15625 43.53125 
Q 18.109375 38.875 18.109375 30.90625 
L 18.109375 0 
L 9.078125 0 
L 9.078125 54.6875 
L 18.109375 54.6875 
L 18.109375 46.1875 
Q 21.1875 51.21875 25.484375 53.609375 
Q 29.78125 56 35.6875 56 
Q 41.65625 56 45.828125 52.96875 
Q 50 49.953125 52 44.1875 
z
" id="DejaVuSans-109"/>
      </defs>
      <use xlink:href="#DejaVuSans-83"/>
      <use x="63.476562" xlink:href="#DejaVuSans-111"/>
      <use x="124.658203" xlink:href="#DejaVuSans-109"/>
      <use x="222.070312" xlink:href="#DejaVuSans-97"/>
     </g>
    </g>
   </g>
  </g>
 </g>
 <defs>
  <clipPath id="p0f43c4a23a">
   <rect height="380.52" width="279" x="45" y="60.48"/>
  </clipPath>
 </defs>
</svg>
