<?xml version="1.0" encoding="utf-8" standalone="no"?>
<!DOCTYPE svg PUBLIC "-//W3C//DTD SVG 1.1//EN"
  "http://www.w3.org/Graphics/SVG/1.1/DTD/svg11.dtd">
<!-- Created with matplotlib (https://matplotlib.org/) -->
<svg height="68.76pt" version="1.1" viewBox="0 0 181.8 68.76" width="181.8pt" xmlns="http://www.w3.org/2000/svg" xmlns:xlink="http://www.w3.org/1999/xlink">
 <metadata>
  <rdf:RDF xmlns:cc="http://creativecommons.org/ns#" xmlns:dc="http://purl.org/dc/elements/1.1/" xmlns:rdf="http://www.w3.org/1999/02/22-rdf-syntax-ns#">
   <cc:Work>
    <dc:type rdf:resource="http://purl.org/dc/dcmitype/StillImage"/>
    <dc:date>2021-03-17T10:59:37.560044</dc:date>
    <dc:format>image/svg+xml</dc:format>
    <dc:creator>
     <cc:Agent>
      <dc:title>Matplotlib v3.3.4, https://matplotlib.org/</dc:title>
     </cc:Agent>
    </dc:creator>
   </cc:Work>
  </rdf:RDF>
 </metadata>
 <defs>
  <style type="text/css">*{stroke-linecap:butt;stroke-linejoin:round;}</style>
 </defs>
 <g id="figure_1">
  <g id="patch_1">
   <path d="M 0 68.76 
L 181.8 68.76 
L 181.8 0 
L 0 0 
z
" style="fill:none;"/>
  </g>
  <g id="axes_1">
   <g id="patch_2">
    <path d="M 7.2 61.56 
L 174.6 61.56 
L 174.6 7.2 
L 7.2 7.2 
z
" style="fill:#ffffff;"/>
   </g>
   <g id="matplotlib.axis_1"/>
   <g id="matplotlib.axis_2"/>
   <g id="line2d_1">
    <path clip-path="url(#p7806a92934)" d="M 14.809091 59.089091 
L 15.908162 51.640877 
L 16.97557 45.870309 
L 17.992148 41.515689 
L 19.008727 38.109572 
L 19.993642 35.580685 
L 20.908563 33.812543 
L 21.772654 32.583222 
L 22.636746 31.722092 
L 23.500838 31.177311 
L 24.36493 30.90304 
L 25.229022 30.858809 
L 26.194771 31.037894 
L 27.262179 31.466237 
L 28.532902 32.224551 
L 30.108599 33.440323 
L 32.243414 35.397606 
L 36.360557 39.55583 
L 40.426872 43.525076 
L 43.425779 46.14467 
L 46.22137 48.296351 
L 48.966132 50.130225 
L 51.710895 51.700513 
L 54.557315 53.074189 
L 57.556222 54.272931 
L 60.758444 55.311016 
L 64.26564 56.209151 
L 68.128639 56.965777 
L 72.550756 57.600762 
L 77.786136 58.119184 
L 84.190581 58.519994 
L 92.577355 58.809546 
L 104.877956 58.992546 
L 128.106777 59.076731 
L 166.990909 59.088729 
L 166.990909 59.088729 
" style="fill:none;stroke:#000000;stroke-linecap:square;"/>
   </g>
   <g id="line2d_2">
    <path clip-path="url(#p7806a92934)" d="M 14.809091 59.089091 
L 15.908162 47.91677 
L 16.97557 39.260918 
L 17.992148 32.728989 
L 18.957898 27.844864 
L 19.891984 24.170459 
L 20.806905 21.431484 
L 21.670997 19.516959 
L 22.484259 18.229965 
L 23.246693 17.416728 
L 23.958298 16.957105 
L 24.669903 16.750096 
L 25.381508 16.763646 
L 26.194771 17.012295 
L 27.109692 17.543638 
L 28.1771 18.438865 
L 29.498652 19.865552 
L 31.176007 22.034142 
L 33.615795 25.595525 
L 40.630188 36.023734 
L 43.37495 39.609794 
L 45.916396 42.568911 
L 48.356185 45.074623 
L 50.795974 47.263162 
L 53.235762 49.155801 
L 55.72638 50.810336 
L 58.318655 52.267309 
L 61.063418 53.552965 
L 63.960667 54.665071 
L 67.11206 55.636265 
L 70.619257 56.479754 
L 74.583913 57.196921 
L 79.158517 57.790256 
L 84.597213 58.264111 
L 91.459118 58.627746 
L 100.709984 58.880976 
L 115.1454 59.030333 
L 147.269284 59.0858 
L 166.990909 59.088548 
L 166.990909 59.088548 
" style="fill:none;stroke:#000000;stroke-linecap:square;"/>
   </g>
   <g id="line2d_3">
    <path clip-path="url(#p7806a92934)" d="M 14.809091 59.089091 
L 15.908162 46.054717 
L 16.97557 35.956223 
L 17.992148 28.335638 
L 18.957898 22.637493 
L 19.891984 18.350687 
L 20.806905 15.155216 
L 21.670997 12.921603 
L 22.484259 11.420111 
L 23.246693 10.471334 
L 23.958298 9.935107 
L 24.619075 9.701893 
L 25.279851 9.692707 
L 25.991456 9.902129 
L 26.804719 10.381599 
L 27.770468 11.229832 
L 28.939534 12.581192 
L 30.362744 14.584776 
L 32.294243 17.715503 
L 35.852268 24.000816 
L 39.867754 30.940136 
L 42.612516 35.247064 
L 45.103134 38.756162 
L 47.492093 41.74684 
L 49.830224 44.324345 
L 52.168355 46.574797 
L 54.527687 48.540144 
L 56.967476 50.281268 
L 59.458093 51.787891 
L 62.101198 53.126231 
L 64.896789 54.292131 
L 67.946525 55.31904 
L 71.301234 56.207598 
L 75.062575 56.966224 
L 79.355948 57.598367 
L 84.438841 58.11372 
L 90.690799 58.514418 
L 98.925086 58.805701 
L 111.022371 58.990479 
L 133.742903 59.076049 
L 166.629221 59.088436 
L 166.629221 59.088436 
" style="fill:none;stroke:#000000;stroke-linecap:square;"/>
   </g>
   <g id="line2d_4">
    <path d="M 141.12 39.816 
L 141.12 11.577039 
" style="fill:none;stroke:#000000;stroke-width:3;"/>
   </g>
   <g id="line2d_5">
    <path d="M 130.954214 39.816 
L 141.12 39.816 
" style="fill:none;stroke:#000000;stroke-width:3;"/>
   </g>
   <g id="text_1">
    <!-- $1$mA -->
    <g transform="translate(118.613 27.995079)scale(0.0833 -0.0833)">
     <defs>
      <path d="M 12.40625 8.296875 
L 28.515625 8.296875 
L 28.515625 63.921875 
L 10.984375 60.40625 
L 10.984375 69.390625 
L 28.421875 72.90625 
L 38.28125 72.90625 
L 38.28125 8.296875 
L 54.390625 8.296875 
L 54.390625 0 
L 12.40625 0 
z
" id="DejaVuSans-49"/>
      <path d="M 52 44.1875 
Q 55.375 50.25 60.0625 53.125 
Q 64.75 56 71.09375 56 
Q 79.640625 56 84.28125 50.015625 
Q 88.921875 44.046875 88.921875 33.015625 
L 88.921875 0 
L 79.890625 0 
L 79.890625 32.71875 
Q 79.890625 40.578125 77.09375 44.375 
Q 74.3125 48.1875 68.609375 48.1875 
Q 61.625 48.1875 57.5625 43.546875 
Q 53.515625 38.921875 53.515625 30.90625 
L 53.515625 0 
L 44.484375 0 
L 44.484375 32.71875 
Q 44.484375 40.625 41.703125 44.40625 
Q 38.921875 48.1875 33.109375 48.1875 
Q 26.21875 48.1875 22.15625 43.53125 
Q 18.109375 38.875 18.109375 30.90625 
L 18.109375 0 
L 9.078125 0 
L 9.078125 54.6875 
L 18.109375 54.6875 
L 18.109375 46.1875 
Q 21.1875 51.21875 25.484375 53.609375 
Q 29.78125 56 35.6875 56 
Q 41.65625 56 45.828125 52.96875 
Q 50 49.953125 52 44.1875 
z
" id="DejaVuSans-109"/>
      <path d="M 34.1875 63.1875 
L 20.796875 26.90625 
L 47.609375 26.90625 
z
M 28.609375 72.90625 
L 39.796875 72.90625 
L 67.578125 0 
L 57.328125 0 
L 50.6875 18.703125 
L 17.828125 18.703125 
L 11.1875 0 
L 0.78125 0 
z
" id="DejaVuSans-65"/>
     </defs>
     <use transform="translate(0 0.09375)" xlink:href="#DejaVuSans-49"/>
     <use transform="translate(63.623047 0.09375)" xlink:href="#DejaVuSans-109"/>
     <use transform="translate(161.035156 0.09375)" xlink:href="#DejaVuSans-65"/>
    </g>
   </g>
   <g id="text_2">
    <!-- $2$ms -->
    <g transform="translate(127.124007 47.232698)scale(0.0833 -0.0833)">
     <defs>
      <path d="M 19.1875 8.296875 
L 53.609375 8.296875 
L 53.609375 0 
L 7.328125 0 
L 7.328125 8.296875 
Q 12.9375 14.109375 22.625 23.890625 
Q 32.328125 33.6875 34.8125 36.53125 
Q 39.546875 41.84375 41.421875 45.53125 
Q 43.3125 49.21875 43.3125 52.78125 
Q 43.3125 58.59375 39.234375 62.25 
Q 35.15625 65.921875 28.609375 65.921875 
Q 23.96875 65.921875 18.8125 64.3125 
Q 13.671875 62.703125 7.8125 59.421875 
L 7.8125 69.390625 
Q 13.765625 71.78125 18.9375 73 
Q 24.125 74.21875 28.421875 74.21875 
Q 39.75 74.21875 46.484375 68.546875 
Q 53.21875 62.890625 53.21875 53.421875 
Q 53.21875 48.921875 51.53125 44.890625 
Q 49.859375 40.875 45.40625 35.40625 
Q 44.1875 33.984375 37.640625 27.21875 
Q 31.109375 20.453125 19.1875 8.296875 
z
" id="DejaVuSans-50"/>
      <path d="M 44.28125 53.078125 
L 44.28125 44.578125 
Q 40.484375 46.53125 36.375 47.5 
Q 32.28125 48.484375 27.875 48.484375 
Q 21.1875 48.484375 17.84375 46.4375 
Q 14.5 44.390625 14.5 40.28125 
Q 14.5 37.15625 16.890625 35.375 
Q 19.28125 33.59375 26.515625 31.984375 
L 29.59375 31.296875 
Q 39.15625 29.25 43.1875 25.515625 
Q 47.21875 21.78125 47.21875 15.09375 
Q 47.21875 7.46875 41.1875 3.015625 
Q 35.15625 -1.421875 24.609375 -1.421875 
Q 20.21875 -1.421875 15.453125 -0.5625 
Q 10.6875 0.296875 5.421875 2 
L 5.421875 11.28125 
Q 10.40625 8.6875 15.234375 7.390625 
Q 20.0625 6.109375 24.8125 6.109375 
Q 31.15625 6.109375 34.5625 8.28125 
Q 37.984375 10.453125 37.984375 14.40625 
Q 37.984375 18.0625 35.515625 20.015625 
Q 33.0625 21.96875 24.703125 23.78125 
L 21.578125 24.515625 
Q 13.234375 26.265625 9.515625 29.90625 
Q 5.8125 33.546875 5.8125 39.890625 
Q 5.8125 47.609375 11.28125 51.796875 
Q 16.75 56 26.8125 56 
Q 31.78125 56 36.171875 55.265625 
Q 40.578125 54.546875 44.28125 53.078125 
z
" id="DejaVuSans-115"/>
     </defs>
     <use transform="translate(0 0.78125)" xlink:href="#DejaVuSans-50"/>
     <use transform="translate(63.623047 0.78125)" xlink:href="#DejaVuSans-109"/>
     <use transform="translate(161.035156 0.78125)" xlink:href="#DejaVuSans-115"/>
    </g>
   </g>
  </g>
 </g>
 <defs>
  <clipPath id="p7806a92934">
   <rect height="54.36" width="167.4" x="7.2" y="7.2"/>
  </clipPath>
 </defs>
</svg>
