<?xml version="1.0" encoding="utf-8" standalone="no"?>
<!DOCTYPE svg PUBLIC "-//W3C//DTD SVG 1.1//EN"
  "http://www.w3.org/Graphics/SVG/1.1/DTD/svg11.dtd">
<!-- Created with matplotlib (https://matplotlib.org/) -->
<svg height="68.76pt" version="1.1" viewBox="0 0 181.8 68.76" width="181.8pt" xmlns="http://www.w3.org/2000/svg" xmlns:xlink="http://www.w3.org/1999/xlink">
 <metadata>
  <rdf:RDF xmlns:cc="http://creativecommons.org/ns#" xmlns:dc="http://purl.org/dc/elements/1.1/" xmlns:rdf="http://www.w3.org/1999/02/22-rdf-syntax-ns#">
   <cc:Work>
    <dc:type rdf:resource="http://purl.org/dc/dcmitype/StillImage"/>
    <dc:date>2021-03-17T08:56:13.471074</dc:date>
    <dc:format>image/svg+xml</dc:format>
    <dc:creator>
     <cc:Agent>
      <dc:title>Matplotlib v3.3.4, https://matplotlib.org/</dc:title>
     </cc:Agent>
    </dc:creator>
   </cc:Work>
  </rdf:RDF>
 </metadata>
 <defs>
  <style type="text/css">*{stroke-linecap:butt;stroke-linejoin:round;}</style>
 </defs>
 <g id="figure_1">
  <g id="patch_1">
   <path d="M 0 68.76 
L 181.8 68.76 
L 181.8 0 
L 0 0 
z
" style="fill:none;"/>
  </g>
  <g id="axes_1">
   <g id="line2d_1">
    <path clip-path="url(#p0a0ef3661b)" d="M 14.809091 59.089091 
L 15.908162 52.155913 
L 16.97557 46.784374 
L 17.992148 42.730871 
L 19.008727 39.560283 
L 19.993642 37.206266 
L 20.908563 35.56039 
L 21.823483 34.359935 
L 22.687575 33.576952 
L 23.551667 33.085783 
L 24.415759 32.84407 
L 25.33068 32.818554 
L 26.347258 33.021853 
L 27.516324 33.499384 
L 28.888705 34.316279 
L 30.616888 35.623804 
L 33.056677 37.78175 
L 41.799253 45.752769 
L 44.747331 48.020013 
L 47.593751 49.927869 
L 50.389342 51.537112 
L 53.286591 52.947447 
L 56.285498 54.160054 
L 59.487721 55.214213 
L 62.994917 56.129403 
L 66.857916 56.902812 
L 71.229204 57.547454 
L 76.362926 58.074048 
L 82.665713 58.487143 
L 90.849171 58.787511 
L 102.692312 58.98037 
L 124.243778 59.072841 
L 166.990909 59.088754 
L 166.990909 59.088754 
" style="fill:none;stroke:#000000;stroke-linecap:square;"/>
   </g>
   <g id="line2d_2">
    <path clip-path="url(#p0a0ef3661b)" d="M 14.809091 59.089091 
L 15.908162 48.827988 
L 16.97557 40.87811 
L 17.992148 34.878926 
L 19.008727 30.186455 
L 19.942813 26.859279 
L 20.857734 24.383706 
L 21.721825 22.657866 
L 22.535088 21.50233 
L 23.297522 20.777014 
L 24.059956 20.352756 
L 24.82239 20.189837 
L 25.584824 20.252703 
L 26.448916 20.556926 
L 27.414666 21.141725 
L 28.583731 22.127098 
L 30.006941 23.635841 
L 31.887612 25.977529 
L 34.988176 30.250697 
L 39.867754 36.929276 
L 42.714174 40.43865 
L 45.306449 43.293971 
L 47.797067 45.716541 
L 50.287684 47.832088 
L 52.778302 49.659653 
L 55.319749 51.253894 
L 57.962853 52.653584 
L 60.758444 53.88419 
L 63.757351 54.96096 
L 67.010403 55.892233 
L 70.619257 56.692573 
L 74.7364 57.372752 
L 79.51432 57.930849 
L 85.308818 58.375418 
L 92.679013 58.707307 
L 102.997285 58.932398 
L 120.126635 59.054389 
L 166.990909 59.088592 
L 166.990909 59.088592 
" style="fill:none;stroke:#000000;stroke-linecap:square;"/>
   </g>
   <g id="line2d_3">
    <path clip-path="url(#p0a0ef3661b)" d="M 14.809091 59.089091 
L 15.908162 46.054717 
L 16.97557 35.956223 
L 17.992148 28.335638 
L 18.957898 22.637493 
L 19.891984 18.350687 
L 20.806905 15.155216 
L 21.670997 12.921603 
L 22.484259 11.420111 
L 23.246693 10.471334 
L 23.958298 9.935107 
L 24.619075 9.701893 
L 25.279851 9.692707 
L 25.991456 9.902129 
L 26.804719 10.381599 
L 27.770468 11.229832 
L 28.939534 12.581192 
L 30.362744 14.584776 
L 32.294243 17.715503 
L 35.852268 24.000816 
L 39.867754 30.940136 
L 42.612516 35.247064 
L 45.103134 38.756162 
L 47.492093 41.74684 
L 49.830224 44.324345 
L 52.168355 46.574797 
L 54.557315 48.563013 
L 56.997103 50.300743 
L 59.487721 51.80432 
L 62.130825 53.13987 
L 64.926416 54.303271 
L 67.976152 55.327922 
L 71.330862 56.214482 
L 75.092203 56.971365 
L 79.361833 57.599095 
L 84.444726 58.114203 
L 90.696684 58.514706 
L 98.930971 58.805846 
L 111.028257 58.99053 
L 133.748788 59.076056 
L 166.990909 59.088457 
L 166.990909 59.088457 
" style="fill:none;stroke:#000000;stroke-linecap:square;"/>
   </g>
   <g id="line2d_4">
    <path d="M 141.12 39.816 
L 141.12 18.786986 
" style="fill:none;stroke:#000000;stroke-width:3;"/>
   </g>
   <g id="line2d_5">
    <path d="M 130.954214 39.816 
L 141.12 39.816 
" style="fill:none;stroke:#000000;stroke-width:3;"/>
   </g>
   <g id="text_1">
    <!-- $1$mA -->
    <g transform="translate(118.613 31.600053)scale(0.0833 -0.0833)">
     <defs>
      <path d="M 12.40625 8.296875 
L 28.515625 8.296875 
L 28.515625 63.921875 
L 10.984375 60.40625 
L 10.984375 69.390625 
L 28.421875 72.90625 
L 38.28125 72.90625 
L 38.28125 8.296875 
L 54.390625 8.296875 
L 54.390625 0 
L 12.40625 0 
z
" id="DejaVuSans-49"/>
      <path d="M 52 44.1875 
Q 55.375 50.25 60.0625 53.125 
Q 64.75 56 71.09375 56 
Q 79.640625 56 84.28125 50.015625 
Q 88.921875 44.046875 88.921875 33.015625 
L 88.921875 0 
L 79.890625 0 
L 79.890625 32.71875 
Q 79.890625 40.578125 77.09375 44.375 
Q 74.3125 48.1875 68.609375 48.1875 
Q 61.625 48.1875 57.5625 43.546875 
Q 53.515625 38.921875 53.515625 30.90625 
L 53.515625 0 
L 44.484375 0 
L 44.484375 32.71875 
Q 44.484375 40.625 41.703125 44.40625 
Q 38.921875 48.1875 33.109375 48.1875 
Q 26.21875 48.1875 22.15625 43.53125 
Q 18.109375 38.875 18.109375 30.90625 
L 18.109375 0 
L 9.078125 0 
L 9.078125 54.6875 
L 18.109375 54.6875 
L 18.109375 46.1875 
Q 21.1875 51.21875 25.484375 53.609375 
Q 29.78125 56 35.6875 56 
Q 41.65625 56 45.828125 52.96875 
Q 50 49.953125 52 44.1875 
z
" id="DejaVuSans-109"/>
      <path d="M 34.1875 63.1875 
L 20.796875 26.90625 
L 47.609375 26.90625 
z
M 28.609375 72.90625 
L 39.796875 72.90625 
L 67.578125 0 
L 57.328125 0 
L 50.6875 18.703125 
L 17.828125 18.703125 
L 11.1875 0 
L 0.78125 0 
z
" id="DejaVuSans-65"/>
     </defs>
     <use transform="translate(0 0.09375)" xlink:href="#DejaVuSans-49"/>
     <use transform="translate(63.623047 0.09375)" xlink:href="#DejaVuSans-109"/>
     <use transform="translate(161.035156 0.09375)" xlink:href="#DejaVuSans-65"/>
    </g>
   </g>
   <g id="text_2">
    <!-- $2$ms -->
    <g transform="translate(127.124007 47.232698)scale(0.0833 -0.0833)">
     <defs>
      <path d="M 19.1875 8.296875 
L 53.609375 8.296875 
L 53.609375 0 
L 7.328125 0 
L 7.328125 8.296875 
Q 12.9375 14.109375 22.625 23.890625 
Q 32.328125 33.6875 34.8125 36.53125 
Q 39.546875 41.84375 41.421875 45.53125 
Q 43.3125 49.21875 43.3125 52.78125 
Q 43.3125 58.59375 39.234375 62.25 
Q 35.15625 65.921875 28.609375 65.921875 
Q 23.96875 65.921875 18.8125 64.3125 
Q 13.671875 62.703125 7.8125 59.421875 
L 7.8125 69.390625 
Q 13.765625 71.78125 18.9375 73 
Q 24.125 74.21875 28.421875 74.21875 
Q 39.75 74.21875 46.484375 68.546875 
Q 53.21875 62.890625 53.21875 53.421875 
Q 53.21875 48.921875 51.53125 44.890625 
Q 49.859375 40.875 45.40625 35.40625 
Q 44.1875 33.984375 37.640625 27.21875 
Q 31.109375 20.453125 19.1875 8.296875 
z
" id="DejaVuSans-50"/>
      <path d="M 44.28125 53.078125 
L 44.28125 44.578125 
Q 40.484375 46.53125 36.375 47.5 
Q 32.28125 48.484375 27.875 48.484375 
Q 21.1875 48.484375 17.84375 46.4375 
Q 14.5 44.390625 14.5 40.28125 
Q 14.5 37.15625 16.890625 35.375 
Q 19.28125 33.59375 26.515625 31.984375 
L 29.59375 31.296875 
Q 39.15625 29.25 43.1875 25.515625 
Q 47.21875 21.78125 47.21875 15.09375 
Q 47.21875 7.46875 41.1875 3.015625 
Q 35.15625 -1.421875 24.609375 -1.421875 
Q 20.21875 -1.421875 15.453125 -0.5625 
Q 10.6875 0.296875 5.421875 2 
L 5.421875 11.28125 
Q 10.40625 8.6875 15.234375 7.390625 
Q 20.0625 6.109375 24.8125 6.109375 
Q 31.15625 6.109375 34.5625 8.28125 
Q 37.984375 10.453125 37.984375 14.40625 
Q 37.984375 18.0625 35.515625 20.015625 
Q 33.0625 21.96875 24.703125 23.78125 
L 21.578125 24.515625 
Q 13.234375 26.265625 9.515625 29.90625 
Q 5.8125 33.546875 5.8125 39.890625 
Q 5.8125 47.609375 11.28125 51.796875 
Q 16.75 56 26.8125 56 
Q 31.78125 56 36.171875 55.265625 
Q 40.578125 54.546875 44.28125 53.078125 
z
" id="DejaVuSans-115"/>
     </defs>
     <use transform="translate(0 0.78125)" xlink:href="#DejaVuSans-50"/>
     <use transform="translate(63.623047 0.78125)" xlink:href="#DejaVuSans-109"/>
     <use transform="translate(161.035156 0.78125)" xlink:href="#DejaVuSans-115"/>
    </g>
   </g>
  </g>
 </g>
 <defs>
  <clipPath id="p0a0ef3661b">
   <rect height="54.36" width="167.4" x="7.2" y="7.2"/>
  </clipPath>
 </defs>
</svg>
