<?xml version="1.0" encoding="utf-8" standalone="no"?>
<!DOCTYPE svg PUBLIC "-//W3C//DTD SVG 1.1//EN"
  "http://www.w3.org/Graphics/SVG/1.1/DTD/svg11.dtd">
<!-- Created with matplotlib (https://matplotlib.org/) -->
<svg height="720pt" version="1.1" viewBox="0 0 360 720" width="360pt" xmlns="http://www.w3.org/2000/svg" xmlns:xlink="http://www.w3.org/1999/xlink">
 <metadata>
  <rdf:RDF xmlns:cc="http://creativecommons.org/ns#" xmlns:dc="http://purl.org/dc/elements/1.1/" xmlns:rdf="http://www.w3.org/1999/02/22-rdf-syntax-ns#">
   <cc:Work>
    <dc:type rdf:resource="http://purl.org/dc/dcmitype/StillImage"/>
    <dc:date>2021-02-19T01:27:28.663737</dc:date>
    <dc:format>image/svg+xml</dc:format>
    <dc:creator>
     <cc:Agent>
      <dc:title>Matplotlib v3.3.4, https://matplotlib.org/</dc:title>
     </cc:Agent>
    </dc:creator>
   </cc:Work>
  </rdf:RDF>
 </metadata>
 <defs>
  <style type="text/css">*{stroke-linecap:butt;stroke-linejoin:round;}</style>
 </defs>
 <g id="figure_1">
  <g id="patch_1">
   <path d="M 0 720 
L 360 720 
L 360 0 
L 0 0 
z
" style="fill:none;"/>
  </g>
  <g id="axes_1">
   <g id="patch_2">
    <path d="M 45 630 
L 324 630 
L 324 86.4 
L 45 86.4 
z
" style="fill:#ffffff;"/>
   </g>
   <g id="matplotlib.axis_1">
    <g id="xtick_1">
     <g id="line2d_1">
      <defs>
       <path d="M 0 0 
L 0 3.5 
" id="m874a98b919" style="stroke:#000000;stroke-width:0.8;"/>
      </defs>
      <g>
       <use style="stroke:#000000;stroke-width:0.8;" x="57.681818" xlink:href="#m874a98b919" y="630"/>
      </g>
     </g>
     <g id="text_1">
      <!-- 0 -->
      <g transform="translate(54.500568 644.598438)scale(0.1 -0.1)">
       <defs>
        <path d="M 31.78125 66.40625 
Q 24.171875 66.40625 20.328125 58.90625 
Q 16.5 51.421875 16.5 36.375 
Q 16.5 21.390625 20.328125 13.890625 
Q 24.171875 6.390625 31.78125 6.390625 
Q 39.453125 6.390625 43.28125 13.890625 
Q 47.125 21.390625 47.125 36.375 
Q 47.125 51.421875 43.28125 58.90625 
Q 39.453125 66.40625 31.78125 66.40625 
z
M 31.78125 74.21875 
Q 44.046875 74.21875 50.515625 64.515625 
Q 56.984375 54.828125 56.984375 36.375 
Q 56.984375 17.96875 50.515625 8.265625 
Q 44.046875 -1.421875 31.78125 -1.421875 
Q 19.53125 -1.421875 13.0625 8.265625 
Q 6.59375 17.96875 6.59375 36.375 
Q 6.59375 54.828125 13.0625 64.515625 
Q 19.53125 74.21875 31.78125 74.21875 
z
" id="DejaVuSans-48"/>
       </defs>
       <use xlink:href="#DejaVuSans-48"/>
      </g>
     </g>
    </g>
    <g id="xtick_2">
     <g id="line2d_2">
      <g>
       <use style="stroke:#000000;stroke-width:0.8;" x="108.531129" xlink:href="#m874a98b919" y="630"/>
      </g>
     </g>
     <g id="text_2">
      <!-- 5 -->
      <g transform="translate(105.349879 644.598438)scale(0.1 -0.1)">
       <defs>
        <path d="M 10.796875 72.90625 
L 49.515625 72.90625 
L 49.515625 64.59375 
L 19.828125 64.59375 
L 19.828125 46.734375 
Q 21.96875 47.46875 24.109375 47.828125 
Q 26.265625 48.1875 28.421875 48.1875 
Q 40.625 48.1875 47.75 41.5 
Q 54.890625 34.8125 54.890625 23.390625 
Q 54.890625 11.625 47.5625 5.09375 
Q 40.234375 -1.421875 26.90625 -1.421875 
Q 22.3125 -1.421875 17.546875 -0.640625 
Q 12.796875 0.140625 7.71875 1.703125 
L 7.71875 11.625 
Q 12.109375 9.234375 16.796875 8.0625 
Q 21.484375 6.890625 26.703125 6.890625 
Q 35.15625 6.890625 40.078125 11.328125 
Q 45.015625 15.765625 45.015625 23.390625 
Q 45.015625 31 40.078125 35.4375 
Q 35.15625 39.890625 26.703125 39.890625 
Q 22.75 39.890625 18.8125 39.015625 
Q 14.890625 38.140625 10.796875 36.28125 
z
" id="DejaVuSans-53"/>
       </defs>
       <use xlink:href="#DejaVuSans-53"/>
      </g>
     </g>
    </g>
    <g id="xtick_3">
     <g id="line2d_3">
      <g>
       <use style="stroke:#000000;stroke-width:0.8;" x="159.38044" xlink:href="#m874a98b919" y="630"/>
      </g>
     </g>
     <g id="text_3">
      <!-- 10 -->
      <g transform="translate(153.01794 644.598438)scale(0.1 -0.1)">
       <defs>
        <path d="M 12.40625 8.296875 
L 28.515625 8.296875 
L 28.515625 63.921875 
L 10.984375 60.40625 
L 10.984375 69.390625 
L 28.421875 72.90625 
L 38.28125 72.90625 
L 38.28125 8.296875 
L 54.390625 8.296875 
L 54.390625 0 
L 12.40625 0 
z
" id="DejaVuSans-49"/>
       </defs>
       <use xlink:href="#DejaVuSans-49"/>
       <use x="63.623047" xlink:href="#DejaVuSans-48"/>
      </g>
     </g>
    </g>
    <g id="xtick_4">
     <g id="line2d_4">
      <g>
       <use style="stroke:#000000;stroke-width:0.8;" x="210.229751" xlink:href="#m874a98b919" y="630"/>
      </g>
     </g>
     <g id="text_4">
      <!-- 15 -->
      <g transform="translate(203.867251 644.598438)scale(0.1 -0.1)">
       <use xlink:href="#DejaVuSans-49"/>
       <use x="63.623047" xlink:href="#DejaVuSans-53"/>
      </g>
     </g>
    </g>
    <g id="xtick_5">
     <g id="line2d_5">
      <g>
       <use style="stroke:#000000;stroke-width:0.8;" x="261.079062" xlink:href="#m874a98b919" y="630"/>
      </g>
     </g>
     <g id="text_5">
      <!-- 20 -->
      <g transform="translate(254.716562 644.598438)scale(0.1 -0.1)">
       <defs>
        <path d="M 19.1875 8.296875 
L 53.609375 8.296875 
L 53.609375 0 
L 7.328125 0 
L 7.328125 8.296875 
Q 12.9375 14.109375 22.625 23.890625 
Q 32.328125 33.6875 34.8125 36.53125 
Q 39.546875 41.84375 41.421875 45.53125 
Q 43.3125 49.21875 43.3125 52.78125 
Q 43.3125 58.59375 39.234375 62.25 
Q 35.15625 65.921875 28.609375 65.921875 
Q 23.96875 65.921875 18.8125 64.3125 
Q 13.671875 62.703125 7.8125 59.421875 
L 7.8125 69.390625 
Q 13.765625 71.78125 18.9375 73 
Q 24.125 74.21875 28.421875 74.21875 
Q 39.75 74.21875 46.484375 68.546875 
Q 53.21875 62.890625 53.21875 53.421875 
Q 53.21875 48.921875 51.53125 44.890625 
Q 49.859375 40.875 45.40625 35.40625 
Q 44.1875 33.984375 37.640625 27.21875 
Q 31.109375 20.453125 19.1875 8.296875 
z
" id="DejaVuSans-50"/>
       </defs>
       <use xlink:href="#DejaVuSans-50"/>
       <use x="63.623047" xlink:href="#DejaVuSans-48"/>
      </g>
     </g>
    </g>
    <g id="xtick_6">
     <g id="line2d_6">
      <g>
       <use style="stroke:#000000;stroke-width:0.8;" x="311.928374" xlink:href="#m874a98b919" y="630"/>
      </g>
     </g>
     <g id="text_6">
      <!-- 25 -->
      <g transform="translate(305.565874 644.598438)scale(0.1 -0.1)">
       <use xlink:href="#DejaVuSans-50"/>
       <use x="63.623047" xlink:href="#DejaVuSans-53"/>
      </g>
     </g>
    </g>
   </g>
   <g id="matplotlib.axis_2"/>
   <g id="line2d_7">
    <path clip-path="url(#p0834229785)" d="M 57.681818 604.247738 
L 58.762157 604.145579 
L 59.982541 603.802926 
L 61.304623 603.189775 
L 62.728404 602.279408 
L 64.355582 600.956761 
L 66.084458 599.25706 
L 68.055078 596.987822 
L 70.190749 594.167498 
L 72.529817 590.689557 
L 75.072283 586.504197 
L 78.22494 580.853584 
L 88.191405 562.595491 
L 90.530473 558.990529 
L 92.564446 556.248347 
L 94.496719 554.015641 
L 96.327295 552.245698 
L 98.056171 550.878771 
L 99.785048 549.794655 
L 101.513924 548.973271 
L 103.242801 548.38958 
L 105.073376 547.999491 
L 107.107349 547.799672 
L 109.344718 547.810133 
L 111.988882 548.057659 
L 115.243238 548.598843 
L 120.023074 549.64329 
L 137.006743 553.509794 
L 148.295291 555.735622 
L 187.245863 563.02825 
L 211.450135 567.412841 
L 230.366079 570.612921 
L 248.468433 573.449499 
L 266.672487 576.075344 
L 285.283335 578.534653 
L 304.707771 580.875256 
L 311.318182 581.622447 
L 311.318182 581.622447 
" style="fill:none;stroke:#000000;stroke-linecap:square;stroke-width:1.5;"/>
   </g>
   <g id="line2d_8">
    <path clip-path="url(#p0834229785)" d="M 57.681818 605.290909 
L 58.863856 605.187515 
L 60.185938 604.847369 
L 61.609719 604.251247 
L 63.236897 603.322996 
L 65.067472 602.020395 
L 67.304842 600.139292 
L 70.08905 597.482692 
L 74.055296 593.350796 
L 84.326857 582.514734 
L 88.394802 578.622008 
L 92.055952 575.424275 
L 95.513706 572.694565 
L 98.86976 570.322381 
L 102.225815 568.221491 
L 105.581869 566.383958 
L 108.937924 564.797662 
L 112.395677 563.410371 
L 115.955129 562.225384 
L 119.616279 561.242374 
L 123.480827 560.439555 
L 127.548772 559.8271 
L 131.820114 559.409967 
L 136.396552 559.185422 
L 141.379784 559.163102 
L 146.973208 559.366367 
L 153.176824 559.817946 
L 160.397427 560.572488 
L 169.041809 561.707002 
L 180.330356 563.427255 
L 198.636108 566.475199 
L 230.467777 571.76103 
L 250.095611 574.777415 
L 269.011555 577.459087 
L 288.130896 579.943863 
L 307.860429 582.281764 
L 311.318182 582.669056 
L 311.318182 582.669056 
" style="fill:none;stroke:#ff0000;stroke-linecap:square;stroke-width:1.5;"/>
   </g>
   <g id="line2d_9">
    <path clip-path="url(#p0834229785)" d="M 57.681818 605.290909 
L 59.168952 605.182847 
L 60.79613 604.842185 
L 62.626705 604.226694 
L 64.762376 603.258056 
L 67.203143 601.898396 
L 70.292447 599.90878 
L 74.767187 596.731761 
L 85.343843 589.141951 
L 89.920281 586.178499 
L 94.089925 583.736845 
L 98.15787 581.61101 
L 102.124116 579.784837 
L 106.192061 578.158143 
L 110.260006 576.768129 
L 114.531348 575.545171 
L 119.006087 574.500792 
L 123.684224 573.640619 
L 128.667456 572.952927 
L 134.057483 572.437289 
L 139.956003 572.101037 
L 146.464715 571.955482 
L 153.888715 572.016404 
L 162.533098 572.315207 
L 173.109754 572.912155 
L 187.042466 573.935708 
L 209.416162 575.83248 
L 262.502843 580.370574 
L 293.622622 582.773 
L 311.318182 584.039262 
L 311.318182 584.039262 
" style="fill:none;stroke:#000000;stroke-linecap:square;stroke-opacity:0.2;stroke-width:1.5;"/>
   </g>
   <g id="line2d_10">
    <path clip-path="url(#p0834229785)" d="M 57.681818 514.011239 
L 58.660459 513.907678 
L 59.779144 513.55284 
L 60.999527 512.906408 
L 62.321609 511.93015 
L 63.74539 510.586405 
L 65.270869 508.835767 
L 66.898047 506.633858 
L 68.665269 503.86343 
L 70.495845 500.579875 
L 72.428118 496.652268 
L 74.462091 492.003092 
L 76.699461 486.299432 
L 79.241926 479.16247 
L 82.903076 468.112109 
L 87.174419 455.347283 
L 89.513487 449.059975 
L 91.445761 444.490424 
L 93.174637 440.974235 
L 94.700117 438.358758 
L 96.123897 436.34152 
L 97.445979 434.832757 
L 98.768062 433.664349 
L 99.988445 432.873232 
L 101.208828 432.340134 
L 102.429212 432.044634 
L 103.751294 431.966558 
L 105.073376 432.110867 
L 106.598855 432.51373 
L 108.327732 433.220689 
L 110.361704 434.310512 
L 113.005869 436.001098 
L 118.294197 439.727045 
L 122.870635 442.819603 
L 126.531785 445.029755 
L 130.091237 446.922383 
L 133.854086 448.666259 
L 137.922031 450.300404 
L 142.600168 451.930352 
L 148.193592 453.634663 
L 155.617591 455.64862 
L 166.906138 458.455435 
L 186.839068 463.156689 
L 207.077094 467.720361 
L 224.36586 471.394664 
L 240.739338 474.648731 
L 257.011118 477.656554 
L 273.587993 480.494013 
L 290.673362 483.191265 
L 308.368922 485.758109 
L 311.318182 486.164725 
L 311.318182 486.164725 
" style="fill:none;stroke:#000000;stroke-linecap:square;stroke-width:1.5;"/>
   </g>
   <g id="line2d_11">
    <path clip-path="url(#p0834229785)" d="M 57.681818 515.05441 
L 58.762157 514.947741 
L 59.982541 514.590384 
L 61.304623 513.954541 
L 62.728404 513.020803 
L 64.355582 511.688098 
L 66.287855 509.808103 
L 68.665269 507.159929 
L 71.716228 503.399715 
L 76.902858 496.586964 
L 83.208172 488.407255 
L 87.174419 483.624945 
L 90.73387 479.672879 
L 94.089925 476.276218 
L 97.344281 473.301584 
L 100.496938 470.721303 
L 103.649595 468.432236 
L 106.802253 466.424108 
L 109.95491 464.683283 
L 113.107567 463.193942 
L 116.361923 461.902219 
L 119.717978 460.811159 
L 123.175731 459.920688 
L 126.836881 459.211204 
L 130.701429 458.694608 
L 134.769374 458.37767 
L 139.142415 458.261884 
L 143.92225 458.362108 
L 149.210578 458.70216 
L 155.109098 459.310005 
L 161.922906 460.243375 
L 170.058796 461.592219 
L 180.432055 463.549989 
L 196.602136 466.856913 
L 228.942298 473.486808 
L 246.841255 476.903655 
L 263.926624 479.939818 
L 281.113691 482.76739 
L 298.707553 485.434502 
L 311.318182 487.21213 
L 311.318182 487.21213 
" style="fill:none;stroke:#ff0000;stroke-linecap:square;stroke-width:1.5;"/>
   </g>
   <g id="line2d_12">
    <path clip-path="url(#p0834229785)" d="M 57.681818 515.05441 
L 58.965555 514.954624 
L 60.389335 514.631261 
L 62.016513 514.027251 
L 63.847088 513.099172 
L 65.98276 511.751165 
L 68.563571 509.837451 
L 71.817927 507.130211 
L 77.411351 502.133309 
L 84.326857 496.033075 
L 88.801597 492.391033 
L 92.767843 489.444359 
L 96.530692 486.918551 
L 100.293541 484.662738 
L 103.954691 482.724188 
L 107.71754 480.985576 
L 111.480389 479.490047 
L 115.344937 478.189266 
L 119.412882 477.05575 
L 123.684224 476.100207 
L 128.158963 475.328048 
L 132.938799 474.729175 
L 138.125428 474.305623 
L 143.820551 474.067815 
L 150.125866 474.030598 
L 157.346468 474.217192 
L 165.787454 474.667181 
L 176.059014 475.448461 
L 189.584931 476.715658 
L 211.653532 479.039301 
L 257.926405 483.925297 
L 286.096924 486.650417 
L 311.318182 488.898537 
L 311.318182 488.898537 
" style="fill:none;stroke:#000000;stroke-linecap:square;stroke-opacity:0.2;stroke-width:1.5;"/>
   </g>
   <g id="line2d_13">
    <path clip-path="url(#p0834229785)" d="M 57.681818 423.77474 
L 58.660459 423.664699 
L 59.677445 423.332216 
L 60.79613 422.733384 
L 62.016513 421.82599 
L 63.338595 420.567923 
L 64.864075 418.785514 
L 66.491253 416.512685 
L 68.156776 413.796665 
L 69.885653 410.55489 
L 71.716228 406.635997 
L 73.546803 402.195754 
L 75.479077 396.931037 
L 77.614748 390.443551 
L 80.055515 382.287753 
L 83.818364 368.81253 
L 87.479514 355.953437 
L 89.716884 348.891385 
L 91.547459 343.822128 
L 93.174637 339.953293 
L 94.598418 337.101201 
L 95.9205 334.912073 
L 97.140884 333.283234 
L 98.361267 332.02159 
L 99.479952 331.174469 
L 100.598637 330.606845 
L 101.717322 330.299614 
L 102.836006 330.231386 
L 103.954691 330.379215 
L 105.175075 330.758907 
L 106.598855 331.449398 
L 108.226033 332.505463 
L 110.158307 334.038604 
L 112.802471 336.450379 
L 122.972334 346.028592 
L 124.265356 347.0921 
L 126.299328 336.914515 
L 128.638397 324.015862 
L 131.994451 304.100899 
L 134.435218 289.330638 
L 135.7573 298.948674 
L 137.079382 306.90604 
L 138.401464 313.505114 
L 139.723546 318.997629 
L 141.045628 323.590315 
L 142.469409 327.722277 
L 143.89319 331.174317 
L 145.418669 334.270333 
L 146.944149 336.869572 
L 148.571326 339.208566 
L 150.300203 341.307549 
L 152.130778 343.191664 
L 154.164751 344.970761 
L 156.40212 346.638031 
L 158.944586 348.259649 
L 161.893846 349.878577 
L 165.453298 351.572804 
L 169.826339 353.398452 
L 175.419763 355.479989 
L 182.788195 357.971979 
L 192.652962 361.061845 
L 204.958495 364.678128 
L 218.58611 368.450316 
L 232.62052 372.103146 
L 246.756629 375.553135 
L 261.197833 378.848513 
L 276.045832 382.006795 
L 291.300625 385.022897 
L 307.063911 387.912021 
L 310.725062 388.551695 
L 310.725062 388.551695 
" style="fill:none;stroke:#000000;stroke-linecap:square;stroke-width:1.5;"/>
   </g>
   <g id="line2d_14">
    <path clip-path="url(#p0834229785)" d="M 57.681818 424.817911 
L 58.660459 424.724585 
L 59.779144 424.405348 
L 60.999527 423.827616 
L 62.423308 422.890751 
L 64.050486 421.527102 
L 65.881061 419.688847 
L 68.055078 417.182928 
L 70.80094 413.666706 
L 74.970584 407.919679 
L 83.41157 396.235689 
L 87.377816 391.174406 
L 90.835569 387.110559 
L 94.089925 383.616082 
L 97.242582 380.549204 
L 100.293541 377.88143 
L 103.3445 375.503967 
L 106.395458 373.407231 
L 109.446417 371.578382 
L 112.497376 370.002427 
L 115.650033 368.622299 
L 118.904389 367.442813 
L 122.260443 366.465612 
L 124.367054 365.831034 
L 128.536698 359.588009 
L 132.80804 353.598098 
L 134.536917 351.41597 
L 138.808259 351.55551 
L 143.486395 351.935293 
L 148.673025 352.586591 
L 154.469847 353.544686 
L 161.181956 354.886959 
L 169.216147 356.728583 
L 179.691105 359.370465 
L 198.042989 364.270308 
L 221.433672 370.45215 
L 237.603753 374.489733 
L 252.858546 378.070504 
L 268.011641 381.398248 
L 283.368133 384.541132 
L 299.02972 387.518606 
L 310.725062 389.599809 
L 310.725062 389.599809 
" style="fill:none;stroke:#ff0000;stroke-linecap:square;stroke-width:1.5;"/>
   </g>
   <g id="line2d_15">
    <path clip-path="url(#p0834229785)" d="M 57.681818 424.817911 
L 58.965555 424.711888 
L 60.389335 424.368315 
L 61.914815 423.773627 
L 63.643691 422.862143 
L 65.677664 421.528623 
L 68.055078 419.696669 
L 71.106036 417.049083 
L 75.784173 412.651772 
L 84.326857 404.607743 
L 88.699898 400.822239 
L 92.666144 397.683705 
L 96.428993 394.992327 
L 100.090144 392.648999 
L 103.751294 390.574575 
L 107.412444 388.759706 
L 111.073595 387.19064 
L 114.836444 385.816816 
L 118.80269 384.609579 
L 122.870635 383.604077 
L 124.265356 383.309122 
L 124.367054 112.57906 
L 128.740095 111.809244 
L 133.418232 111.211363 
L 134.435218 111.109091 
L 134.435218 381.818588 
L 134.536917 381.808871 
L 139.723546 381.427907 
L 145.418669 381.237867 
L 151.723984 381.253852 
L 158.944586 381.50095 
L 167.385572 382.020358 
L 177.657132 382.883589 
L 191.330879 384.270006 
L 214.518165 386.880833 
L 256.112902 391.548748 
L 283.57153 394.388921 
L 310.725062 396.973297 
L 310.725062 396.973297 
" style="fill:none;stroke:#000000;stroke-linecap:square;stroke-opacity:0.2;stroke-width:1.5;"/>
   </g>
   <g id="patch_3">
    <path d="M 57.681818 630 
L 311.928374 630 
" style="fill:none;stroke:#000000;stroke-linecap:square;stroke-linejoin:miter;stroke-width:0.8;"/>
   </g>
   <g id="legend_1">
    <g id="patch_4">
     <path d="M 181.15625 138.434375 
L 317 138.434375 
Q 319 138.434375 319 136.434375 
L 319 93.4 
Q 319 91.4 317 91.4 
L 181.15625 91.4 
Q 179.15625 91.4 179.15625 93.4 
L 179.15625 136.434375 
Q 179.15625 138.434375 181.15625 138.434375 
z
" style="fill:#ffffff;opacity:0.8;stroke:#cccccc;stroke-linejoin:miter;"/>
    </g>
    <g id="line2d_16">
     <path d="M 183.15625 99.498438 
L 203.15625 99.498438 
" style="fill:none;stroke:#000000;stroke-linecap:square;stroke-width:1.5;"/>
    </g>
    <g id="line2d_17"/>
    <g id="text_7">
     <!-- Dendrite -->
     <g transform="translate(211.15625 102.998438)scale(0.1 -0.1)">
      <defs>
       <path d="M 19.671875 64.796875 
L 19.671875 8.109375 
L 31.59375 8.109375 
Q 46.6875 8.109375 53.6875 14.9375 
Q 60.6875 21.78125 60.6875 36.53125 
Q 60.6875 51.171875 53.6875 57.984375 
Q 46.6875 64.796875 31.59375 64.796875 
z
M 9.8125 72.90625 
L 30.078125 72.90625 
Q 51.265625 72.90625 61.171875 64.09375 
Q 71.09375 55.28125 71.09375 36.53125 
Q 71.09375 17.671875 61.125 8.828125 
Q 51.171875 0 30.078125 0 
L 9.8125 0 
z
" id="DejaVuSans-68"/>
       <path d="M 56.203125 29.59375 
L 56.203125 25.203125 
L 14.890625 25.203125 
Q 15.484375 15.921875 20.484375 11.0625 
Q 25.484375 6.203125 34.421875 6.203125 
Q 39.59375 6.203125 44.453125 7.46875 
Q 49.3125 8.734375 54.109375 11.28125 
L 54.109375 2.78125 
Q 49.265625 0.734375 44.1875 -0.34375 
Q 39.109375 -1.421875 33.890625 -1.421875 
Q 20.796875 -1.421875 13.15625 6.1875 
Q 5.515625 13.8125 5.515625 26.8125 
Q 5.515625 40.234375 12.765625 48.109375 
Q 20.015625 56 32.328125 56 
Q 43.359375 56 49.78125 48.890625 
Q 56.203125 41.796875 56.203125 29.59375 
z
M 47.21875 32.234375 
Q 47.125 39.59375 43.09375 43.984375 
Q 39.0625 48.390625 32.421875 48.390625 
Q 24.90625 48.390625 20.390625 44.140625 
Q 15.875 39.890625 15.1875 32.171875 
z
" id="DejaVuSans-101"/>
       <path d="M 54.890625 33.015625 
L 54.890625 0 
L 45.90625 0 
L 45.90625 32.71875 
Q 45.90625 40.484375 42.875 44.328125 
Q 39.84375 48.1875 33.796875 48.1875 
Q 26.515625 48.1875 22.3125 43.546875 
Q 18.109375 38.921875 18.109375 30.90625 
L 18.109375 0 
L 9.078125 0 
L 9.078125 54.6875 
L 18.109375 54.6875 
L 18.109375 46.1875 
Q 21.34375 51.125 25.703125 53.5625 
Q 30.078125 56 35.796875 56 
Q 45.21875 56 50.046875 50.171875 
Q 54.890625 44.34375 54.890625 33.015625 
z
" id="DejaVuSans-110"/>
       <path d="M 45.40625 46.390625 
L 45.40625 75.984375 
L 54.390625 75.984375 
L 54.390625 0 
L 45.40625 0 
L 45.40625 8.203125 
Q 42.578125 3.328125 38.25 0.953125 
Q 33.9375 -1.421875 27.875 -1.421875 
Q 17.96875 -1.421875 11.734375 6.484375 
Q 5.515625 14.40625 5.515625 27.296875 
Q 5.515625 40.1875 11.734375 48.09375 
Q 17.96875 56 27.875 56 
Q 33.9375 56 38.25 53.625 
Q 42.578125 51.265625 45.40625 46.390625 
z
M 14.796875 27.296875 
Q 14.796875 17.390625 18.875 11.75 
Q 22.953125 6.109375 30.078125 6.109375 
Q 37.203125 6.109375 41.296875 11.75 
Q 45.40625 17.390625 45.40625 27.296875 
Q 45.40625 37.203125 41.296875 42.84375 
Q 37.203125 48.484375 30.078125 48.484375 
Q 22.953125 48.484375 18.875 42.84375 
Q 14.796875 37.203125 14.796875 27.296875 
z
" id="DejaVuSans-100"/>
       <path d="M 41.109375 46.296875 
Q 39.59375 47.171875 37.8125 47.578125 
Q 36.03125 48 33.890625 48 
Q 26.265625 48 22.1875 43.046875 
Q 18.109375 38.09375 18.109375 28.8125 
L 18.109375 0 
L 9.078125 0 
L 9.078125 54.6875 
L 18.109375 54.6875 
L 18.109375 46.1875 
Q 20.953125 51.171875 25.484375 53.578125 
Q 30.03125 56 36.53125 56 
Q 37.453125 56 38.578125 55.875 
Q 39.703125 55.765625 41.0625 55.515625 
z
" id="DejaVuSans-114"/>
       <path d="M 9.421875 54.6875 
L 18.40625 54.6875 
L 18.40625 0 
L 9.421875 0 
z
M 9.421875 75.984375 
L 18.40625 75.984375 
L 18.40625 64.59375 
L 9.421875 64.59375 
z
" id="DejaVuSans-105"/>
       <path d="M 18.3125 70.21875 
L 18.3125 54.6875 
L 36.8125 54.6875 
L 36.8125 47.703125 
L 18.3125 47.703125 
L 18.3125 18.015625 
Q 18.3125 11.328125 20.140625 9.421875 
Q 21.96875 7.515625 27.59375 7.515625 
L 36.8125 7.515625 
L 36.8125 0 
L 27.59375 0 
Q 17.1875 0 13.234375 3.875 
Q 9.28125 7.765625 9.28125 18.015625 
L 9.28125 47.703125 
L 2.6875 47.703125 
L 2.6875 54.6875 
L 9.28125 54.6875 
L 9.28125 70.21875 
z
" id="DejaVuSans-116"/>
      </defs>
      <use xlink:href="#DejaVuSans-68"/>
      <use x="77.001953" xlink:href="#DejaVuSans-101"/>
      <use x="138.525391" xlink:href="#DejaVuSans-110"/>
      <use x="201.904297" xlink:href="#DejaVuSans-100"/>
      <use x="265.380859" xlink:href="#DejaVuSans-114"/>
      <use x="306.494141" xlink:href="#DejaVuSans-105"/>
      <use x="334.277344" xlink:href="#DejaVuSans-116"/>
      <use x="373.486328" xlink:href="#DejaVuSans-101"/>
     </g>
    </g>
    <g id="line2d_18">
     <path d="M 183.15625 114.176563 
L 203.15625 114.176563 
" style="fill:none;stroke:#ff0000;stroke-linecap:square;stroke-width:1.5;"/>
    </g>
    <g id="line2d_19"/>
    <g id="text_8">
     <!-- Dendrite Linear Only -->
     <g transform="translate(211.15625 117.676563)scale(0.1 -0.1)">
      <defs>
       <path id="DejaVuSans-32"/>
       <path d="M 9.8125 72.90625 
L 19.671875 72.90625 
L 19.671875 8.296875 
L 55.171875 8.296875 
L 55.171875 0 
L 9.8125 0 
z
" id="DejaVuSans-76"/>
       <path d="M 34.28125 27.484375 
Q 23.390625 27.484375 19.1875 25 
Q 14.984375 22.515625 14.984375 16.5 
Q 14.984375 11.71875 18.140625 8.90625 
Q 21.296875 6.109375 26.703125 6.109375 
Q 34.1875 6.109375 38.703125 11.40625 
Q 43.21875 16.703125 43.21875 25.484375 
L 43.21875 27.484375 
z
M 52.203125 31.203125 
L 52.203125 0 
L 43.21875 0 
L 43.21875 8.296875 
Q 40.140625 3.328125 35.546875 0.953125 
Q 30.953125 -1.421875 24.3125 -1.421875 
Q 15.921875 -1.421875 10.953125 3.296875 
Q 6 8.015625 6 15.921875 
Q 6 25.140625 12.171875 29.828125 
Q 18.359375 34.515625 30.609375 34.515625 
L 43.21875 34.515625 
L 43.21875 35.40625 
Q 43.21875 41.609375 39.140625 45 
Q 35.0625 48.390625 27.6875 48.390625 
Q 23 48.390625 18.546875 47.265625 
Q 14.109375 46.140625 10.015625 43.890625 
L 10.015625 52.203125 
Q 14.9375 54.109375 19.578125 55.046875 
Q 24.21875 56 28.609375 56 
Q 40.484375 56 46.34375 49.84375 
Q 52.203125 43.703125 52.203125 31.203125 
z
" id="DejaVuSans-97"/>
       <path d="M 39.40625 66.21875 
Q 28.65625 66.21875 22.328125 58.203125 
Q 16.015625 50.203125 16.015625 36.375 
Q 16.015625 22.609375 22.328125 14.59375 
Q 28.65625 6.59375 39.40625 6.59375 
Q 50.140625 6.59375 56.421875 14.59375 
Q 62.703125 22.609375 62.703125 36.375 
Q 62.703125 50.203125 56.421875 58.203125 
Q 50.140625 66.21875 39.40625 66.21875 
z
M 39.40625 74.21875 
Q 54.734375 74.21875 63.90625 63.9375 
Q 73.09375 53.65625 73.09375 36.375 
Q 73.09375 19.140625 63.90625 8.859375 
Q 54.734375 -1.421875 39.40625 -1.421875 
Q 24.03125 -1.421875 14.8125 8.828125 
Q 5.609375 19.09375 5.609375 36.375 
Q 5.609375 53.65625 14.8125 63.9375 
Q 24.03125 74.21875 39.40625 74.21875 
z
" id="DejaVuSans-79"/>
       <path d="M 9.421875 75.984375 
L 18.40625 75.984375 
L 18.40625 0 
L 9.421875 0 
z
" id="DejaVuSans-108"/>
       <path d="M 32.171875 -5.078125 
Q 28.375 -14.84375 24.75 -17.8125 
Q 21.140625 -20.796875 15.09375 -20.796875 
L 7.90625 -20.796875 
L 7.90625 -13.28125 
L 13.1875 -13.28125 
Q 16.890625 -13.28125 18.9375 -11.515625 
Q 21 -9.765625 23.484375 -3.21875 
L 25.09375 0.875 
L 2.984375 54.6875 
L 12.5 54.6875 
L 29.59375 11.921875 
L 46.6875 54.6875 
L 56.203125 54.6875 
z
" id="DejaVuSans-121"/>
      </defs>
      <use xlink:href="#DejaVuSans-68"/>
      <use x="77.001953" xlink:href="#DejaVuSans-101"/>
      <use x="138.525391" xlink:href="#DejaVuSans-110"/>
      <use x="201.904297" xlink:href="#DejaVuSans-100"/>
      <use x="265.380859" xlink:href="#DejaVuSans-114"/>
      <use x="306.494141" xlink:href="#DejaVuSans-105"/>
      <use x="334.277344" xlink:href="#DejaVuSans-116"/>
      <use x="373.486328" xlink:href="#DejaVuSans-101"/>
      <use x="435.009766" xlink:href="#DejaVuSans-32"/>
      <use x="466.796875" xlink:href="#DejaVuSans-76"/>
      <use x="522.509766" xlink:href="#DejaVuSans-105"/>
      <use x="550.292969" xlink:href="#DejaVuSans-110"/>
      <use x="613.671875" xlink:href="#DejaVuSans-101"/>
      <use x="675.195312" xlink:href="#DejaVuSans-97"/>
      <use x="736.474609" xlink:href="#DejaVuSans-114"/>
      <use x="777.587891" xlink:href="#DejaVuSans-32"/>
      <use x="809.375" xlink:href="#DejaVuSans-79"/>
      <use x="888.085938" xlink:href="#DejaVuSans-110"/>
      <use x="951.464844" xlink:href="#DejaVuSans-108"/>
      <use x="979.248047" xlink:href="#DejaVuSans-121"/>
     </g>
    </g>
    <g id="line2d_20">
     <path d="M 183.15625 128.854688 
L 203.15625 128.854688 
" style="fill:none;stroke:#000000;stroke-linecap:square;stroke-opacity:0.2;stroke-width:1.5;"/>
    </g>
    <g id="line2d_21"/>
    <g id="text_9">
     <!-- Soma -->
     <g transform="translate(211.15625 132.354688)scale(0.1 -0.1)">
      <defs>
       <path d="M 53.515625 70.515625 
L 53.515625 60.890625 
Q 47.90625 63.578125 42.921875 64.890625 
Q 37.9375 66.21875 33.296875 66.21875 
Q 25.25 66.21875 20.875 63.09375 
Q 16.5 59.96875 16.5 54.203125 
Q 16.5 49.359375 19.40625 46.890625 
Q 22.3125 44.4375 30.421875 42.921875 
L 36.375 41.703125 
Q 47.40625 39.59375 52.65625 34.296875 
Q 57.90625 29 57.90625 20.125 
Q 57.90625 9.515625 50.796875 4.046875 
Q 43.703125 -1.421875 29.984375 -1.421875 
Q 24.8125 -1.421875 18.96875 -0.25 
Q 13.140625 0.921875 6.890625 3.21875 
L 6.890625 13.375 
Q 12.890625 10.015625 18.65625 8.296875 
Q 24.421875 6.59375 29.984375 6.59375 
Q 38.421875 6.59375 43.015625 9.90625 
Q 47.609375 13.234375 47.609375 19.390625 
Q 47.609375 24.75 44.3125 27.78125 
Q 41.015625 30.8125 33.5 32.328125 
L 27.484375 33.5 
Q 16.453125 35.6875 11.515625 40.375 
Q 6.59375 45.0625 6.59375 53.421875 
Q 6.59375 63.09375 13.40625 68.65625 
Q 20.21875 74.21875 32.171875 74.21875 
Q 37.3125 74.21875 42.625 73.28125 
Q 47.953125 72.359375 53.515625 70.515625 
z
" id="DejaVuSans-83"/>
       <path d="M 30.609375 48.390625 
Q 23.390625 48.390625 19.1875 42.75 
Q 14.984375 37.109375 14.984375 27.296875 
Q 14.984375 17.484375 19.15625 11.84375 
Q 23.34375 6.203125 30.609375 6.203125 
Q 37.796875 6.203125 41.984375 11.859375 
Q 46.1875 17.53125 46.1875 27.296875 
Q 46.1875 37.015625 41.984375 42.703125 
Q 37.796875 48.390625 30.609375 48.390625 
z
M 30.609375 56 
Q 42.328125 56 49.015625 48.375 
Q 55.71875 40.765625 55.71875 27.296875 
Q 55.71875 13.875 49.015625 6.21875 
Q 42.328125 -1.421875 30.609375 -1.421875 
Q 18.84375 -1.421875 12.171875 6.21875 
Q 5.515625 13.875 5.515625 27.296875 
Q 5.515625 40.765625 12.171875 48.375 
Q 18.84375 56 30.609375 56 
z
" id="DejaVuSans-111"/>
       <path d="M 52 44.1875 
Q 55.375 50.25 60.0625 53.125 
Q 64.75 56 71.09375 56 
Q 79.640625 56 84.28125 50.015625 
Q 88.921875 44.046875 88.921875 33.015625 
L 88.921875 0 
L 79.890625 0 
L 79.890625 32.71875 
Q 79.890625 40.578125 77.09375 44.375 
Q 74.3125 48.1875 68.609375 48.1875 
Q 61.625 48.1875 57.5625 43.546875 
Q 53.515625 38.921875 53.515625 30.90625 
L 53.515625 0 
L 44.484375 0 
L 44.484375 32.71875 
Q 44.484375 40.625 41.703125 44.40625 
Q 38.921875 48.1875 33.109375 48.1875 
Q 26.21875 48.1875 22.15625 43.53125 
Q 18.109375 38.875 18.109375 30.90625 
L 18.109375 0 
L 9.078125 0 
L 9.078125 54.6875 
L 18.109375 54.6875 
L 18.109375 46.1875 
Q 21.1875 51.21875 25.484375 53.609375 
Q 29.78125 56 35.6875 56 
Q 41.65625 56 45.828125 52.96875 
Q 50 49.953125 52 44.1875 
z
" id="DejaVuSans-109"/>
      </defs>
      <use xlink:href="#DejaVuSans-83"/>
      <use x="63.476562" xlink:href="#DejaVuSans-111"/>
      <use x="124.658203" xlink:href="#DejaVuSans-109"/>
      <use x="222.070312" xlink:href="#DejaVuSans-97"/>
     </g>
    </g>
   </g>
  </g>
 </g>
 <defs>
  <clipPath id="p0834229785">
   <rect height="543.6" width="279" x="45" y="86.4"/>
  </clipPath>
 </defs>
</svg>
