<?xml version="1.0" encoding="utf-8" standalone="no"?>
<!DOCTYPE svg PUBLIC "-//W3C//DTD SVG 1.1//EN"
  "http://www.w3.org/Graphics/SVG/1.1/DTD/svg11.dtd">
<!-- Created with matplotlib (https://matplotlib.org/) -->
<svg height="188.352pt" version="1.1" viewBox="0 0 148.32 188.352" width="148.32pt" xmlns="http://www.w3.org/2000/svg" xmlns:xlink="http://www.w3.org/1999/xlink">
 <defs>
  <style type="text/css">
*{stroke-linecap:butt;stroke-linejoin:round;}
  </style>
 </defs>
 <g id="figure_1">
  <g id="patch_1">
   <path d="M 0 188.352 
L 148.32 188.352 
L 148.32 0 
L 0 0 
z
" style="fill:#ffffff;"/>
  </g>
  <g id="axes_1">
   <g id="patch_2">
    <path d="M 7.2 181.152 
L 141.12 181.152 
L 141.12 7.2 
L 7.2 7.2 
z
" style="fill:#ffffff;"/>
   </g>
   <g id="matplotlib.axis_1"/>
   <g id="matplotlib.axis_2"/>
   <g id="line2d_1">
    <path clip-path="url(#p1525db980c)" d="M 13.287273 173.213772 
L 14.003877 173.106889 
L 14.81714 172.758689 
L 15.793056 172.086271 
L 16.972287 170.991132 
L 18.492155 169.251898 
L 20.403323 166.70306 
L 23.005764 162.823525 
L 26.17749 158.145459 
L 27.722689 156.261318 
L 29.064573 154.957051 
L 30.365793 153.996916 
L 31.707677 153.286656 
L 33.17155 152.767574 
L 34.960729 152.382386 
L 37.359854 152.112814 
L 40.775558 151.967667 
L 44.760547 152.018235 
L 48.867524 152.294261 
L 53.462459 152.834334 
L 59.195963 153.744945 
L 68.507823 155.482242 
L 85.911649 158.722543 
L 97.216003 160.579801 
L 108.601683 162.223719 
L 120.597311 163.729014 
L 133.446865 165.114733 
L 135.032727 165.271109 
L 135.032727 165.271109 
" style="fill:none;stroke:#000000;stroke-linecap:square;"/>
   </g>
   <g id="line2d_2">
    <path clip-path="url(#p1525db980c)" d="M 13.287273 173.245091 
L 14.329182 173.13698 
L 15.58974 172.769411 
L 17.134939 172.074128 
L 19.346081 170.813011 
L 26.868763 166.349091 
L 29.67452 165.032922 
L 32.439614 163.980269 
L 35.286034 163.13516 
L 38.33577 162.465467 
L 41.670148 161.965144 
L 45.45182 161.627786 
L 49.924766 161.460174 
L 55.495617 161.485081 
L 63.099625 161.757517 
L 76.111831 162.480082 
L 116.896965 164.822545 
L 135.032727 165.710725 
L 135.032727 165.710725 
" style="fill:none;stroke:#000000;stroke-linecap:square;stroke-opacity:0.3;"/>
   </g>
   <g id="line2d_3">
    <path clip-path="url(#p1525db980c)" d="M 13.287273 147.832389 
L 13.881888 147.722323 
L 14.573161 147.346397 
L 15.386424 146.619137 
L 16.36234 145.4147 
L 17.51624 143.605554 
L 18.736134 141.265994 
L 19.874702 138.602673 
L 20.931944 135.548105 
L 21.948522 131.905197 
L 23.046427 127.078177 
L 24.428974 119.875352 
L 26.868763 107.048693 
L 27.844678 103.174531 
L 28.617278 100.946687 
L 29.267889 99.688249 
L 29.837173 99.042689 
L 30.32513 98.807587 
L 30.772425 98.828224 
L 31.260383 99.080515 
L 31.829667 99.63437 
L 32.602266 100.736806 
L 33.700171 102.748988 
L 37.156539 109.349869 
L 38.417096 111.16648 
L 39.63699 112.543673 
L 40.856885 113.594239 
L 42.198768 114.452331 
L 43.743968 115.164939 
L 45.695799 115.805049 
L 48.786198 116.55112 
L 58.057395 118.698427 
L 65.539413 120.741011 
L 85.383028 126.248573 
L 94.776214 128.569362 
L 104.128737 130.650199 
L 113.806566 132.573736 
L 123.972352 134.36526 
L 134.748085 136.03604 
L 135.032727 136.077249 
L 135.032727 136.077249 
" style="fill:none;stroke:#000000;stroke-linecap:square;"/>
   </g>
   <g id="line2d_4">
    <path clip-path="url(#p1525db980c)" d="M 13.287273 147.863709 
L 14.125867 147.758289 
L 15.101782 147.408537 
L 16.281013 146.739077 
L 17.800882 145.603735 
L 20.118681 143.558355 
L 25.526879 138.716568 
L 28.088657 136.765235 
L 30.487783 135.214613 
L 32.846245 133.952009 
L 35.245371 132.916542 
L 37.766486 132.070138 
L 40.450253 131.403431 
L 43.418663 130.899275 
L 46.753041 130.565062 
L 50.616039 130.409063 
L 55.292301 130.452671 
L 61.310446 130.743249 
L 70.175012 131.414344 
L 130.763097 136.416331 
L 135.032727 136.712848 
L 135.032727 136.712848 
" style="fill:none;stroke:#000000;stroke-linecap:square;stroke-opacity:0.3;"/>
   </g>
   <g id="line2d_5">
    <path clip-path="url(#p1525db980c)" d="M 13.287273 97.069625 
L 13.841225 96.960808 
L 14.451172 96.612971 
L 15.183108 95.927049 
L 16.077698 94.755975 
L 17.094276 93.046992 
L 18.207513 90.723237 
L 19.224092 88.068269 
L 20.118681 85.083772 
L 20.931944 81.577294 
L 21.745207 77.039722 
L 22.599133 70.935156 
L 23.575048 62.244344 
L 25.079585 46.474591 
L 26.70611 30.13357 
L 27.641363 22.912512 
L 28.373299 18.843474 
L 28.983246 16.594315 
L 29.471204 15.538884 
L 29.877836 15.145653 
L 30.203141 15.133377 
L 30.528446 15.374285 
L 30.935077 16.006116 
L 31.463698 17.320709 
L 32.154972 19.746312 
L 33.090224 23.963134 
L 34.838739 33.148819 
L 36.627918 42.064685 
L 37.847812 47.059575 
L 38.945717 50.663457 
L 40.002959 53.383612 
L 41.019537 55.402789 
L 42.036116 56.947512 
L 43.093358 58.163482 
L 44.231926 59.143213 
L 45.533146 59.971094 
L 47.159672 60.729013 
L 49.396145 61.505696 
L 54.153733 62.857245 
L 61.310446 64.970891 
L 72.696127 68.633221 
L 83.837828 72.110866 
L 92.78372 74.666701 
L 101.566959 76.94396 
L 110.553514 79.043278 
L 119.946701 81.007335 
L 129.827845 82.84422 
L 135.032727 83.725952 
L 135.032727 83.725952 
" style="fill:none;stroke:#000000;stroke-linecap:square;"/>
   </g>
   <g id="line2d_6">
    <path clip-path="url(#p1525db980c)" d="M 13.287273 97.100944 
L 14.085203 96.992234 
L 15.020456 96.626361 
L 16.118361 95.944001 
L 17.51624 94.796665 
L 19.549397 92.805899 
L 26.136826 86.160333 
L 28.535952 84.15103 
L 30.813088 82.527596 
L 33.090224 81.177179 
L 35.408023 80.063808 
L 37.807149 79.159707 
L 40.368927 78.435648 
L 43.134021 77.888382 
L 46.22442 77.508977 
L 49.762113 77.306724 
L 53.950417 77.299574 
L 59.1553 77.523607 
L 66.27135 78.068009 
L 78.673609 79.275834 
L 108.439031 82.197413 
L 129.095908 83.972789 
L 135.032727 84.44321 
L 135.032727 84.44321 
" style="fill:none;stroke:#000000;stroke-linecap:square;stroke-opacity:0.3;"/>
   </g>
   <g id="line2d_7">
    <path d="M 114.336 50.688 
L 114.336 33.767078 
" style="fill:none;stroke:#000000;stroke-width:3;"/>
   </g>
   <g id="line2d_8">
    <path d="M 106.203371 50.688 
L 114.336 50.688 
" style="fill:none;stroke:#000000;stroke-width:3;"/>
   </g>
   <g id="text_1">
    <!-- $20$mV -->
    <defs>
     <path d="M 19.1875 8.296875 
L 53.609375 8.296875 
L 53.609375 0 
L 7.328125 0 
L 7.328125 8.296875 
Q 12.9375 14.109375 22.625 23.890625 
Q 32.328125 33.6875 34.8125 36.53125 
Q 39.546875 41.84375 41.421875 45.53125 
Q 43.3125 49.21875 43.3125 52.78125 
Q 43.3125 58.59375 39.234375 62.25 
Q 35.15625 65.921875 28.609375 65.921875 
Q 23.96875 65.921875 18.8125 64.3125 
Q 13.671875 62.703125 7.8125 59.421875 
L 7.8125 69.390625 
Q 13.765625 71.78125 18.9375 73 
Q 24.125 74.21875 28.421875 74.21875 
Q 39.75 74.21875 46.484375 68.546875 
Q 53.21875 62.890625 53.21875 53.421875 
Q 53.21875 48.921875 51.53125 44.890625 
Q 49.859375 40.875 45.40625 35.40625 
Q 44.1875 33.984375 37.640625 27.21875 
Q 31.109375 20.453125 19.1875 8.296875 
z
" id="DejaVuSans-50"/>
     <path d="M 31.78125 66.40625 
Q 24.171875 66.40625 20.328125 58.90625 
Q 16.5 51.421875 16.5 36.375 
Q 16.5 21.390625 20.328125 13.890625 
Q 24.171875 6.390625 31.78125 6.390625 
Q 39.453125 6.390625 43.28125 13.890625 
Q 47.125 21.390625 47.125 36.375 
Q 47.125 51.421875 43.28125 58.90625 
Q 39.453125 66.40625 31.78125 66.40625 
z
M 31.78125 74.21875 
Q 44.046875 74.21875 50.515625 64.515625 
Q 56.984375 54.828125 56.984375 36.375 
Q 56.984375 17.96875 50.515625 8.265625 
Q 44.046875 -1.421875 31.78125 -1.421875 
Q 19.53125 -1.421875 13.0625 8.265625 
Q 6.59375 17.96875 6.59375 36.375 
Q 6.59375 54.828125 13.0625 64.515625 
Q 19.53125 74.21875 31.78125 74.21875 
z
" id="DejaVuSans-48"/>
     <path d="M 52 44.1875 
Q 55.375 50.25 60.0625 53.125 
Q 64.75 56 71.09375 56 
Q 79.640625 56 84.28125 50.015625 
Q 88.921875 44.046875 88.921875 33.015625 
L 88.921875 0 
L 79.890625 0 
L 79.890625 32.71875 
Q 79.890625 40.578125 77.09375 44.375 
Q 74.3125 48.1875 68.609375 48.1875 
Q 61.625 48.1875 57.5625 43.546875 
Q 53.515625 38.921875 53.515625 30.90625 
L 53.515625 0 
L 44.484375 0 
L 44.484375 32.71875 
Q 44.484375 40.625 41.703125 44.40625 
Q 38.921875 48.1875 33.109375 48.1875 
Q 26.21875 48.1875 22.15625 43.53125 
Q 18.109375 38.875 18.109375 30.90625 
L 18.109375 0 
L 9.078125 0 
L 9.078125 54.6875 
L 18.109375 54.6875 
L 18.109375 46.1875 
Q 21.1875 51.21875 25.484375 53.609375 
Q 29.78125 56 35.6875 56 
Q 41.65625 56 45.828125 52.96875 
Q 50 49.953125 52 44.1875 
z
" id="DejaVuSans-109"/>
     <path d="M 28.609375 0 
L 0.78125 72.90625 
L 11.078125 72.90625 
L 34.1875 11.53125 
L 57.328125 72.90625 
L 67.578125 72.90625 
L 39.796875 0 
z
" id="DejaVuSans-86"/>
    </defs>
    <g transform="translate(87.1674 44.526099)scale(0.0833 -0.0833)">
     <use transform="translate(0 0.78125)" xlink:href="#DejaVuSans-50"/>
     <use transform="translate(63.623047 0.78125)" xlink:href="#DejaVuSans-48"/>
     <use transform="translate(127.246094 0.78125)" xlink:href="#DejaVuSans-109"/>
     <use transform="translate(224.658203 0.78125)" xlink:href="#DejaVuSans-86"/>
    </g>
   </g>
   <g id="text_2">
    <!-- $2$ms -->
    <defs>
     <path d="M 44.28125 53.078125 
L 44.28125 44.578125 
Q 40.484375 46.53125 36.375 47.5 
Q 32.28125 48.484375 27.875 48.484375 
Q 21.1875 48.484375 17.84375 46.4375 
Q 14.5 44.390625 14.5 40.28125 
Q 14.5 37.15625 16.890625 35.375 
Q 19.28125 33.59375 26.515625 31.984375 
L 29.59375 31.296875 
Q 39.15625 29.25 43.1875 25.515625 
Q 47.21875 21.78125 47.21875 15.09375 
Q 47.21875 7.46875 41.1875 3.015625 
Q 35.15625 -1.421875 24.609375 -1.421875 
Q 20.21875 -1.421875 15.453125 -0.5625 
Q 10.6875 0.296875 5.421875 2 
L 5.421875 11.28125 
Q 10.40625 8.6875 15.234375 7.390625 
Q 20.0625 6.109375 24.8125 6.109375 
Q 31.15625 6.109375 34.5625 8.28125 
Q 37.984375 10.453125 37.984375 14.40625 
Q 37.984375 18.0625 35.515625 20.015625 
Q 33.0625 21.96875 24.703125 23.78125 
L 21.578125 24.515625 
Q 13.234375 26.265625 9.515625 29.90625 
Q 5.8125 33.546875 5.8125 39.890625 
Q 5.8125 47.609375 11.28125 51.796875 
Q 16.75 56 26.8125 56 
Q 31.78125 56 36.171875 55.265625 
Q 40.578125 54.546875 44.28125 53.078125 
z
" id="DejaVuSans-115"/>
    </defs>
    <g transform="translate(101.356586 60.496538)scale(0.0833 -0.0833)">
     <use transform="translate(0 0.78125)" xlink:href="#DejaVuSans-50"/>
     <use transform="translate(63.623047 0.78125)" xlink:href="#DejaVuSans-109"/>
     <use transform="translate(161.035156 0.78125)" xlink:href="#DejaVuSans-115"/>
    </g>
   </g>
  </g>
 </g>
 <defs>
  <clipPath id="p1525db980c">
   <rect height="173.952" width="133.92" x="7.2" y="7.2"/>
  </clipPath>
 </defs>
</svg>
