<?xml version="1.0" encoding="utf-8" standalone="no"?>
<!DOCTYPE svg PUBLIC "-//W3C//DTD SVG 1.1//EN"
  "http://www.w3.org/Graphics/SVG/1.1/DTD/svg11.dtd">
<!-- Created with matplotlib (https://matplotlib.org/) -->
<svg height="216pt" version="1.1" viewBox="0 0 360 216" width="360pt" xmlns="http://www.w3.org/2000/svg" xmlns:xlink="http://www.w3.org/1999/xlink">
 <metadata>
  <rdf:RDF xmlns:cc="http://creativecommons.org/ns#" xmlns:dc="http://purl.org/dc/elements/1.1/" xmlns:rdf="http://www.w3.org/1999/02/22-rdf-syntax-ns#">
   <cc:Work>
    <dc:type rdf:resource="http://purl.org/dc/dcmitype/StillImage"/>
    <dc:date>2021-02-19T02:00:37.070033</dc:date>
    <dc:format>image/svg+xml</dc:format>
    <dc:creator>
     <cc:Agent>
      <dc:title>Matplotlib v3.3.4, https://matplotlib.org/</dc:title>
     </cc:Agent>
    </dc:creator>
   </cc:Work>
  </rdf:RDF>
 </metadata>
 <defs>
  <style type="text/css">*{stroke-linecap:butt;stroke-linejoin:round;}</style>
 </defs>
 <g id="figure_1">
  <g id="patch_1">
   <path d="M 0 216 
L 360 216 
L 360 0 
L 0 0 
z
" style="fill:none;"/>
  </g>
  <g id="axes_1">
   <g id="patch_2">
    <path d="M 45 189 
L 324 189 
L 324 25.92 
L 45 25.92 
z
" style="fill:#ffffff;"/>
   </g>
   <g id="matplotlib.axis_1">
    <g id="xtick_1">
     <g id="line2d_1">
      <defs>
       <path d="M 0 0 
L 0 3.5 
" id="m90f63a085f" style="stroke:#000000;stroke-width:0.8;"/>
      </defs>
      <g>
       <use style="stroke:#000000;stroke-width:0.8;" x="57.681818" xlink:href="#m90f63a085f" y="189"/>
      </g>
     </g>
     <g id="text_1">
      <!-- 0 -->
      <g transform="translate(54.500568 203.598437)scale(0.1 -0.1)">
       <defs>
        <path d="M 31.78125 66.40625 
Q 24.171875 66.40625 20.328125 58.90625 
Q 16.5 51.421875 16.5 36.375 
Q 16.5 21.390625 20.328125 13.890625 
Q 24.171875 6.390625 31.78125 6.390625 
Q 39.453125 6.390625 43.28125 13.890625 
Q 47.125 21.390625 47.125 36.375 
Q 47.125 51.421875 43.28125 58.90625 
Q 39.453125 66.40625 31.78125 66.40625 
z
M 31.78125 74.21875 
Q 44.046875 74.21875 50.515625 64.515625 
Q 56.984375 54.828125 56.984375 36.375 
Q 56.984375 17.96875 50.515625 8.265625 
Q 44.046875 -1.421875 31.78125 -1.421875 
Q 19.53125 -1.421875 13.0625 8.265625 
Q 6.59375 17.96875 6.59375 36.375 
Q 6.59375 54.828125 13.0625 64.515625 
Q 19.53125 74.21875 31.78125 74.21875 
z
" id="DejaVuSans-48"/>
       </defs>
       <use xlink:href="#DejaVuSans-48"/>
      </g>
     </g>
    </g>
    <g id="xtick_2">
     <g id="line2d_2">
      <g>
       <use style="stroke:#000000;stroke-width:0.8;" x="100.03926" xlink:href="#m90f63a085f" y="189"/>
      </g>
     </g>
     <g id="text_2">
      <!-- 5 -->
      <g transform="translate(96.85801 203.598437)scale(0.1 -0.1)">
       <defs>
        <path d="M 10.796875 72.90625 
L 49.515625 72.90625 
L 49.515625 64.59375 
L 19.828125 64.59375 
L 19.828125 46.734375 
Q 21.96875 47.46875 24.109375 47.828125 
Q 26.265625 48.1875 28.421875 48.1875 
Q 40.625 48.1875 47.75 41.5 
Q 54.890625 34.8125 54.890625 23.390625 
Q 54.890625 11.625 47.5625 5.09375 
Q 40.234375 -1.421875 26.90625 -1.421875 
Q 22.3125 -1.421875 17.546875 -0.640625 
Q 12.796875 0.140625 7.71875 1.703125 
L 7.71875 11.625 
Q 12.109375 9.234375 16.796875 8.0625 
Q 21.484375 6.890625 26.703125 6.890625 
Q 35.15625 6.890625 40.078125 11.328125 
Q 45.015625 15.765625 45.015625 23.390625 
Q 45.015625 31 40.078125 35.4375 
Q 35.15625 39.890625 26.703125 39.890625 
Q 22.75 39.890625 18.8125 39.015625 
Q 14.890625 38.140625 10.796875 36.28125 
z
" id="DejaVuSans-53"/>
       </defs>
       <use xlink:href="#DejaVuSans-53"/>
      </g>
     </g>
    </g>
    <g id="xtick_3">
     <g id="line2d_3">
      <g>
       <use style="stroke:#000000;stroke-width:0.8;" x="142.396702" xlink:href="#m90f63a085f" y="189"/>
      </g>
     </g>
     <g id="text_3">
      <!-- 10 -->
      <g transform="translate(136.034202 203.598437)scale(0.1 -0.1)">
       <defs>
        <path d="M 12.40625 8.296875 
L 28.515625 8.296875 
L 28.515625 63.921875 
L 10.984375 60.40625 
L 10.984375 69.390625 
L 28.421875 72.90625 
L 38.28125 72.90625 
L 38.28125 8.296875 
L 54.390625 8.296875 
L 54.390625 0 
L 12.40625 0 
z
" id="DejaVuSans-49"/>
       </defs>
       <use xlink:href="#DejaVuSans-49"/>
       <use x="63.623047" xlink:href="#DejaVuSans-48"/>
      </g>
     </g>
    </g>
    <g id="xtick_4">
     <g id="line2d_4">
      <g>
       <use style="stroke:#000000;stroke-width:0.8;" x="184.754145" xlink:href="#m90f63a085f" y="189"/>
      </g>
     </g>
     <g id="text_4">
      <!-- 15 -->
      <g transform="translate(178.391645 203.598437)scale(0.1 -0.1)">
       <use xlink:href="#DejaVuSans-49"/>
       <use x="63.623047" xlink:href="#DejaVuSans-53"/>
      </g>
     </g>
    </g>
    <g id="xtick_5">
     <g id="line2d_5">
      <g>
       <use style="stroke:#000000;stroke-width:0.8;" x="227.111587" xlink:href="#m90f63a085f" y="189"/>
      </g>
     </g>
     <g id="text_5">
      <!-- 20 -->
      <g transform="translate(220.749087 203.598437)scale(0.1 -0.1)">
       <defs>
        <path d="M 19.1875 8.296875 
L 53.609375 8.296875 
L 53.609375 0 
L 7.328125 0 
L 7.328125 8.296875 
Q 12.9375 14.109375 22.625 23.890625 
Q 32.328125 33.6875 34.8125 36.53125 
Q 39.546875 41.84375 41.421875 45.53125 
Q 43.3125 49.21875 43.3125 52.78125 
Q 43.3125 58.59375 39.234375 62.25 
Q 35.15625 65.921875 28.609375 65.921875 
Q 23.96875 65.921875 18.8125 64.3125 
Q 13.671875 62.703125 7.8125 59.421875 
L 7.8125 69.390625 
Q 13.765625 71.78125 18.9375 73 
Q 24.125 74.21875 28.421875 74.21875 
Q 39.75 74.21875 46.484375 68.546875 
Q 53.21875 62.890625 53.21875 53.421875 
Q 53.21875 48.921875 51.53125 44.890625 
Q 49.859375 40.875 45.40625 35.40625 
Q 44.1875 33.984375 37.640625 27.21875 
Q 31.109375 20.453125 19.1875 8.296875 
z
" id="DejaVuSans-50"/>
       </defs>
       <use xlink:href="#DejaVuSans-50"/>
       <use x="63.623047" xlink:href="#DejaVuSans-48"/>
      </g>
     </g>
    </g>
    <g id="xtick_6">
     <g id="line2d_6">
      <g>
       <use style="stroke:#000000;stroke-width:0.8;" x="269.469029" xlink:href="#m90f63a085f" y="189"/>
      </g>
     </g>
     <g id="text_6">
      <!-- 25 -->
      <g transform="translate(263.106529 203.598437)scale(0.1 -0.1)">
       <use xlink:href="#DejaVuSans-50"/>
       <use x="63.623047" xlink:href="#DejaVuSans-53"/>
      </g>
     </g>
    </g>
    <g id="xtick_7">
     <g id="line2d_7">
      <g>
       <use style="stroke:#000000;stroke-width:0.8;" x="311.826471" xlink:href="#m90f63a085f" y="189"/>
      </g>
     </g>
     <g id="text_7">
      <!-- 30 -->
      <g transform="translate(305.463971 203.598437)scale(0.1 -0.1)">
       <defs>
        <path d="M 40.578125 39.3125 
Q 47.65625 37.796875 51.625 33 
Q 55.609375 28.21875 55.609375 21.1875 
Q 55.609375 10.40625 48.1875 4.484375 
Q 40.765625 -1.421875 27.09375 -1.421875 
Q 22.515625 -1.421875 17.65625 -0.515625 
Q 12.796875 0.390625 7.625 2.203125 
L 7.625 11.71875 
Q 11.71875 9.328125 16.59375 8.109375 
Q 21.484375 6.890625 26.8125 6.890625 
Q 36.078125 6.890625 40.9375 10.546875 
Q 45.796875 14.203125 45.796875 21.1875 
Q 45.796875 27.640625 41.28125 31.265625 
Q 36.765625 34.90625 28.71875 34.90625 
L 20.21875 34.90625 
L 20.21875 43.015625 
L 29.109375 43.015625 
Q 36.375 43.015625 40.234375 45.921875 
Q 44.09375 48.828125 44.09375 54.296875 
Q 44.09375 59.90625 40.109375 62.90625 
Q 36.140625 65.921875 28.71875 65.921875 
Q 24.65625 65.921875 20.015625 65.03125 
Q 15.375 64.15625 9.8125 62.3125 
L 9.8125 71.09375 
Q 15.4375 72.65625 20.34375 73.4375 
Q 25.25 74.21875 29.59375 74.21875 
Q 40.828125 74.21875 47.359375 69.109375 
Q 53.90625 64.015625 53.90625 55.328125 
Q 53.90625 49.265625 50.4375 45.09375 
Q 46.96875 40.921875 40.578125 39.3125 
z
" id="DejaVuSans-51"/>
       </defs>
       <use xlink:href="#DejaVuSans-51"/>
       <use x="63.623047" xlink:href="#DejaVuSans-48"/>
      </g>
     </g>
    </g>
   </g>
   <g id="matplotlib.axis_2"/>
   <g id="line2d_8">
    <path clip-path="url(#pa63d4fd11e)" d="M 57.681818 181.587273 
L 59.090029 158.017832 
L 60.445467 138.88648 
L 61.800906 122.836226 
L 63.071629 110.266096 
L 64.342352 99.819253 
L 65.52836 91.771394 
L 66.746311 85.025959 
L 67.847604 80.109368 
L 68.948898 76.194035 
L 69.965476 73.376266 
L 70.89734 71.39736 
L 71.829204 69.940156 
L 72.676353 69.025847 
L 73.438787 68.507218 
L 74.201221 68.252174 
L 74.963655 68.238524 
L 75.726089 68.445517 
L 76.573237 68.910746 
L 77.505101 69.680016 
L 78.606395 70.89681 
L 79.877118 72.658539 
L 81.401986 75.194362 
L 83.180998 78.615015 
L 85.383585 83.357484 
L 88.433321 90.506003 
L 100.54755 119.478577 
L 103.936145 126.717187 
L 107.070596 132.894212 
L 110.035617 138.257595 
L 112.915923 143.020392 
L 115.796229 147.35301 
L 118.59182 151.163914 
L 121.387411 154.607547 
L 124.183002 157.707469 
L 127.063308 160.568133 
L 129.943615 163.117991 
L 132.908635 165.446943 
L 135.958371 167.559187 
L 139.092822 169.461614 
L 142.396702 171.20495 
L 145.870013 172.782566 
L 149.512753 174.19258 
L 153.409637 175.462619 
L 157.645382 176.606331 
L 162.3047 177.627544 
L 167.387593 178.511318 
L 173.148206 179.282936 
L 179.755966 179.937823 
L 187.549736 180.479522 
L 197.037803 180.908287 
L 209.321461 181.229436 
L 226.688012 181.444178 
L 256.338222 181.558044 
L 311.318182 181.585819 
L 311.318182 181.585819 
" style="fill:none;stroke:#000000;stroke-linecap:square;stroke-width:1.5;"/>
   </g>
   <g id="line2d_9">
    <path clip-path="url(#pa63d4fd11e)" d="M 57.681818 181.587273 
L 59.090029 152.57873 
L 60.445467 129.032451 
L 61.800906 109.278292 
L 63.071629 93.807363 
L 64.342352 80.94971 
L 65.52836 71.044653 
L 66.661596 63.263133 
L 67.762889 57.111363 
L 68.864183 52.202509 
L 69.880762 48.66002 
L 70.812625 46.162835 
L 71.659774 44.456614 
L 72.506923 43.238936 
L 73.269357 42.524634 
L 73.947076 42.168232 
L 74.624795 42.053583 
L 75.302514 42.162277 
L 76.064948 42.529975 
L 76.912097 43.216239 
L 77.843961 44.274768 
L 78.945254 45.88794 
L 80.215977 48.169545 
L 81.740845 51.401435 
L 83.604573 55.928031 
L 85.891875 62.109399 
L 89.11104 71.5091 
L 99.361541 101.871503 
L 102.834852 111.235349 
L 105.969302 119.058609 
L 108.934323 125.874069 
L 111.814629 131.942497 
L 114.61022 137.319938 
L 117.321097 142.068846 
L 120.031973 146.381192 
L 122.742849 150.282254 
L 125.453726 153.799379 
L 128.164602 156.960821 
L 130.960193 159.878462 
L 133.755784 162.478285 
L 136.63609 164.855298 
L 139.601111 167.014029 
L 142.650847 168.961509 
L 145.870013 170.750711 
L 149.258608 172.374135 
L 152.816633 173.829094 
L 156.628803 175.143998 
L 160.695118 176.310521 
L 165.185006 177.362467 
L 170.09847 178.281518 
L 175.604937 179.08178 
L 181.873839 179.764641 
L 189.244034 180.337536 
L 198.139096 180.798 
L 209.406176 181.148811 
L 224.909 181.393718 
L 249.561031 181.535437 
L 307.251867 181.585034 
L 311.318182 181.585483 
L 311.318182 181.585483 
" style="fill:none;stroke:#000000;stroke-linecap:square;stroke-width:1.5;"/>
   </g>
   <g id="line2d_10">
    <path clip-path="url(#pa63d4fd11e)" d="M 57.681818 181.587273 
L 59.090029 150.765696 
L 60.445467 125.747775 
L 61.800906 104.758981 
L 63.071629 88.321118 
L 64.342352 74.659862 
L 65.52836 64.135739 
L 66.661596 55.867874 
L 67.762889 49.331618 
L 68.864183 44.115961 
L 69.880762 40.352066 
L 70.812625 37.698808 
L 71.659774 35.885948 
L 72.506923 34.592165 
L 73.269357 33.833219 
L 73.947076 33.454542 
L 74.624795 33.332727 
L 75.302514 33.448215 
L 75.980233 33.782583 
L 76.742667 34.398823 
L 77.674531 35.464798 
L 78.691109 36.977039 
L 79.877118 39.142006 
L 81.317271 42.260074 
L 83.011569 46.481644 
L 85.129441 52.387886 
L 88.009747 61.147921 
L 94.109218 80.660166 
L 98.683822 94.866085 
L 102.157132 104.955514 
L 105.291583 113.409733 
L 108.256604 120.790881 
L 111.13691 127.374356 
L 113.908294 133.168152 
L 116.619171 138.337924 
L 119.330047 143.037443 
L 122.040923 147.29275 
L 124.7518 151.132465 
L 127.462676 154.586457 
L 130.173552 157.684848 
L 132.969143 160.538985 
L 135.764735 163.077872 
L 138.645041 165.395512 
L 141.610062 167.497211 
L 144.659797 169.390608 
L 147.878963 171.127828 
L 151.267558 172.702084 
L 154.825584 174.111259 
L 158.637753 175.383288 
L 162.82721 176.541336 
L 167.401814 177.567719 
L 172.399992 178.45826 
L 178.07589 179.238226 
L 184.598936 179.902259 
L 192.223275 180.448317 
L 201.541913 180.884639 
L 213.571426 181.212941 
L 230.429688 181.433907 
L 258.724459 181.553673 
L 310.824113 181.585319 
L 310.824113 181.585319 
" style="fill:none;stroke:#000000;stroke-linecap:square;stroke-width:1.5;"/>
   </g>
   <g id="patch_3">
    <path d="M 57.681818 189 
L 311.826471 189 
" style="fill:none;stroke:#000000;stroke-linecap:square;stroke-linejoin:miter;stroke-width:0.8;"/>
   </g>
  </g>
 </g>
 <defs>
  <clipPath id="pa63d4fd11e">
   <rect height="163.08" width="279" x="45" y="25.92"/>
  </clipPath>
 </defs>
</svg>
