<?xml version="1.0" encoding="utf-8" standalone="no"?>
<!DOCTYPE svg PUBLIC "-//W3C//DTD SVG 1.1//EN"
  "http://www.w3.org/Graphics/SVG/1.1/DTD/svg11.dtd">
<!-- Created with matplotlib (https://matplotlib.org/) -->
<svg height="231.84pt" version="1.1" viewBox="0 0 181.8 231.84" width="181.8pt" xmlns="http://www.w3.org/2000/svg" xmlns:xlink="http://www.w3.org/1999/xlink">
 <metadata>
  <rdf:RDF xmlns:cc="http://creativecommons.org/ns#" xmlns:dc="http://purl.org/dc/elements/1.1/" xmlns:rdf="http://www.w3.org/1999/02/22-rdf-syntax-ns#">
   <cc:Work>
    <dc:type rdf:resource="http://purl.org/dc/dcmitype/StillImage"/>
    <dc:date>2021-03-17T11:13:02.538149</dc:date>
    <dc:format>image/svg+xml</dc:format>
    <dc:creator>
     <cc:Agent>
      <dc:title>Matplotlib v3.3.4, https://matplotlib.org/</dc:title>
     </cc:Agent>
    </dc:creator>
   </cc:Work>
  </rdf:RDF>
 </metadata>
 <defs>
  <style type="text/css">*{stroke-linecap:butt;stroke-linejoin:round;}</style>
 </defs>
 <g id="figure_1">
  <g id="patch_1">
   <path d="M 0 231.84 
L 181.8 231.84 
L 181.8 0 
L 0 0 
z
" style="fill:none;"/>
  </g>
  <g id="axes_1">
   <g id="patch_2">
    <path d="M 7.2 224.64 
L 174.6 224.64 
L 174.6 7.2 
L 7.2 7.2 
z
" style="fill:#ffffff;"/>
   </g>
   <g id="matplotlib.axis_1"/>
   <g id="matplotlib.axis_2"/>
   <g id="line2d_1">
    <path clip-path="url(#p1c445da37a)" d="M 14.809091 214.717215 
L 15.603189 214.611489 
L 16.518109 214.256719 
L 17.585517 213.584134 
L 18.85624 212.496819 
L 20.400273 210.859991 
L 22.280944 208.527925 
L 24.619075 205.259609 
L 28.482073 199.394752 
L 31.02352 195.746567 
L 32.751703 193.638386 
L 34.276571 192.117244 
L 35.699781 190.99744 
L 37.17382 190.119919 
L 38.749517 189.448327 
L 40.52853 188.940731 
L 42.714174 188.560293 
L 45.662252 188.289018 
L 49.677737 188.153385 
L 54.150683 188.222794 
L 58.725287 188.517297 
L 63.706522 189.064779 
L 69.704336 189.958154 
L 77.989452 191.436559 
L 110.672454 197.470968 
L 123.2272 199.456994 
L 136.086919 201.264534 
L 149.607415 202.938031 
L 163.992002 204.49169 
L 166.990909 204.788886 
L 166.990909 204.788886 
" style="fill:none;stroke:#000000;stroke-linecap:square;"/>
   </g>
   <g id="line2d_2">
    <path clip-path="url(#p1c445da37a)" d="M 14.809091 214.756364 
L 15.958991 214.649943 
L 17.331372 214.288861 
L 18.957898 213.619435 
L 21.111878 212.473286 
L 24.82239 210.196271 
L 29.803625 207.200277 
L 33.107506 205.479769 
L 36.208071 204.113636 
L 39.308635 202.990083 
L 42.510858 202.067023 
L 45.916396 201.319589 
L 49.626908 200.737973 
L 53.744052 200.322584 
L 58.471142 200.074799 
L 64.113154 200.009097 
L 71.280033 200.159616 
L 81.344161 200.611048 
L 100.86247 201.756161 
L 137.154327 203.851121 
L 166.990909 205.338407 
L 166.990909 205.338407 
" style="fill:none;stroke:#000000;stroke-linecap:square;stroke-opacity:0.3;"/>
   </g>
   <g id="line2d_3">
    <path clip-path="url(#p1c445da37a)" d="M 14.809091 182.990487 
L 15.450702 182.887259 
L 16.162307 182.552649 
L 17.026399 181.879253 
L 18.042977 180.772184 
L 19.212043 179.149625 
L 20.55276 176.889147 
L 21.925141 174.124369 
L 23.195864 171.053225 
L 24.36493 167.635131 
L 25.483166 163.679437 
L 26.652232 158.722564 
L 28.024613 151.893767 
L 32.294243 129.827564 
L 33.259993 126.340361 
L 34.073256 124.147962 
L 34.784861 122.810311 
L 35.394808 122.087198 
L 35.953926 121.750207 
L 36.462215 121.695051 
L 36.970505 121.857888 
L 37.580452 122.308212 
L 38.292057 123.130295 
L 39.206978 124.548116 
L 40.579359 127.142293 
L 44.137384 134.046083 
L 45.611423 136.340217 
L 46.983804 138.074548 
L 48.356185 139.449406 
L 49.779395 140.554072 
L 51.304263 141.453109 
L 53.083276 142.234103 
L 55.319749 142.956311 
L 58.674458 143.776604 
L 70.92423 146.612359 
L 79.158517 148.85325 
L 105.081272 156.050227 
L 115.60286 158.659988 
L 126.022791 161.015039 
L 136.747695 163.209272 
L 147.879231 165.258604 
L 159.620714 167.191924 
L 166.990909 168.296561 
L 166.990909 168.296561 
" style="fill:none;stroke:#000000;stroke-linecap:square;"/>
   </g>
   <g id="line2d_4">
    <path clip-path="url(#p1c445da37a)" d="M 14.809091 183.029636 
L 15.755675 182.92145 
L 16.823083 182.573428 
L 18.093806 181.913608 
L 19.669503 180.824599 
L 21.772654 179.075513 
L 26.093113 175.10582 
L 29.854454 171.804599 
L 32.751703 169.555537 
L 35.445637 167.741805 
L 38.088741 166.228081 
L 40.731846 164.966468 
L 43.476608 163.90163 
L 46.373857 163.01899 
L 49.474422 162.311572 
L 52.829131 161.777493 
L 56.590472 161.409872 
L 60.860102 161.222011 
L 65.892166 161.229636 
L 72.144125 161.471258 
L 80.581727 162.035321 
L 94.610512 163.227741 
L 134.053762 166.642532 
L 158.654964 168.507858 
L 166.990909 169.09106 
L 166.990909 169.09106 
" style="fill:none;stroke:#000000;stroke-linecap:square;stroke-opacity:0.3;"/>
   </g>
   <g id="line2d_5">
    <path clip-path="url(#p1c445da37a)" d="M 14.809091 119.537031 
L 15.399873 119.437336 
L 16.111478 119.074997 
L 16.924741 118.380324 
L 17.839662 117.294155 
L 18.957898 115.593604 
L 20.196958 113.273656 
L 21.416852 110.496972 
L 22.484259 107.517158 
L 23.450009 104.164834 
L 24.36493 100.171617 
L 25.279851 95.1336 
L 26.2456 88.461706 
L 27.313008 79.390875 
L 28.685389 65.592435 
L 31.582638 35.866963 
L 32.599217 27.86464 
L 33.463308 22.724614 
L 34.174913 19.735083 
L 34.784861 18.074604 
L 35.242321 17.362268 
L 35.648952 17.097521 
L 36.004755 17.137456 
L 36.360557 17.417857 
L 36.818018 18.109117 
L 37.377136 19.414636 
L 38.088741 21.712098 
L 39.003662 25.498876 
L 40.325214 32.044413 
L 44.086555 51.236526 
L 45.458936 56.837346 
L 46.67883 60.927265 
L 47.847896 64.097791 
L 48.966132 66.522772 
L 50.084369 68.445951 
L 51.253434 70.020593 
L 52.473328 71.29201 
L 53.794881 72.3483 
L 55.319749 73.272921 
L 57.14959 74.111266 
L 59.640208 74.98705 
L 64.113154 76.277238 
L 73.31319 78.942382 
L 83.27566 82.112757 
L 100.354181 87.541529 
L 110.519967 90.5204 
L 120.329951 93.163274 
L 130.241592 95.602302 
L 140.458207 97.88624 
L 151.132283 100.042446 
L 162.314647 102.072407 
L 166.990909 102.857439 
L 166.990909 102.857439 
" style="fill:none;stroke:#000000;stroke-linecap:square;"/>
   </g>
   <g id="line2d_6">
    <path clip-path="url(#p1c445da37a)" d="M 14.809091 119.57618 
L 15.704847 119.465836 
L 16.721425 119.106127 
L 17.890491 118.446335 
L 19.313701 117.376007 
L 21.162707 115.691162 
L 24.161614 112.612261 
L 29.244507 107.412849 
L 32.090927 104.833542 
L 34.734032 102.735919 
L 37.275478 101.00152 
L 39.816925 99.536661 
L 42.4092 98.301524 
L 45.103134 97.268552 
L 47.898725 96.434431 
L 50.897632 95.770824 
L 54.201512 95.270973 
L 57.861195 94.945757 
L 62.079996 94.801319 
L 67.061232 94.862936 
L 73.211532 95.17197 
L 81.496648 95.825636 
L 95.372946 97.175796 
L 131.817289 100.769554 
L 154.842795 102.780144 
L 166.990909 103.754013 
L 166.990909 103.754013 
" style="fill:none;stroke:#000000;stroke-linecap:square;stroke-opacity:0.3;"/>
   </g>
   <g id="line2d_7">
    <path d="M 141.12 61.56 
L 141.12 40.408848 
" style="fill:none;stroke:#000000;stroke-width:3;"/>
   </g>
   <g id="line2d_8">
    <path d="M 130.954214 61.56 
L 141.12 61.56 
" style="fill:none;stroke:#000000;stroke-width:3;"/>
   </g>
   <g id="text_1">
    <!-- $20$mV -->
    <g transform="translate(113.2818 53.282983)scale(0.0833 -0.0833)">
     <defs>
      <path d="M 19.1875 8.296875 
L 53.609375 8.296875 
L 53.609375 0 
L 7.328125 0 
L 7.328125 8.296875 
Q 12.9375 14.109375 22.625 23.890625 
Q 32.328125 33.6875 34.8125 36.53125 
Q 39.546875 41.84375 41.421875 45.53125 
Q 43.3125 49.21875 43.3125 52.78125 
Q 43.3125 58.59375 39.234375 62.25 
Q 35.15625 65.921875 28.609375 65.921875 
Q 23.96875 65.921875 18.8125 64.3125 
Q 13.671875 62.703125 7.8125 59.421875 
L 7.8125 69.390625 
Q 13.765625 71.78125 18.9375 73 
Q 24.125 74.21875 28.421875 74.21875 
Q 39.75 74.21875 46.484375 68.546875 
Q 53.21875 62.890625 53.21875 53.421875 
Q 53.21875 48.921875 51.53125 44.890625 
Q 49.859375 40.875 45.40625 35.40625 
Q 44.1875 33.984375 37.640625 27.21875 
Q 31.109375 20.453125 19.1875 8.296875 
z
" id="DejaVuSans-50"/>
      <path d="M 31.78125 66.40625 
Q 24.171875 66.40625 20.328125 58.90625 
Q 16.5 51.421875 16.5 36.375 
Q 16.5 21.390625 20.328125 13.890625 
Q 24.171875 6.390625 31.78125 6.390625 
Q 39.453125 6.390625 43.28125 13.890625 
Q 47.125 21.390625 47.125 36.375 
Q 47.125 51.421875 43.28125 58.90625 
Q 39.453125 66.40625 31.78125 66.40625 
z
M 31.78125 74.21875 
Q 44.046875 74.21875 50.515625 64.515625 
Q 56.984375 54.828125 56.984375 36.375 
Q 56.984375 17.96875 50.515625 8.265625 
Q 44.046875 -1.421875 31.78125 -1.421875 
Q 19.53125 -1.421875 13.0625 8.265625 
Q 6.59375 17.96875 6.59375 36.375 
Q 6.59375 54.828125 13.0625 64.515625 
Q 19.53125 74.21875 31.78125 74.21875 
z
" id="DejaVuSans-48"/>
      <path d="M 52 44.1875 
Q 55.375 50.25 60.0625 53.125 
Q 64.75 56 71.09375 56 
Q 79.640625 56 84.28125 50.015625 
Q 88.921875 44.046875 88.921875 33.015625 
L 88.921875 0 
L 79.890625 0 
L 79.890625 32.71875 
Q 79.890625 40.578125 77.09375 44.375 
Q 74.3125 48.1875 68.609375 48.1875 
Q 61.625 48.1875 57.5625 43.546875 
Q 53.515625 38.921875 53.515625 30.90625 
L 53.515625 0 
L 44.484375 0 
L 44.484375 32.71875 
Q 44.484375 40.625 41.703125 44.40625 
Q 38.921875 48.1875 33.109375 48.1875 
Q 26.21875 48.1875 22.15625 43.53125 
Q 18.109375 38.875 18.109375 30.90625 
L 18.109375 0 
L 9.078125 0 
L 9.078125 54.6875 
L 18.109375 54.6875 
L 18.109375 46.1875 
Q 21.1875 51.21875 25.484375 53.609375 
Q 29.78125 56 35.6875 56 
Q 41.65625 56 45.828125 52.96875 
Q 50 49.953125 52 44.1875 
z
" id="DejaVuSans-109"/>
      <path d="M 28.609375 0 
L 0.78125 72.90625 
L 11.078125 72.90625 
L 34.1875 11.53125 
L 57.328125 72.90625 
L 67.578125 72.90625 
L 39.796875 0 
z
" id="DejaVuSans-86"/>
     </defs>
     <use transform="translate(0 0.78125)" xlink:href="#DejaVuSans-50"/>
     <use transform="translate(63.623047 0.78125)" xlink:href="#DejaVuSans-48"/>
     <use transform="translate(127.246094 0.78125)" xlink:href="#DejaVuSans-109"/>
     <use transform="translate(224.658203 0.78125)" xlink:href="#DejaVuSans-86"/>
    </g>
   </g>
   <g id="text_2">
    <!-- $2$ms -->
    <g transform="translate(127.124007 72.238298)scale(0.0833 -0.0833)">
     <defs>
      <path d="M 44.28125 53.078125 
L 44.28125 44.578125 
Q 40.484375 46.53125 36.375 47.5 
Q 32.28125 48.484375 27.875 48.484375 
Q 21.1875 48.484375 17.84375 46.4375 
Q 14.5 44.390625 14.5 40.28125 
Q 14.5 37.15625 16.890625 35.375 
Q 19.28125 33.59375 26.515625 31.984375 
L 29.59375 31.296875 
Q 39.15625 29.25 43.1875 25.515625 
Q 47.21875 21.78125 47.21875 15.09375 
Q 47.21875 7.46875 41.1875 3.015625 
Q 35.15625 -1.421875 24.609375 -1.421875 
Q 20.21875 -1.421875 15.453125 -0.5625 
Q 10.6875 0.296875 5.421875 2 
L 5.421875 11.28125 
Q 10.40625 8.6875 15.234375 7.390625 
Q 20.0625 6.109375 24.8125 6.109375 
Q 31.15625 6.109375 34.5625 8.28125 
Q 37.984375 10.453125 37.984375 14.40625 
Q 37.984375 18.0625 35.515625 20.015625 
Q 33.0625 21.96875 24.703125 23.78125 
L 21.578125 24.515625 
Q 13.234375 26.265625 9.515625 29.90625 
Q 5.8125 33.546875 5.8125 39.890625 
Q 5.8125 47.609375 11.28125 51.796875 
Q 16.75 56 26.8125 56 
Q 31.78125 56 36.171875 55.265625 
Q 40.578125 54.546875 44.28125 53.078125 
z
" id="DejaVuSans-115"/>
     </defs>
     <use transform="translate(0 0.78125)" xlink:href="#DejaVuSans-50"/>
     <use transform="translate(63.623047 0.78125)" xlink:href="#DejaVuSans-109"/>
     <use transform="translate(161.035156 0.78125)" xlink:href="#DejaVuSans-115"/>
    </g>
   </g>
  </g>
 </g>
 <defs>
  <clipPath id="p1c445da37a">
   <rect height="217.44" width="167.4" x="7.2" y="7.2"/>
  </clipPath>
 </defs>
</svg>
