<?xml version="1.0" encoding="utf-8" standalone="no"?>
<!DOCTYPE svg PUBLIC "-//W3C//DTD SVG 1.1//EN"
  "http://www.w3.org/Graphics/SVG/1.1/DTD/svg11.dtd">
<!-- Created with matplotlib (https://matplotlib.org/) -->
<svg height="68.76pt" version="1.1" viewBox="0 0 181.8 68.76" width="181.8pt" xmlns="http://www.w3.org/2000/svg" xmlns:xlink="http://www.w3.org/1999/xlink">
 <defs>
  <style type="text/css">
*{stroke-linecap:butt;stroke-linejoin:round;}
  </style>
 </defs>
 <g id="figure_1">
  <g id="patch_1">
   <path d="M 0 68.76 
L 181.8 68.76 
L 181.8 0 
L 0 0 
z
" style="fill:#ffffff;"/>
  </g>
  <g id="axes_1">
   <g id="patch_2">
    <path d="M 7.2 61.56 
L 174.6 61.56 
L 174.6 7.2 
L 7.2 7.2 
z
" style="fill:#ffffff;"/>
   </g>
   <g id="matplotlib.axis_1"/>
   <g id="matplotlib.axis_2"/>
   <g id="line2d_1">
    <path clip-path="url(#p84c2547000)" d="M 14.809091 53.887177 
L 15.908162 47.02698 
L 16.97557 41.711983 
L 17.992148 37.701149 
L 19.008727 34.563936 
L 19.993642 32.234698 
L 20.908563 30.606146 
L 21.823483 29.418328 
L 22.687575 28.643587 
L 23.551667 28.157589 
L 24.415759 27.91842 
L 25.33068 27.893172 
L 26.347258 28.094331 
L 27.516324 28.566836 
L 28.888705 29.375131 
L 30.616888 30.668893 
L 33.056677 32.804124 
L 41.799253 40.691237 
L 44.747331 42.934616 
L 47.593751 44.822389 
L 50.440171 46.44134 
L 53.33742 47.832503 
L 56.387156 49.046718 
L 59.640208 50.097279 
L 63.147404 50.993115 
L 67.061232 51.758464 
L 71.534177 52.398849 
L 76.769557 52.915825 
L 83.174003 53.31637 
L 91.560776 53.606342 
L 103.861377 53.790012 
L 126.988541 53.874595 
L 166.990909 53.886843 
L 166.990909 53.886843 
" style="fill:none;stroke:#000000;stroke-linecap:square;"/>
   </g>
   <g id="line2d_2">
    <path clip-path="url(#p84c2547000)" d="M 14.809091 59.089091 
L 15.908162 48.798795 
L 16.97557 40.8263 
L 17.992148 34.810049 
L 19.008727 30.104229 
L 19.942813 26.767586 
L 20.857734 24.284971 
L 21.721825 22.554221 
L 22.535088 21.395398 
L 23.297522 20.668018 
L 24.059956 20.242553 
L 24.82239 20.07917 
L 25.584824 20.142216 
L 26.448916 20.447303 
L 27.414666 21.033766 
L 28.583731 22.021943 
L 30.006941 23.534978 
L 31.887612 25.883329 
L 34.988176 30.168653 
L 39.867754 36.866232 
L 42.714174 40.38559 
L 45.306449 43.249035 
L 47.797067 45.678497 
L 50.287684 47.800062 
L 52.778302 49.632826 
L 55.319749 51.231603 
L 57.962853 52.635276 
L 60.758444 53.869382 
L 63.757351 54.949216 
L 67.010403 55.883138 
L 70.619257 56.685755 
L 74.7364 57.367869 
L 79.51432 57.927554 
L 85.308818 58.373387 
L 92.679013 58.70622 
L 102.946457 58.931255 
L 119.974148 59.053815 
L 166.584278 59.088571 
L 166.990909 59.08859 
L 166.990909 59.08859 
" style="fill:none;stroke:#000000;stroke-linecap:square;"/>
   </g>
   <g id="line2d_3">
    <path clip-path="url(#p84c2547000)" d="M 14.809091 55.187656 
L 15.908162 43.182311 
L 16.97557 33.881067 
L 17.992148 26.862107 
L 18.957898 21.613816 
L 19.891984 17.665442 
L 20.806905 14.722244 
L 21.670997 12.664969 
L 22.484259 11.282016 
L 23.246693 10.408143 
L 23.958298 9.91425 
L 24.669903 9.691806 
L 25.381508 9.706366 
L 26.143942 9.949779 
L 27.008034 10.468503 
L 28.024613 11.35213 
L 29.244507 12.720236 
L 30.820204 14.847976 
L 33.005848 18.210662 
L 41.595937 31.805726 
L 44.188213 35.315157 
L 46.628001 38.257213 
L 49.016961 40.798019 
L 51.405921 43.017166 
L 53.816082 44.953719 
L 56.255871 46.633829 
L 58.797317 48.117442 
L 61.491251 49.431149 
L 64.337671 50.571701 
L 67.438235 51.572124 
L 70.843774 52.433971 
L 74.655944 53.166321 
L 79.050974 53.77949 
L 84.286354 54.277708 
L 90.792457 54.662916 
L 99.433375 54.937868 
L 112.445581 55.107526 
L 138.469994 55.17981 
L 166.629221 55.187052 
L 166.629221 55.187052 
" style="fill:none;stroke:#000000;stroke-linecap:square;"/>
   </g>
   <g id="line2d_4">
    <path d="M 141.12 39.816 
L 141.12 13.806431 
" style="fill:none;stroke:#000000;stroke-width:3;"/>
   </g>
   <g id="line2d_5">
    <path d="M 130.954214 39.816 
L 141.12 39.816 
" style="fill:none;stroke:#000000;stroke-width:3;"/>
   </g>
   <g id="text_1">
    <!-- $1$mA -->
    <defs>
     <path d="M 12.40625 8.296875 
L 28.515625 8.296875 
L 28.515625 63.921875 
L 10.984375 60.40625 
L 10.984375 69.390625 
L 28.421875 72.90625 
L 38.28125 72.90625 
L 38.28125 8.296875 
L 54.390625 8.296875 
L 54.390625 0 
L 12.40625 0 
z
" id="DejaVuSans-49"/>
     <path d="M 52 44.1875 
Q 55.375 50.25 60.0625 53.125 
Q 64.75 56 71.09375 56 
Q 79.640625 56 84.28125 50.015625 
Q 88.921875 44.046875 88.921875 33.015625 
L 88.921875 0 
L 79.890625 0 
L 79.890625 32.71875 
Q 79.890625 40.578125 77.09375 44.375 
Q 74.3125 48.1875 68.609375 48.1875 
Q 61.625 48.1875 57.5625 43.546875 
Q 53.515625 38.921875 53.515625 30.90625 
L 53.515625 0 
L 44.484375 0 
L 44.484375 32.71875 
Q 44.484375 40.625 41.703125 44.40625 
Q 38.921875 48.1875 33.109375 48.1875 
Q 26.21875 48.1875 22.15625 43.53125 
Q 18.109375 38.875 18.109375 30.90625 
L 18.109375 0 
L 9.078125 0 
L 9.078125 54.6875 
L 18.109375 54.6875 
L 18.109375 46.1875 
Q 21.1875 51.21875 25.484375 53.609375 
Q 29.78125 56 35.6875 56 
Q 41.65625 56 45.828125 52.96875 
Q 50 49.953125 52 44.1875 
z
" id="DejaVuSans-109"/>
     <path d="M 34.1875 63.1875 
L 20.796875 26.90625 
L 47.609375 26.90625 
z
M 28.609375 72.90625 
L 39.796875 72.90625 
L 67.578125 0 
L 57.328125 0 
L 50.6875 18.703125 
L 17.828125 18.703125 
L 11.1875 0 
L 0.78125 0 
z
" id="DejaVuSans-65"/>
    </defs>
    <g transform="translate(118.613 29.109775)scale(0.0833 -0.0833)">
     <use transform="translate(0 0.09375)" xlink:href="#DejaVuSans-49"/>
     <use transform="translate(63.623047 0.09375)" xlink:href="#DejaVuSans-109"/>
     <use transform="translate(161.035156 0.09375)" xlink:href="#DejaVuSans-65"/>
    </g>
   </g>
   <g id="text_2">
    <!-- $2$ms -->
    <defs>
     <path d="M 19.1875 8.296875 
L 53.609375 8.296875 
L 53.609375 0 
L 7.328125 0 
L 7.328125 8.296875 
Q 12.9375 14.109375 22.625 23.890625 
Q 32.328125 33.6875 34.8125 36.53125 
Q 39.546875 41.84375 41.421875 45.53125 
Q 43.3125 49.21875 43.3125 52.78125 
Q 43.3125 58.59375 39.234375 62.25 
Q 35.15625 65.921875 28.609375 65.921875 
Q 23.96875 65.921875 18.8125 64.3125 
Q 13.671875 62.703125 7.8125 59.421875 
L 7.8125 69.390625 
Q 13.765625 71.78125 18.9375 73 
Q 24.125 74.21875 28.421875 74.21875 
Q 39.75 74.21875 46.484375 68.546875 
Q 53.21875 62.890625 53.21875 53.421875 
Q 53.21875 48.921875 51.53125 44.890625 
Q 49.859375 40.875 45.40625 35.40625 
Q 44.1875 33.984375 37.640625 27.21875 
Q 31.109375 20.453125 19.1875 8.296875 
z
" id="DejaVuSans-50"/>
     <path d="M 44.28125 53.078125 
L 44.28125 44.578125 
Q 40.484375 46.53125 36.375 47.5 
Q 32.28125 48.484375 27.875 48.484375 
Q 21.1875 48.484375 17.84375 46.4375 
Q 14.5 44.390625 14.5 40.28125 
Q 14.5 37.15625 16.890625 35.375 
Q 19.28125 33.59375 26.515625 31.984375 
L 29.59375 31.296875 
Q 39.15625 29.25 43.1875 25.515625 
Q 47.21875 21.78125 47.21875 15.09375 
Q 47.21875 7.46875 41.1875 3.015625 
Q 35.15625 -1.421875 24.609375 -1.421875 
Q 20.21875 -1.421875 15.453125 -0.5625 
Q 10.6875 0.296875 5.421875 2 
L 5.421875 11.28125 
Q 10.40625 8.6875 15.234375 7.390625 
Q 20.0625 6.109375 24.8125 6.109375 
Q 31.15625 6.109375 34.5625 8.28125 
Q 37.984375 10.453125 37.984375 14.40625 
Q 37.984375 18.0625 35.515625 20.015625 
Q 33.0625 21.96875 24.703125 23.78125 
L 21.578125 24.515625 
Q 13.234375 26.265625 9.515625 29.90625 
Q 5.8125 33.546875 5.8125 39.890625 
Q 5.8125 47.609375 11.28125 51.796875 
Q 16.75 56 26.8125 56 
Q 31.78125 56 36.171875 55.265625 
Q 40.578125 54.546875 44.28125 53.078125 
z
" id="DejaVuSans-115"/>
    </defs>
    <g transform="translate(127.124007 47.232698)scale(0.0833 -0.0833)">
     <use transform="translate(0 0.78125)" xlink:href="#DejaVuSans-50"/>
     <use transform="translate(63.623047 0.78125)" xlink:href="#DejaVuSans-109"/>
     <use transform="translate(161.035156 0.78125)" xlink:href="#DejaVuSans-115"/>
    </g>
   </g>
  </g>
 </g>
 <defs>
  <clipPath id="p84c2547000">
   <rect height="54.36" width="167.4" x="7.2" y="7.2"/>
  </clipPath>
 </defs>
</svg>
