<?xml version="1.0" encoding="utf-8" standalone="no"?>
<!DOCTYPE svg PUBLIC "-//W3C//DTD SVG 1.1//EN"
  "http://www.w3.org/Graphics/SVG/1.1/DTD/svg11.dtd">
<!-- Created with matplotlib (https://matplotlib.org/) -->
<svg height="57.888pt" version="1.1" viewBox="0 0 148.32 57.888" width="148.32pt" xmlns="http://www.w3.org/2000/svg" xmlns:xlink="http://www.w3.org/1999/xlink">
 <defs>
  <style type="text/css">
*{stroke-linecap:butt;stroke-linejoin:round;}
  </style>
 </defs>
 <g id="figure_1">
  <g id="patch_1">
   <path d="M 0 57.888 
L 148.32 57.888 
L 148.32 0 
L 0 0 
z
" style="fill:#ffffff;"/>
  </g>
  <g id="axes_1">
   <g id="patch_2">
    <path d="M 7.2 50.688 
L 141.12 50.688 
L 141.12 7.2 
L 7.2 7.2 
z
" style="fill:#ffffff;"/>
   </g>
   <g id="matplotlib.axis_1"/>
   <g id="matplotlib.axis_2"/>
   <g id="line2d_1">
    <path clip-path="url(#p325a3b2861)" d="M 13.287273 48.711273 
L 14.288519 41.748464 
L 15.223772 36.707248 
L 16.159024 32.843497 
L 17.053613 30.068172 
L 17.882208 28.169685 
L 18.695471 26.834777 
L 19.468071 25.975394 
L 20.200007 25.47157 
L 20.931944 25.222897 
L 21.704544 25.192887 
L 22.55847 25.388988 
L 23.534385 25.848892 
L 24.713616 26.65894 
L 26.258816 28.008766 
L 28.617278 30.403808 
L 34.147466 36.090557 
L 36.749907 38.40342 
L 39.189696 40.280964 
L 41.629484 41.87769 
L 44.109936 43.233234 
L 46.671714 44.381189 
L 49.436808 45.373977 
L 52.445881 46.214205 
L 55.820922 46.92024 
L 59.683921 47.496297 
L 64.319519 47.955523 
L 70.175012 48.301201 
L 78.226314 48.537334 
L 91.197858 48.668929 
L 123.931689 48.710199 
L 135.032727 48.710971 
L 135.032727 48.710971 
" style="fill:none;stroke:#000000;stroke-linecap:square;"/>
   </g>
   <g id="line2d_2">
    <path clip-path="url(#p325a3b2861)" d="M 13.287273 48.711273 
L 14.247856 38.775289 
L 15.183108 31.231198 
L 16.118361 25.443452 
L 17.01295 21.28057 
L 17.841545 18.427723 
L 18.614145 16.500431 
L 19.346081 15.227796 
L 20.037355 14.44733 
L 20.687965 14.03303 
L 21.338575 13.884974 
L 21.989186 13.96467 
L 22.721122 14.284203 
L 23.575048 14.910108 
L 24.63229 15.980439 
L 25.974174 17.676478 
L 27.926005 20.542618 
L 34.798076 30.930917 
L 37.156539 33.948176 
L 39.352348 36.404678 
L 41.507495 38.48891 
L 43.662642 40.26968 
L 45.858451 41.801293 
L 48.176251 43.145088 
L 50.616039 44.299383 
L 53.218481 45.284232 
L 56.105564 46.134586 
L 59.317952 46.84518 
L 63.058962 47.437497 
L 67.491244 47.906912 
L 73.062095 48.26413 
L 80.666103 48.5134 
L 92.621068 48.657704 
L 120.109353 48.708817 
L 135.032727 48.710826 
L 135.032727 48.710826 
" style="fill:none;stroke:#000000;stroke-linecap:square;"/>
   </g>
   <g id="line2d_3">
    <path clip-path="url(#p325a3b2861)" d="M 13.287273 48.711273 
L 14.247856 37.432589 
L 15.183108 28.869026 
L 16.077698 22.548028 
L 16.972287 17.759193 
L 17.800882 14.471508 
L 18.573482 12.244849 
L 19.305418 10.768852 
L 19.996692 9.857586 
L 20.606639 9.388086 
L 21.216586 9.18929 
L 21.826533 9.224529 
L 22.517807 9.506147 
L 23.290406 10.075097 
L 24.225659 11.052389 
L 25.40489 12.623613 
L 27.031416 15.199279 
L 29.918499 20.277641 
L 33.578182 26.591684 
L 36.01797 30.354346 
L 38.21378 33.344272 
L 40.328264 35.857408 
L 42.402084 37.9867 
L 44.516568 39.841517 
L 46.671714 41.436733 
L 48.908187 42.815571 
L 51.26665 44.007646 
L 53.787765 45.032406 
L 56.552858 45.913991 
L 59.643257 46.66168 
L 63.180951 47.283401 
L 67.369255 47.786501 
L 72.574137 48.176718 
L 79.446209 48.455035 
L 89.733984 48.627706 
L 110.024893 48.702549 
L 135.032727 48.710766 
L 135.032727 48.710766 
" style="fill:none;stroke:#000000;stroke-linecap:square;"/>
   </g>
   <g id="line2d_4">
    <path d="M 114.336 33.2928 
L 114.336 14.466826 
" style="fill:none;stroke:#000000;stroke-width:3;"/>
   </g>
   <g id="line2d_5">
    <path d="M 106.203371 33.2928 
L 114.336 33.2928 
" style="fill:none;stroke:#000000;stroke-width:3;"/>
   </g>
   <g id="text_1">
    <!-- $1$mA -->
    <defs>
     <path d="M 12.40625 8.296875 
L 28.515625 8.296875 
L 28.515625 63.921875 
L 10.984375 60.40625 
L 10.984375 69.390625 
L 28.421875 72.90625 
L 38.28125 72.90625 
L 38.28125 8.296875 
L 54.390625 8.296875 
L 54.390625 0 
L 12.40625 0 
z
" id="DejaVuSans-49"/>
     <path d="M 52 44.1875 
Q 55.375 50.25 60.0625 53.125 
Q 64.75 56 71.09375 56 
Q 79.640625 56 84.28125 50.015625 
Q 88.921875 44.046875 88.921875 33.015625 
L 88.921875 0 
L 79.890625 0 
L 79.890625 32.71875 
Q 79.890625 40.578125 77.09375 44.375 
Q 74.3125 48.1875 68.609375 48.1875 
Q 61.625 48.1875 57.5625 43.546875 
Q 53.515625 38.921875 53.515625 30.90625 
L 53.515625 0 
L 44.484375 0 
L 44.484375 32.71875 
Q 44.484375 40.625 41.703125 44.40625 
Q 38.921875 48.1875 33.109375 48.1875 
Q 26.21875 48.1875 22.15625 43.53125 
Q 18.109375 38.875 18.109375 30.90625 
L 18.109375 0 
L 9.078125 0 
L 9.078125 54.6875 
L 18.109375 54.6875 
L 18.109375 46.1875 
Q 21.1875 51.21875 25.484375 53.609375 
Q 29.78125 56 35.6875 56 
Q 41.65625 56 45.828125 52.96875 
Q 50 49.953125 52 44.1875 
z
" id="DejaVuSans-109"/>
     <path d="M 34.1875 63.1875 
L 20.796875 26.90625 
L 47.609375 26.90625 
z
M 28.609375 72.90625 
L 39.796875 72.90625 
L 67.578125 0 
L 57.328125 0 
L 50.6875 18.703125 
L 17.828125 18.703125 
L 11.1875 0 
L 0.78125 0 
z
" id="DejaVuSans-65"/>
    </defs>
    <g transform="translate(92.4986 26.178372)scale(0.0833 -0.0833)">
     <use transform="translate(0 0.09375)" xlink:href="#DejaVuSans-49"/>
     <use transform="translate(63.623047 0.09375)" xlink:href="#DejaVuSans-109"/>
     <use transform="translate(161.035156 0.09375)" xlink:href="#DejaVuSans-65"/>
    </g>
   </g>
   <g id="text_2">
    <!-- $2$ms -->
    <defs>
     <path d="M 19.1875 8.296875 
L 53.609375 8.296875 
L 53.609375 0 
L 7.328125 0 
L 7.328125 8.296875 
Q 12.9375 14.109375 22.625 23.890625 
Q 32.328125 33.6875 34.8125 36.53125 
Q 39.546875 41.84375 41.421875 45.53125 
Q 43.3125 49.21875 43.3125 52.78125 
Q 43.3125 58.59375 39.234375 62.25 
Q 35.15625 65.921875 28.609375 65.921875 
Q 23.96875 65.921875 18.8125 64.3125 
Q 13.671875 62.703125 7.8125 59.421875 
L 7.8125 69.390625 
Q 13.765625 71.78125 18.9375 73 
Q 24.125 74.21875 28.421875 74.21875 
Q 39.75 74.21875 46.484375 68.546875 
Q 53.21875 62.890625 53.21875 53.421875 
Q 53.21875 48.921875 51.53125 44.890625 
Q 49.859375 40.875 45.40625 35.40625 
Q 44.1875 33.984375 37.640625 27.21875 
Q 31.109375 20.453125 19.1875 8.296875 
z
" id="DejaVuSans-50"/>
     <path d="M 44.28125 53.078125 
L 44.28125 44.578125 
Q 40.484375 46.53125 36.375 47.5 
Q 32.28125 48.484375 27.875 48.484375 
Q 21.1875 48.484375 17.84375 46.4375 
Q 14.5 44.390625 14.5 40.28125 
Q 14.5 37.15625 16.890625 35.375 
Q 19.28125 33.59375 26.515625 31.984375 
L 29.59375 31.296875 
Q 39.15625 29.25 43.1875 25.515625 
Q 47.21875 21.78125 47.21875 15.09375 
Q 47.21875 7.46875 41.1875 3.015625 
Q 35.15625 -1.421875 24.609375 -1.421875 
Q 20.21875 -1.421875 15.453125 -0.5625 
Q 10.6875 0.296875 5.421875 2 
L 5.421875 11.28125 
Q 10.40625 8.6875 15.234375 7.390625 
Q 20.0625 6.109375 24.8125 6.109375 
Q 31.15625 6.109375 34.5625 8.28125 
Q 37.984375 10.453125 37.984375 14.40625 
Q 37.984375 18.0625 35.515625 20.015625 
Q 33.0625 21.96875 24.703125 23.78125 
L 21.578125 24.515625 
Q 13.234375 26.265625 9.515625 29.90625 
Q 5.8125 33.546875 5.8125 39.890625 
Q 5.8125 47.609375 11.28125 51.796875 
Q 16.75 56 26.8125 56 
Q 31.78125 56 36.171875 55.265625 
Q 40.578125 54.546875 44.28125 53.078125 
z
" id="DejaVuSans-115"/>
    </defs>
    <g transform="translate(101.356586 40.492058)scale(0.0833 -0.0833)">
     <use transform="translate(0 0.78125)" xlink:href="#DejaVuSans-50"/>
     <use transform="translate(63.623047 0.78125)" xlink:href="#DejaVuSans-109"/>
     <use transform="translate(161.035156 0.78125)" xlink:href="#DejaVuSans-115"/>
    </g>
   </g>
  </g>
 </g>
 <defs>
  <clipPath id="p325a3b2861">
   <rect height="43.488" width="133.92" x="7.2" y="7.2"/>
  </clipPath>
 </defs>
</svg>
